<svg width="220" height="86" viewBox="0 0 220 86" fill="none" xmlns="http://www.w3.org/2000/svg">
<rect width="220" height="86" rx="43" fill="white"/>
<g clip-path="url(#clip0_391_1739)">
<path d="M140.333 58.7722H142.796C143.444 58.7722 143.833 58.509 144.222 58.1141C144.482 57.8509 144.611 57.3245 144.611 56.7981V28.8974C144.611 28.371 144.482 27.9762 144.222 27.5814C143.963 27.1866 143.444 26.9233 142.796 26.9233H140.333C139.685 26.9233 139.296 27.1866 138.907 27.5814C138.648 27.8446 138.519 28.371 138.519 28.8974V56.7981C138.519 57.3245 138.648 57.7193 138.907 58.1141C139.296 58.509 139.685 58.7722 140.333 58.7722Z" fill="#776D65"/>
<path d="M168.981 48.5069C169.37 48.1121 169.5 47.7173 169.5 46.796C169.5 44.0323 168.592 41.1369 166.778 38.8996C164.963 36.6623 162.111 35.083 158.092 35.083C150.833 35.083 146.685 40.8737 146.685 46.9276C146.685 53.3764 151.092 59.1671 158.092 59.1671C161.592 59.1671 165.092 57.851 167.037 55.4821C167.944 54.4292 168.592 52.9815 168.592 52.1919C168.592 51.9287 168.592 51.6655 168.333 51.4023C168.204 51.139 167.944 51.0074 167.426 51.0074H164.055C163.407 51.0074 162.889 51.2707 162.63 51.7971C161.592 53.2448 160.167 54.0344 158.092 54.0344C154.981 54.0344 152.907 51.6655 152.778 48.9017H167.426C168.204 48.9017 168.722 48.7701 168.981 48.5069ZM152.907 44.4271C153.167 41.795 155.111 39.8209 158.092 39.8209C161.074 39.8209 163.018 41.795 163.278 44.4271H152.907Z" fill="#776D65"/>
<path d="M112.852 54.2976C111.815 54.2976 110.778 54.166 110 53.6396C109.352 53.3764 108.963 52.9815 108.574 52.3235C108.315 51.7971 108.185 51.5339 107.667 51.139C107.408 51.0074 107.019 51.0074 106.5 51.0074H103.908C103.389 51.0074 103.13 51.139 102.871 51.4023C102.741 51.6655 102.611 51.9287 102.611 52.3235C102.611 53.1131 102.871 54.2976 103.648 55.2189C105.204 57.4562 108.574 59.1671 112.852 59.1671C117 59.1671 122.834 57.4562 122.834 51.6655C122.834 50.2178 122.445 48.9017 121.667 47.8489C120.63 46.5328 119.334 45.6116 116.871 45.0851L112.074 43.9007C110.13 43.3742 109.222 42.9794 109.222 41.795C109.222 40.6105 110.259 39.6892 112.722 39.6892C114.148 39.6892 115.445 39.9525 116.352 40.8737C117 41.6634 116.871 42.0582 117.519 42.3214C117.908 42.453 118.297 42.453 118.815 42.453H121.148C121.537 42.453 121.797 42.453 122.056 42.1898C122.185 42.0582 122.315 41.6634 122.315 41.2685C122.315 40.2157 121.667 38.768 120.371 37.5835C118.685 36.1359 116.093 35.083 112.852 35.083C107.148 35.083 103.389 37.8468 103.389 42.3214C103.389 43.9007 103.908 45.2167 104.815 46.138C105.852 47.3224 107.408 48.1121 109.611 48.6385L114.408 49.823C115.704 50.2178 116.871 50.6126 116.871 51.7971C116.741 53.6396 114.797 54.2976 112.852 54.2976Z" fill="#776D65"/>
<path d="M135.537 40.2156C135.926 40.2156 136.315 40.084 136.574 39.8208C136.833 39.5576 136.963 39.1628 136.963 38.768V37.3203C136.963 36.7939 136.833 36.5306 136.574 36.2674C136.315 36.0042 135.926 35.8726 135.537 35.8726H131.778V28.8974C131.778 28.371 131.648 27.9762 131.389 27.5814C131.13 27.1866 130.611 26.9233 129.963 26.9233H127.63C126.981 26.9233 126.593 27.1866 126.204 27.5814C125.944 27.8446 125.815 28.371 125.815 28.8974V35.8726H124.648C124.259 35.8726 123.87 36.0042 123.611 36.2674C123.352 36.5306 123.222 36.9255 123.222 37.3203V38.768C123.222 39.2944 123.352 39.6892 123.611 39.8208C123.87 40.084 124.259 40.2156 124.648 40.2156H125.685V50.8758C125.685 53.6395 126.463 55.3504 127.759 56.6665C129.056 57.9825 130.611 58.7722 133.463 58.7722H135.278C135.667 58.7722 136.056 58.6406 136.315 58.3774C136.574 58.1142 136.704 57.7193 136.704 57.3245V55.482C136.704 54.9556 136.574 54.6924 136.315 54.4292C136.056 54.166 135.796 54.0343 135.407 54.0343H135.148C133.981 54.0343 133.204 53.7711 132.685 53.2447C132.037 52.5867 131.778 51.797 131.778 50.481V40.2156H135.537Z" fill="#776D65"/>
<path d="M167.426 31.7928C167.815 31.7928 168.204 31.6612 168.463 31.398C168.722 31.1348 168.852 30.74 168.852 30.3452V28.3711C168.852 27.5814 168.722 27.1866 168.463 26.9234C168.204 26.6602 167.815 26.5286 167.426 26.5286C167.037 26.5286 166.778 26.5286 166.13 26.6602L149.407 28.3711C148.889 28.3711 148.759 28.5027 148.5 28.7659C148.37 29.0291 148.241 29.2923 148.241 29.6871V30.74C148.241 31.1348 148.37 31.398 148.5 31.5296C148.63 31.7928 149.018 31.7928 149.278 31.7928H167.426Z" fill="#776D65"/>
<path d="M50.5 56.5349C50.5 57.1929 50.6296 57.5877 51.0185 57.9825C51.4074 58.3774 51.9259 58.6406 52.7037 58.6406H54.6481C55.4259 58.6406 55.9444 58.3774 56.3333 57.9825C56.5926 57.5877 56.8519 57.1929 56.8519 56.5349V36.7938H56.9815C56.9815 36.7938 67.8704 56.2717 68.2593 56.9297C68.9074 57.9825 69.9444 58.7722 71.3704 58.7722H74.7407C75.5185 58.7722 76.037 58.509 76.4259 58.1141C76.6852 57.7193 76.9444 57.3245 76.9444 56.6665V31.7928H120.5C120.889 31.7928 121.278 31.6612 121.537 31.398C121.796 31.1348 121.926 30.7399 121.926 30.3451V28.5026C121.926 27.9762 121.796 27.713 121.537 27.4498C121.278 27.1866 120.889 27.0549 120.5 27.0549H72.6667C71.8889 27.0549 71.3704 27.3182 70.9815 27.713C70.7222 28.1078 70.463 28.5026 70.463 29.1607V48.5069H70.3333C70.3333 48.5069 59.963 29.6871 59.4444 28.7658C59.0556 28.1078 58.6667 27.713 58.1481 27.4498C57.6296 27.1866 57.1111 26.9233 56.0741 26.9233H52.5741C51.7963 26.9233 51.2778 27.1866 50.8889 27.5814C50.6296 27.9762 50.5 28.371 50.5 29.1607V56.5349Z" fill="#776D65"/>
<path d="M100.926 48.5069C101.315 48.1121 101.444 47.7173 101.444 46.796C101.444 44.0323 100.537 41.1369 98.722 38.8996C96.9072 36.6623 94.0553 35.083 90.0368 35.083C82.7775 35.083 78.6294 40.8737 78.6294 46.9276C78.6294 53.3764 83.0368 59.1671 90.0368 59.1671C93.5368 59.1671 97.0368 57.851 98.9812 55.4821C99.8887 54.4292 100.537 52.9815 100.537 52.1919C100.537 51.9287 100.537 51.6655 100.278 51.4023C100.148 51.139 99.8887 51.0074 99.3701 51.0074H95.9998C95.3516 51.0074 94.8331 51.2707 94.5738 51.7971C93.5368 53.2448 92.1109 54.0344 90.0368 54.0344C86.9257 54.0344 84.8516 51.6655 84.722 48.9017H99.3701C100.148 48.9017 100.537 48.7701 100.926 48.5069ZM84.8516 44.4271C85.1109 41.795 87.0553 39.8209 90.0368 39.8209C93.0183 39.8209 94.9627 41.795 95.222 44.4271H84.8516Z" fill="#776D65"/>
</g>
<defs>
<clipPath id="clip0_391_1739">
<rect width="119" height="33" fill="white" transform="translate(50.5 26.5)"/>
</clipPath>
</defs>
</svg>
