<svg width="220" height="86" viewBox="0 0 220 86" fill="none" xmlns="http://www.w3.org/2000/svg">
<rect width="220" height="86" rx="43" fill="white"/>
<g clip-path="url(#clip0_391_1652)">
<path d="M65 69.0606H155V68.6566H65V69.0606ZM65 58.0505V58.4546H155V58.0505H65Z" fill="#040404"/>
<path d="M127.143 73.8081C127.143 73.0505 127.143 72.9495 126.837 72.899H126.633C126.582 72.8485 126.582 72.697 126.633 72.697C127.041 72.6465 127.653 72.6465 128.214 72.6465C128.776 72.6465 129.235 72.7475 129.541 72.899C129.898 73.101 130.153 73.505 130.153 74.0606C130.153 74.8182 129.643 75.1717 129.337 75.3232C129.286 75.3232 129.286 75.4242 129.337 75.4747C129.898 76.5353 130.255 77.2424 130.561 77.5454C130.765 77.7475 130.867 77.7475 130.918 77.7475C130.969 77.798 130.918 77.9495 130.918 77.9495H129.745C129.745 77.9495 129.541 77.697 129.133 76.9394C128.929 76.5858 128.776 76.1818 128.571 75.8283C128.469 75.5757 128.367 75.5757 128.163 75.5757C127.959 75.5757 127.959 75.5757 127.959 75.7778V76.7879C127.959 77.6465 128.01 77.6465 128.367 77.697H128.52C128.571 77.7475 128.571 77.899 128.52 77.9495C127.908 77.899 127.296 77.899 126.684 77.9495C126.633 77.899 126.633 77.798 126.684 77.697H126.837C127.143 77.6465 127.245 77.6465 127.245 76.7879L127.143 73.8081ZM127.959 74.9697C127.959 75.2222 127.959 75.2222 128.265 75.2222C128.929 75.2222 129.235 74.8182 129.235 74.0606C129.235 73.404 128.878 72.899 128.265 72.899C127.908 72.899 127.908 72.899 127.908 73.303C127.959 73.303 127.959 74.9697 127.959 74.9697ZM74.949 73.2525C74.949 72.899 74.949 72.899 74.7449 72.899H74.3367C73.7245 72.899 73.5204 73 73.2653 73.6566C73.2143 73.7071 73.0612 73.6566 73.0612 73.606C73.1633 73.202 73.2653 72.798 73.3163 72.3939L73.3673 72.3434C73.4184 72.3434 73.4184 72.3434 73.4184 72.3939C73.4694 72.5959 73.5714 72.5959 74.0306 72.5959H76.8367C77.1939 72.5959 77.2959 72.5959 77.3469 72.3939C77.398 72.3939 77.398 72.3434 77.449 72.3434C77.5 72.3434 77.5 72.3434 77.551 72.3939C77.5 72.697 77.449 73.404 77.449 73.6566C77.398 73.7071 77.2959 73.7576 77.2449 73.6566C77.1429 73.0505 77.0408 72.899 76.2755 72.899H75.8673C75.6633 72.899 75.6633 72.899 75.6633 73.2525V76.6869C75.6633 77.5454 75.7143 77.5454 76.0714 77.5959L76.3265 77.6464C76.3776 77.697 76.3776 77.8485 76.3265 77.899C75.9694 77.899 75.6633 77.899 75.3061 77.899C75 77.899 74.6939 77.899 74.2347 77.899C74.1837 77.8485 74.1837 77.697 74.2347 77.6464L74.5408 77.5959C74.8469 77.5454 74.949 77.5454 74.949 76.6869C74.949 76.7374 74.949 73.2525 74.949 73.2525ZM80.1531 75.3232C79.7959 75.3232 79.7959 75.3232 79.7959 75.5757V76.7374C79.7959 77.596 79.8469 77.5959 80.2041 77.6464L80.4082 77.697C80.4592 77.7475 80.4592 77.899 80.4082 77.9495C80.102 77.9495 79.7449 77.9495 79.4388 77.9495C79.1327 77.9495 78.8265 77.9495 78.5714 77.9495C78.5204 77.899 78.5204 77.798 78.5714 77.697H78.6735C78.9796 77.6465 79.0816 77.5959 79.0816 76.7879V73.8081C79.0816 72.9495 79.0306 72.9495 78.6735 72.899H78.5204C78.4694 72.8485 78.4694 72.697 78.5204 72.6465C78.8265 72.6465 79.1327 72.6465 79.4388 72.6465C79.7449 72.6465 80.051 72.6465 80.3061 72.6465C80.3571 72.697 80.3571 72.8485 80.3061 72.899H80.2041C79.898 72.9495 79.7959 72.9495 79.7959 73.8081V74.7677C79.7959 74.9697 79.7959 75.0202 80.1531 75.0202H81.7857C82.1429 75.0202 82.1429 75.0202 82.1429 74.7677V73.8081C82.1429 72.9495 82.0918 72.9495 81.7347 72.899H81.5816C81.5306 72.8485 81.5306 72.697 81.5816 72.6465C81.8878 72.6465 82.1939 72.6465 82.5 72.6465C82.8061 72.6465 83.1122 72.6465 83.3673 72.6465C83.4184 72.697 83.4184 72.8485 83.3673 72.899H83.2653C82.9592 72.9495 82.8571 72.9495 82.8571 73.8081V76.7879C82.8571 77.6465 82.9082 77.6465 83.2653 77.697H83.4184C83.4694 77.7475 83.4694 77.899 83.4184 77.9495C83.1122 77.9495 82.8061 77.9495 82.5 77.9495C82.1939 77.9495 81.8878 77.9495 81.5816 77.9495C81.5306 77.899 81.5306 77.798 81.5816 77.697H81.7347C82.0408 77.6465 82.1429 77.6465 82.1429 76.7879V75.6263C82.1429 75.4242 82.1429 75.3737 81.7857 75.3737C81.7347 75.3232 80.1531 75.3232 80.1531 75.3232ZM85.2041 73.7576C85.2041 72.899 85.1531 72.899 84.7959 72.8485H84.6939C84.6429 72.798 84.6429 72.6465 84.6939 72.5959C84.949 72.5959 85.2551 72.5959 85.5612 72.5959H86.9388C87.398 72.5959 87.7551 72.5959 87.8571 72.5959C87.9082 72.7475 87.9082 73.3535 87.9592 73.7071C87.9082 73.7576 87.8061 73.8081 87.7551 73.7576C87.6531 73.303 87.551 73.101 87.3469 73.0505C87.1939 73 86.9898 73 86.7857 73H86.3265C86.0204 73 86.0204 73 86.0204 73.4545V74.8182C86.0204 75.0202 86.0204 75.0202 86.1735 75.0202H86.4796C87.0918 75.0202 87.1939 75.0202 87.2449 74.6667L87.2959 74.4141C87.3469 74.3636 87.5 74.3636 87.5 74.4141C87.5 74.6161 87.5 74.9192 87.5 75.2222C87.5 75.5252 87.5 75.8283 87.5 76.0808C87.449 76.1313 87.3469 76.1313 87.2959 76.0808L87.2449 75.7778C87.1939 75.4242 87.0918 75.4242 86.4796 75.4242H86.1735C86.0204 75.4242 86.0204 75.4242 86.0204 75.6263V76.6364C86.0204 77.0404 86.0204 77.3434 86.1224 77.4444C86.2245 77.5454 86.3265 77.5959 86.8878 77.5959C87.7551 77.5959 87.9082 77.3939 88.1633 76.7374C88.2143 76.6869 88.3163 76.6869 88.3673 76.7879C88.3163 77.1414 88.1633 77.7475 88.0612 77.9495C87.7551 77.9495 87.1429 77.9495 86.3776 77.9495H85.6122C85.3061 77.9495 84.898 77.9495 84.5918 77.9495C84.5408 77.899 84.5408 77.7475 84.5918 77.697L84.8469 77.6464C85.1531 77.5959 85.2551 77.596 85.2551 76.7374L85.2041 73.7576ZM93.6224 75.3232C93.2653 75.3232 93.2653 75.3232 93.2653 75.5757V76.7374C93.2653 77.596 93.3163 77.5959 93.6735 77.6464L93.8776 77.697C93.9286 77.7475 93.9286 77.899 93.8776 77.9495C93.5714 77.9495 93.2143 77.9495 92.9082 77.9495C92.602 77.9495 92.2959 77.9495 92.0408 77.9495C91.9898 77.899 91.9898 77.798 92.0408 77.697H92.1429C92.449 77.6465 92.551 77.5959 92.551 76.7879V73.8081C92.551 72.9495 92.5 72.9495 92.1429 72.899H91.9898C91.9388 72.8485 91.9388 72.697 91.9898 72.6465C92.2959 72.6465 92.602 72.6465 92.9082 72.6465C93.2143 72.6465 93.5204 72.6465 93.7755 72.6465C93.8265 72.697 93.8265 72.8485 93.7755 72.899H93.6735C93.3673 72.9495 93.2653 72.9495 93.2653 73.8081V74.7677C93.2653 74.9697 93.2653 75.0202 93.6224 75.0202H95.2551C95.6122 75.0202 95.6122 75.0202 95.6122 74.7677V73.8081C95.6122 72.9495 95.5612 72.9495 95.2041 72.899H95.051C95 72.8485 95 72.697 95.051 72.6465C95.3571 72.6465 95.6633 72.6465 95.9694 72.6465C96.2755 72.6465 96.5816 72.6465 96.8367 72.6465C96.8878 72.697 96.8878 72.8485 96.8367 72.899H96.7347C96.4286 72.9495 96.3265 72.9495 96.3265 73.8081V76.7879C96.3265 77.6465 96.3776 77.6465 96.7347 77.697H96.8878C96.9388 77.7475 96.9388 77.899 96.8878 77.9495C96.5816 77.9495 96.2755 77.9495 95.9694 77.9495C95.6633 77.9495 95.3571 77.9495 95.051 77.9495C95 77.899 95 77.798 95.051 77.697H95.2041C95.5102 77.6465 95.6122 77.6465 95.6122 76.7879V75.6263C95.6122 75.4242 95.6122 75.3737 95.2551 75.3737H93.6224V75.3232ZM103.01 75.2727C103.01 76.8384 101.99 78.0505 100.612 78.0505C99.0816 78.0505 98.1633 76.7879 98.1633 75.3737C98.1633 73.7576 99.1837 72.5454 100.612 72.5454C102.194 72.4444 103.01 73.8081 103.01 75.2727ZM99.0816 75.0707C99.0816 76.1818 99.4898 77.697 100.663 77.697C101.429 77.697 102.092 77.0404 102.092 75.4242C102.092 74.2121 101.633 72.798 100.51 72.798C99.7959 72.798 99.0816 73.3535 99.0816 75.0707ZM105.663 73.2525C105.663 72.899 105.663 72.899 105.459 72.899H105.051C104.439 72.899 104.235 73 103.98 73.6566C103.929 73.7071 103.776 73.6566 103.776 73.606C103.878 73.202 103.98 72.798 104.031 72.3939L104.082 72.3434C104.133 72.3434 104.133 72.3434 104.133 72.3939C104.184 72.5959 104.286 72.5959 104.745 72.5959H107.551C107.908 72.5959 108.01 72.5959 108.061 72.3939C108.112 72.3939 108.112 72.3434 108.163 72.3434C108.214 72.3434 108.214 72.3434 108.265 72.3939C108.214 72.697 108.163 73.404 108.163 73.6566C108.112 73.7071 108.01 73.7576 107.959 73.6566C107.857 73.0505 107.755 72.899 106.99 72.899H106.582C106.429 72.899 106.378 72.899 106.378 73.2525V76.6869C106.378 77.5454 106.429 77.5454 106.786 77.5959L107.041 77.6464C107.092 77.697 107.092 77.8485 107.041 77.899C106.684 77.899 106.378 77.899 106.02 77.899C105.714 77.899 105.408 77.899 104.949 77.899C104.898 77.8485 104.898 77.697 104.949 77.6464L105.255 77.5959C105.561 77.5454 105.663 77.5454 105.663 76.6869V73.2525ZM110.102 73.7576C110.102 72.899 110.051 72.899 109.694 72.8485H109.592C109.541 72.798 109.541 72.6465 109.592 72.5959C109.847 72.5959 110.153 72.5959 110.459 72.5959H111.786C112.245 72.5959 112.602 72.5959 112.704 72.5959C112.755 72.7475 112.755 73.3535 112.806 73.7071C112.755 73.7576 112.653 73.8081 112.602 73.7576C112.5 73.303 112.398 73.101 112.194 73.0505C112.041 73 111.837 73 111.633 73H111.173C110.867 73 110.867 73 110.867 73.4545V74.8182C110.867 75.0202 110.867 75.0202 111.02 75.0202H111.327C111.939 75.0202 112.041 75.0202 112.092 74.6667L112.143 74.4141C112.194 74.3636 112.347 74.3636 112.347 74.4141C112.347 74.6161 112.347 74.9192 112.347 75.2222C112.347 75.5252 112.347 75.8283 112.347 76.0808C112.296 76.1313 112.194 76.1313 112.143 76.0808L112.092 75.7778C112.041 75.4242 111.939 75.4242 111.327 75.4242H111.02C110.867 75.4242 110.867 75.4242 110.867 75.6263V76.6364C110.867 77.0404 110.867 77.3434 110.969 77.4444C111.071 77.5454 111.173 77.5959 111.735 77.5959C112.602 77.5959 112.755 77.3939 113.01 76.7374C113.061 76.6869 113.163 76.6869 113.214 76.7879C113.163 77.1414 113.01 77.7475 112.908 77.9495C112.602 77.9495 111.99 77.9495 111.224 77.9495H110.459C110.153 77.9495 109.745 77.9495 109.439 77.9495C109.388 77.899 109.388 77.7475 109.439 77.697L109.694 77.6464C110 77.5959 110.102 77.596 110.102 76.7374V73.7576ZM115.867 76.5353C115.867 76.9394 115.867 77.2424 115.969 77.3434C116.071 77.4444 116.173 77.4949 116.735 77.4949C117.5 77.4949 117.602 77.4444 117.908 76.6364C117.959 76.5858 118.061 76.6364 118.112 76.6869C118.061 77.0404 117.908 77.6465 117.806 77.8485C117.5 77.8485 116.939 77.8485 116.173 77.8485H115.459C115.102 77.8485 114.745 77.8485 114.49 77.8485C114.439 77.798 114.439 77.6465 114.49 77.5959L114.694 77.5454C115 77.4949 115.102 77.4949 115.102 76.6364V73.6566C115.102 72.8485 115.051 72.798 114.694 72.7475L114.49 72.697C114.439 72.6465 114.439 72.4949 114.49 72.4444C114.847 72.4444 115.153 72.4444 115.459 72.4444C115.765 72.4444 116.071 72.4444 116.378 72.4444C116.429 72.4949 116.429 72.6465 116.378 72.697L116.224 72.7475C115.918 72.798 115.816 72.8485 115.816 73.6566L115.867 76.5353ZM125.051 77.0404C125.051 77.3434 125.102 77.5454 125.204 77.5959C125.204 77.6465 125.204 77.697 125.204 77.697C125.153 77.697 125 77.697 124.898 77.7475C124.49 77.8485 123.98 77.9495 123.571 77.9495C122.755 77.9495 121.99 77.697 121.48 77.0909C121.071 76.5858 120.867 75.9293 120.867 75.2727C120.867 74.6161 121.071 73.9091 121.48 73.404C121.99 72.798 122.704 72.4444 123.673 72.4444C123.98 72.4444 124.337 72.4949 124.592 72.5454C124.745 72.5959 124.949 72.5959 125.051 72.5959C125.051 72.8485 125.102 73.2525 125.153 73.8586C125.102 73.9596 124.949 73.9596 124.949 73.8586C124.796 73.101 124.286 72.697 123.622 72.697C122.398 72.697 121.837 73.7071 121.837 75.0707C121.837 75.7273 121.939 76.3838 122.347 76.8889C122.653 77.2929 123.163 77.5454 123.673 77.5454C123.98 77.5454 124.184 77.4949 124.286 77.3434C124.337 77.2929 124.337 77.1414 124.337 76.8384V76.6869C124.337 76.1313 124.337 76.0808 123.878 75.9798L123.622 75.9293C123.571 75.8788 123.571 75.7273 123.622 75.6768C123.878 75.6768 124.235 75.6768 124.694 75.6768C125 75.6768 125.255 75.6768 125.51 75.6768C125.561 75.7273 125.561 75.8283 125.51 75.9293H125.408C125.153 75.9798 125.102 76.0303 125.102 76.5353L125.051 77.0404ZM136.582 75.2727C136.582 76.8384 135.561 78.0505 134.184 78.0505C132.653 78.0505 131.735 76.7879 131.735 75.3737C131.735 73.7576 132.755 72.5454 134.184 72.5454C135.765 72.4444 136.582 73.8081 136.582 75.2727ZM132.653 75.0707C132.653 76.1818 133.061 77.697 134.235 77.697C135 77.697 135.663 77.0404 135.663 75.4242C135.663 74.2121 135.204 72.798 134.082 72.798C133.367 72.798 132.653 73.3535 132.653 75.0707ZM138.214 73.7576C138.214 72.899 138.163 72.899 137.806 72.8485H137.704C137.653 72.798 137.653 72.6465 137.704 72.6465C138.316 72.697 138.929 72.697 139.49 72.6465C139.541 72.697 139.541 72.798 139.49 72.8485H139.337C139.031 72.899 138.929 72.9495 138.929 73.7576V75.5757C138.929 76.6869 139.235 77.5959 140.153 77.5959C141.071 77.5959 141.429 76.7879 141.429 75.5757V74.5656C141.429 73.9596 141.429 73.202 141.276 73C141.224 72.899 141.122 72.8485 140.918 72.798H140.765C140.714 72.7475 140.714 72.5959 140.765 72.5959C141.02 72.5959 141.276 72.5959 141.531 72.5959C141.837 72.5959 141.99 72.5959 142.245 72.5959C142.296 72.6465 142.296 72.7475 142.245 72.798L142.092 72.8485C141.939 72.899 141.837 72.899 141.786 73.0505C141.684 73.303 141.684 74.0101 141.684 74.6161V75.5757C141.684 76.2828 141.582 76.9899 141.224 77.4444C140.867 77.899 140.357 78.0505 139.898 78.0505C139.235 78.0505 138.776 77.899 138.469 77.5454C138.163 77.1919 138.01 76.6364 138.01 75.8283L138.214 73.7576ZM144.337 73.8081C144.337 73.101 144.337 72.9495 144.031 72.899L143.776 72.8485C143.724 72.798 143.724 72.6465 143.776 72.6465C144.235 72.5959 144.694 72.5959 145.306 72.5959C145.969 72.5959 146.429 72.697 146.735 72.899C147.092 73.1515 147.296 73.5555 147.296 74.1111C147.296 75.3232 146.276 75.6768 145.765 75.6768C145.714 75.6768 145.663 75.6768 145.612 75.6768C145.561 75.6263 145.561 75.5252 145.612 75.4747C146.224 75.3232 146.48 74.8182 146.48 74.1616C146.48 73.505 146.122 72.9495 145.51 72.9495C145.153 72.9495 145.153 72.9495 145.153 73.303V76.7879C145.153 77.6465 145.204 77.6465 145.561 77.697L145.816 77.7475C145.867 77.798 145.867 77.9495 145.816 78C145.408 78 145.102 78 144.796 78C144.49 78 144.184 78 143.929 78C143.878 77.9495 143.878 77.798 143.929 77.7475H144.031C144.337 77.697 144.439 77.6465 144.439 76.8384L144.337 73.8081ZM70.8673 66.0303C70.9184 66.0808 70.9184 66.2323 70.8673 66.2828C70.6122 66.2828 70.3061 66.2828 70.051 66.2828C69.7449 66.2828 69.4388 66.2828 69.1327 66.2828C69.0816 66.2323 69.0306 66.0808 69.1327 66.0303L69.3367 65.9798C69.5918 65.9293 69.6429 65.8788 69.6429 65.3232V62.0404C69.4388 62.4949 69.3367 62.697 69.2347 63.0505L68.5714 64.4646C68.3163 65.0202 68.0102 65.9293 67.8571 66.2828C67.8061 66.3333 67.7041 66.3333 67.7041 66.2828C67.602 65.8283 67.2959 65.0707 67.1429 64.6667L66.5306 63.1515C66.3776 62.798 66.2755 62.4444 66.1224 62.0909C66.1224 62.4949 66.0714 63.101 66.0714 63.4545C66.0714 63.9596 66.0204 64.6667 66.0204 65.3232C66.0204 65.8283 66.0204 65.9798 66.3265 66.0303L66.5306 66.0808C66.5816 66.1313 66.5816 66.2828 66.5306 66.3333C66.0204 66.2828 65.5612 66.2828 65.051 66.3333C65 66.2828 65 66.1313 65.051 66.0808H65.1531C65.4592 66.0303 65.5612 65.9293 65.5612 65.4242C65.6122 64.9192 65.6122 64.4141 65.6633 63.5555C65.7143 63 65.7143 62.3434 65.7143 61.8384C65.7143 61.4848 65.6122 61.2828 65.3571 61.2323L65.102 61.1818C65.051 61.1313 65.051 60.9798 65.1531 60.9293C65.3571 60.9293 65.5612 60.9293 65.8163 60.9293C66.0714 60.9293 66.2755 60.9293 66.5306 60.9293C66.5816 61.4343 66.7347 61.8384 66.8878 62.2424L67.6531 64.1111C67.7041 64.2626 67.9082 64.6667 67.9592 64.8182C68.0612 64.5656 68.1633 64.3636 68.3163 64.0101L68.9796 62.4949C69.1837 61.9899 69.4388 61.4848 69.5408 60.9798C69.7449 60.9798 69.949 60.9798 70.102 60.9798C70.4082 60.9798 70.6122 60.9798 70.8163 60.9798C70.8673 61.0303 70.9184 61.1818 70.8163 61.2323L70.6122 61.2828C70.3061 61.3333 70.2551 61.4848 70.2551 61.8889C70.2551 63.0505 70.2551 64.2626 70.3061 65.4242C70.3061 65.9798 70.4082 66.0303 70.6122 66.0303C70.6633 65.9798 70.8673 66.0303 70.8673 66.0303ZM73.5714 64.2626C73.3673 64.2626 73.4184 64.2626 73.3163 64.4646L73.0102 65.4242C72.8571 65.8788 72.9082 65.9293 73.1633 65.9798L73.3673 66.0303C73.4184 66.0808 73.4184 66.2323 73.3673 66.2828C73.1633 66.2828 72.9082 66.2828 72.6531 66.2828C72.449 66.2828 72.1939 66.2828 71.9898 66.2828C71.9388 66.2323 71.9388 66.1313 71.9898 66.0303L72.1939 65.9798C72.398 65.9293 72.449 65.8788 72.551 65.6263C72.6531 65.4242 72.7551 65.0707 72.9082 64.6667L73.8265 61.8384C73.9286 61.5858 73.9796 61.3838 73.9796 61.2323C74.2347 61.1818 74.4388 60.8283 74.4388 60.8283C74.4898 60.8283 74.5408 60.8283 74.5408 60.8788C74.6429 61.2323 74.7449 61.6364 74.8469 61.9899L75.8163 65.3232C75.9694 65.8788 76.0204 65.9293 76.3776 65.9798H76.4796C76.5306 66.0303 76.5306 66.1818 76.4796 66.2323C76.1735 66.2323 75.8673 66.2323 75.5612 66.2323C75.2551 66.2323 74.949 66.2323 74.7449 66.2323C74.6939 66.1818 74.6939 66.0303 74.7449 65.9798H74.898C75.1531 65.9293 75.1531 65.8788 75.102 65.5757L74.7959 64.4646C74.7449 64.2626 74.6939 64.2626 74.4898 64.2626H73.5714ZM74.3878 63.9091C74.5918 63.9091 74.5918 63.9091 74.5408 63.7071L74.2347 62.7475C74.1327 62.3434 74.0816 62.1919 74.0306 62.0909C73.9796 62.1414 73.9286 62.3434 73.8265 62.7475L73.5204 63.7071C73.4694 63.9596 73.4694 63.9596 73.6224 63.9596C73.6735 63.9091 74.3878 63.9091 74.3878 63.9091ZM81.7857 64.8687C81.7857 65.1212 81.7857 66.0808 81.7857 66.2828C81.7347 66.3838 81.6327 66.3838 81.5306 66.3838C81.4286 66.2323 81.2245 65.9293 80.7143 65.2727L79.0816 63.1515C78.6224 62.5454 78.4184 62.2424 78.3163 62.1414C78.3163 62.1414 78.3163 62.2424 78.3163 62.6465V64.2121C78.3163 64.8182 78.3163 65.5252 78.4184 65.7778C78.4694 65.8788 78.6224 65.9293 78.7755 65.9798H78.9286C78.9796 66.0303 78.9796 66.1818 78.9286 66.2323C78.6735 66.2323 78.4184 66.2323 78.1633 66.2323C77.8571 66.2323 77.7041 66.2323 77.449 66.2323C77.398 66.1818 77.398 66.0808 77.449 65.9798L77.602 65.9293C77.7551 65.9293 77.8571 65.8788 77.9082 65.7273C78.0102 65.4747 78.0102 64.7677 78.0102 64.1616V62.2424C78.0102 61.6364 78.0102 61.4848 77.8061 61.2828C77.7551 61.2323 77.551 61.1313 77.449 61.1313H77.3469C77.2959 61.0808 77.2959 60.9293 77.398 60.8788C77.6531 60.9293 78.0612 60.8788 78.2143 60.8788C78.3673 60.8788 78.5204 60.8788 78.6735 60.8788C78.7755 61.2323 79.5408 62.2424 79.7959 62.5454L80.4592 63.404C80.7653 63.7576 81.3776 64.6161 81.4796 64.6667C81.4796 64.6667 81.4796 64.6162 81.4796 64.4646V62.899C81.4796 62.2929 81.4796 61.5858 81.3265 61.3333C81.2755 61.2323 81.1735 61.1818 80.9694 61.1313H80.8163C80.7653 61.0808 80.7653 60.9293 80.8163 60.8788C81.0714 60.8788 81.3265 60.8788 81.5816 60.8788C81.8878 60.8788 82.0408 60.8788 82.2959 60.8788C82.3469 60.9293 82.3469 61.0303 82.2959 61.1313L82.1429 61.1818C81.9898 61.1818 81.8878 61.2323 81.8367 61.3838C81.7347 61.6364 81.7347 62.3434 81.7347 62.9495C81.7857 62.9495 81.7857 64.8687 81.7857 64.8687ZM84.3367 62.1414C84.3367 61.3838 84.3367 61.2828 84.0306 61.2323H83.8776C83.8265 61.1818 83.8265 61.0303 83.8776 61.0303C84.3878 60.9798 84.898 60.9798 85.6122 60.9798C86.2755 60.9798 86.7347 61.0303 87.2449 61.2323C88.0612 61.5858 88.6735 62.4444 88.6735 63.6061C88.6735 64.5151 88.3163 65.4242 87.449 65.9293C86.9388 66.2323 86.3776 66.3333 85.7653 66.3333C85.3571 66.3333 85 66.2828 84.7449 66.2828C84.4898 66.2828 84.1837 66.2828 83.8776 66.2828C83.8265 66.2323 83.8265 66.1313 83.8776 66.0303H84.0306C84.3367 65.9798 84.4388 65.9798 84.4388 65.1212C84.3367 65.0707 84.3367 62.1414 84.3367 62.1414ZM85.1531 64.7677C85.1531 65.5252 85.2041 65.9798 85.9184 65.9798C87.1429 65.9798 87.7041 64.9697 87.7041 63.6061C87.7041 62.0404 86.9388 61.2323 85.7653 61.2323C85.4592 61.2323 85.2551 61.2828 85.2041 61.3333C85.1531 61.3838 85.1531 61.5353 85.1531 61.9394V64.7677ZM90.6633 64.2626C90.5102 64.2626 90.5102 64.2626 90.4082 64.4646L90.102 65.4242C89.949 65.8788 90 65.9293 90.2551 65.9798L90.4592 66.0303C90.5102 66.0808 90.5102 66.2323 90.4592 66.2828C90.2551 66.2828 90 66.2828 89.7449 66.2828C89.5408 66.2828 89.2857 66.2828 89.0816 66.2828C89.0306 66.2323 89.0306 66.1313 89.0816 66.0303L89.2857 65.9798C89.4898 65.9293 89.5408 65.8788 89.6429 65.6263C89.7449 65.4242 89.8469 65.0707 90 64.6667L90.9184 61.8384C91.0204 61.5858 91.0714 61.3838 91.0714 61.2323C91.3265 61.1818 91.5306 60.8283 91.5306 60.8283C91.5816 60.8283 91.6327 60.8283 91.6327 60.8788C91.7347 61.2323 91.8367 61.6364 91.9388 61.9899L92.9082 65.3232C93.0612 65.8788 93.1122 65.9293 93.4694 65.9798H93.5714C93.6224 66.0303 93.6224 66.1818 93.5714 66.2323C93.2653 66.2323 92.9592 66.2323 92.6531 66.2323C92.3469 66.2323 92.0408 66.2323 91.8367 66.2323C91.7857 66.1818 91.7857 66.0303 91.8367 65.9798H91.9898C92.2449 65.9293 92.2449 65.8788 92.1429 65.5757L91.8367 64.4646C91.7857 64.2626 91.7347 64.2626 91.5306 64.2626H90.6633ZM91.4796 63.9091C91.6837 63.9091 91.6837 63.9091 91.6327 63.7071L91.3265 62.7475C91.2245 62.3434 91.1735 62.1919 91.1224 62.0909C91.0714 62.1414 91.0204 62.3434 90.9184 62.7475L90.6122 63.7071C90.5612 63.9596 90.5612 63.9596 90.7143 63.9596C90.7653 63.9091 91.4796 63.9091 91.4796 63.9091ZM94.949 62.1414C94.949 61.3838 94.949 61.2828 94.6429 61.2323H94.4898C94.4388 61.1818 94.4388 61.0303 94.4898 61.0303C94.898 60.9798 95.5102 60.9798 96.0714 60.9798C96.6327 60.9798 97.0918 61.0808 97.398 61.2323C97.7551 61.4343 98.0102 61.8384 98.0102 62.3939C98.0102 63.1515 97.5 63.505 97.1939 63.6566C97.1429 63.6566 97.1429 63.7576 97.1939 63.8081C97.7551 64.8687 98.1122 65.5757 98.4184 65.8788C98.6224 66.0808 98.7245 66.0808 98.7755 66.0808C98.8265 66.1313 98.7755 66.2828 98.7755 66.2828H97.602C97.602 66.2828 97.398 66.0303 96.9898 65.2727C96.7857 64.9192 96.6327 64.5151 96.4286 64.1616C96.3265 63.9091 96.2245 63.9091 96.0204 63.9091C95.8163 63.9091 95.8163 63.9091 95.8163 64.0606V65.0707C95.8163 65.9293 95.8673 65.9293 96.2245 65.9798H96.3776C96.4286 66.0303 96.4286 66.1818 96.3776 66.2323C95.7653 66.1818 95.1531 66.1818 94.5408 66.2323C94.4898 66.1818 94.4898 66.0808 94.5408 65.9798H94.6939C95 65.9293 95.102 65.9293 95.102 65.0707C94.949 65.0707 94.949 62.1414 94.949 62.1414ZM95.7653 63.303C95.7653 63.5555 95.7653 63.5555 96.0714 63.5555C96.7347 63.5555 97.0408 63.1515 97.0408 62.3939C97.0408 61.7374 96.6837 61.2323 96.0714 61.2323C95.7143 61.2323 95.7143 61.2323 95.7143 61.6364C95.7653 61.6364 95.7653 63.303 95.7653 63.303ZM119.082 62.1414C119.082 61.3838 119.082 61.2828 118.776 61.2323H118.622C118.571 61.1818 118.571 61.0303 118.622 61.0303C119.031 60.9798 119.643 60.9798 120.204 60.9798C120.765 60.9798 121.224 61.0808 121.531 61.2323C121.888 61.4343 122.143 61.8384 122.143 62.3939C122.143 63.1515 121.633 63.505 121.327 63.6566C121.276 63.6566 121.276 63.7576 121.327 63.8081C121.888 64.8687 122.245 65.5757 122.551 65.8788C122.755 66.0808 122.857 66.0808 122.908 66.0808C122.959 66.1313 122.908 66.2828 122.908 66.2828H121.735C121.735 66.2828 121.531 66.0303 121.122 65.2727C120.918 64.9192 120.765 64.5151 120.561 64.1616C120.459 63.9091 120.357 63.9091 120.153 63.9091C119.949 63.9091 119.949 63.9091 119.949 64.0606V65.0707C119.949 65.9293 120 65.9293 120.357 65.9798H120.51C120.561 66.0303 120.561 66.1818 120.51 66.2323C119.898 66.1818 119.286 66.1818 118.673 66.2323C118.622 66.1818 118.622 66.0808 118.673 65.9798H118.827C119.133 65.9293 119.235 65.9293 119.235 65.0707L119.082 62.1414ZM119.898 63.303C119.898 63.5555 119.898 63.5555 120.204 63.5555C120.867 63.5555 121.173 63.1515 121.173 62.3939C121.173 61.7374 120.816 61.2323 120.204 61.2323C119.847 61.2323 119.847 61.2323 119.847 61.6364C119.898 61.6364 119.898 63.303 119.898 63.303ZM101.02 65.0707C101.02 65.9293 101.071 65.9293 101.429 65.9798H101.582C101.633 66.0303 101.633 66.1818 101.582 66.2323C100.969 66.1818 100.357 66.1818 99.7449 66.2323C99.6939 66.1818 99.6939 66.0808 99.7449 65.9798H99.898C100.204 65.9293 100.306 65.9293 100.306 65.0707V62.0909C100.306 61.2323 100.255 61.2323 99.898 61.1818H99.7449C99.6939 61.1313 99.6939 60.9798 99.7449 60.9293C100.357 60.9798 100.969 60.9798 101.582 60.9293C101.633 60.9798 101.633 61.0808 101.582 61.1818H101.429C101.122 61.2323 101.02 61.2323 101.02 62.0909V65.0707ZM107.653 64.8687C107.653 65.1212 107.653 66.0808 107.653 66.2828C107.602 66.3838 107.5 66.3838 107.398 66.3838C107.296 66.2323 107.092 65.9293 106.582 65.2727L104.949 63.1515C104.49 62.5454 104.286 62.2424 104.184 62.1414C104.184 62.1414 104.184 62.2424 104.184 62.6465V64.2121C104.184 64.8182 104.184 65.5252 104.286 65.7778C104.337 65.8788 104.439 65.9293 104.643 65.9798H104.796C104.847 66.0303 104.847 66.1818 104.796 66.2323C104.541 66.2323 104.286 66.2323 104.031 66.2323C103.724 66.2323 103.571 66.2323 103.316 66.2323C103.265 66.1818 103.265 66.0808 103.316 65.9798L103.469 65.9293C103.622 65.9293 103.724 65.8788 103.776 65.7273C103.878 65.4747 103.878 64.7677 103.878 64.1616V62.2424C103.878 61.6364 103.878 61.4848 103.673 61.2828C103.622 61.2323 103.418 61.1313 103.316 61.1313H103.214C103.163 61.0808 103.163 60.9293 103.265 60.8788C103.52 60.9293 103.929 60.8788 104.082 60.8788C104.235 60.8788 104.388 60.8788 104.541 60.8788C104.643 61.2323 105.408 62.2424 105.663 62.5454L106.327 63.404C106.633 63.7576 107.245 64.6161 107.347 64.6667C107.347 64.6667 107.347 64.6162 107.347 64.4646V62.899C107.347 62.2929 107.347 61.5858 107.194 61.3333C107.143 61.2323 107.041 61.1818 106.837 61.1313H106.684C106.633 61.0808 106.633 60.9293 106.684 60.8788C106.939 60.8788 107.194 60.8788 107.449 60.8788C107.755 60.8788 107.908 60.8788 108.163 60.8788C108.214 60.9293 108.214 61.0303 108.163 61.1313L108.01 61.1818C107.857 61.1818 107.755 61.2323 107.704 61.3838C107.602 61.6364 107.602 62.3434 107.602 62.9495C107.653 62.9495 107.653 64.8687 107.653 64.8687ZM117.041 63.6061C117.041 65.1717 116.02 66.3333 114.643 66.3333C113.112 66.3333 112.194 65.0707 112.194 63.6566C112.194 62.0404 113.214 60.8283 114.643 60.8283C116.224 60.8283 117.041 62.1414 117.041 63.6061ZM113.112 63.404C113.112 64.5151 113.52 66.0303 114.694 66.0303C115.459 66.0303 116.122 65.3737 116.122 63.7576C116.122 62.5454 115.663 61.1313 114.541 61.1313C113.878 61.1313 113.112 61.6869 113.112 63.404ZM125.714 65.0707C125.714 65.9293 125.765 65.9293 126.122 65.9798H126.276C126.327 66.0303 126.327 66.1818 126.276 66.2323C125.663 66.1818 125.051 66.1818 124.439 66.2323C124.388 66.1818 124.388 66.0808 124.439 65.9798H124.592C124.898 65.9293 125 65.9293 125 65.0707V62.0909C125 61.2323 124.949 61.2323 124.592 61.1818H124.439C124.388 61.1313 124.388 60.9798 124.439 60.9293C125.051 60.9798 125.663 60.9798 126.276 60.9293C126.327 60.9798 126.327 61.0808 126.276 61.1818H126.122C125.816 61.2323 125.714 61.2323 125.714 62.0909V65.0707ZM128.929 62.0909C128.929 61.2323 128.878 61.2323 128.52 61.1818H128.418C128.367 61.1313 128.367 60.9798 128.418 60.9293C128.673 60.9293 128.98 60.9293 129.286 60.9293H130.612C131.071 60.9293 131.429 60.9293 131.531 60.9293C131.582 61.0808 131.582 61.6869 131.633 62.0404C131.582 62.0909 131.48 62.1414 131.429 62.0909C131.327 61.6364 131.224 61.4343 131.02 61.3838C130.867 61.3333 130.663 61.3333 130.459 61.3333H130C129.694 61.3333 129.694 61.3333 129.694 61.7879V63.1515C129.694 63.3535 129.694 63.3535 129.847 63.3535H130.153C130.765 63.3535 130.867 63.3535 130.918 63L130.969 62.7475C131.02 62.697 131.173 62.697 131.173 62.7475C131.173 62.9495 131.173 63.2525 131.173 63.5555C131.173 63.8586 131.173 64.1616 131.173 64.4141C131.122 64.4646 131.02 64.4646 130.969 64.4141L130.918 64.1111C130.867 63.7576 130.765 63.7576 130.153 63.7576H129.847C129.694 63.7576 129.694 63.7576 129.694 63.9596V64.9697C129.694 65.3737 129.694 65.6768 129.796 65.7778C129.898 65.8788 130 65.9293 130.561 65.9293C131.429 65.9293 131.582 65.7273 131.837 65.0707C131.888 65.0202 132.041 65.0202 132.041 65.1212C131.99 65.4747 131.837 66.0808 131.735 66.2828C131.429 66.2828 130.867 66.2828 130.051 66.2828H129.286C128.98 66.2828 128.571 66.2828 128.265 66.2828C128.214 66.2323 128.214 66.1313 128.265 66.0303L128.52 65.9798C128.827 65.9293 128.929 65.9293 128.929 65.0707V62.0909ZM138.061 64.8687C138.061 65.1212 138.061 66.0808 138.061 66.2828C138.01 66.3838 137.908 66.3838 137.806 66.3838C137.704 66.2323 137.5 65.9293 136.99 65.2727L135.357 63.1515C134.898 62.5454 134.694 62.2424 134.592 62.1414C134.592 62.1414 134.592 62.2424 134.592 62.6465V64.2121C134.592 64.8182 134.592 65.5252 134.694 65.7778C134.745 65.8788 134.898 65.9293 135.051 65.9798H135.204C135.255 66.0303 135.255 66.1818 135.204 66.2323C134.949 66.2323 134.694 66.2323 134.439 66.2323C134.133 66.2323 133.98 66.2323 133.724 66.2323C133.673 66.1818 133.673 66.0808 133.724 65.9798L133.878 65.9293C134.031 65.9293 134.133 65.8788 134.184 65.7273C134.286 65.4747 134.286 64.7677 134.286 64.1616V62.2424C134.286 61.6364 134.286 61.4848 134.082 61.2828C134.031 61.2323 133.827 61.1313 133.724 61.1313H133.622C133.571 61.0808 133.571 60.9293 133.673 60.8788C133.929 60.9293 134.337 60.8788 134.49 60.8788C134.643 60.8788 134.796 60.8788 134.949 60.8788C135.051 61.2323 135.816 62.2424 136.071 62.5454L136.735 63.404C137.041 63.7576 137.653 64.6161 137.755 64.6667C137.755 64.6667 137.755 64.6162 137.755 64.4646V62.899C137.755 62.2929 137.755 61.5858 137.602 61.3333C137.551 61.2323 137.449 61.1818 137.245 61.1313H137.092C137.041 61.0808 137.041 60.9293 137.092 60.8788C137.347 60.8788 137.602 60.8788 137.857 60.8788C138.163 60.8788 138.316 60.8788 138.571 60.8788C138.622 60.9293 138.622 61.0303 138.571 61.1313L138.418 61.1818C138.265 61.1818 138.163 61.2323 138.112 61.3838C138.01 61.6364 138.01 62.3434 138.01 62.9495L138.061 64.8687ZM141.99 61.5858C141.99 61.2323 141.99 61.2323 141.786 61.2323H141.378C140.765 61.2323 140.561 61.3333 140.306 61.9899C140.255 62.0404 140.102 61.9899 140.102 61.9394C140.204 61.4848 140.306 61.0303 140.357 60.7273L140.408 60.6768C140.459 60.6768 140.459 60.6768 140.459 60.7273C140.51 60.9293 140.612 60.9293 141.071 60.9293H143.878C144.235 60.9293 144.337 60.9293 144.388 60.7273C144.439 60.7273 144.439 60.6768 144.49 60.6768C144.541 60.6768 144.541 60.6768 144.592 60.7273C144.541 61.0303 144.49 61.7374 144.49 61.9899C144.439 62.0404 144.337 62.0909 144.286 61.9899C144.184 61.3838 144.082 61.2323 143.316 61.2323H142.908C142.704 61.2323 142.704 61.2323 142.704 61.5858V65.0202C142.704 65.8788 142.755 65.8788 143.112 65.9293L143.367 65.9798C143.418 66.0303 143.418 66.1818 143.367 66.2323C143.01 66.2323 142.704 66.2323 142.347 66.2323C142.041 66.2323 141.735 66.2323 141.276 66.2323C141.224 66.1818 141.224 66.0303 141.276 65.9798L141.582 65.9293C141.888 65.8788 141.99 65.8788 141.99 65.0202V61.5858ZM146.99 64.2626C146.786 64.2626 146.837 64.2626 146.735 64.4646L146.429 65.4242C146.276 65.8788 146.327 65.9293 146.582 65.9798L146.786 66.0303C146.837 66.0808 146.837 66.2323 146.786 66.2828C146.582 66.2828 146.327 66.2828 146.071 66.2828C145.867 66.2828 145.612 66.2828 145.408 66.2828C145.357 66.2323 145.357 66.1313 145.408 66.0303L145.612 65.9798C145.816 65.9293 145.867 65.8788 145.969 65.6263C146.071 65.4242 146.173 65.0707 146.327 64.6667L147.245 61.8384C147.347 61.5858 147.398 61.3838 147.398 61.2323C147.653 61.1818 147.857 60.8283 147.857 60.8283C147.908 60.8283 147.959 60.8283 147.959 60.8788C148.061 61.2323 148.163 61.6364 148.265 61.9899L149.235 65.3232C149.388 65.8788 149.439 65.9293 149.796 65.9798H149.898C149.949 66.0303 149.949 66.1818 149.898 66.2323C149.592 66.2323 149.286 66.2323 148.98 66.2323C148.673 66.2323 148.367 66.2323 148.163 66.2323C148.112 66.1818 148.112 66.0303 148.163 65.9798H148.316C148.571 65.9293 148.571 65.8788 148.52 65.5757L148.214 64.4646C148.163 64.2626 148.112 64.2626 147.908 64.2626H146.99ZM147.806 63.9091C148.01 63.9091 148.01 63.9091 147.959 63.7071L147.653 62.7475C147.551 62.3434 147.5 62.1919 147.449 62.0909C147.398 62.1414 147.347 62.3434 147.245 62.7475L146.939 63.7071C146.888 63.9596 146.888 63.9596 147.041 63.9596C147.092 63.9091 147.806 63.9091 147.806 63.9091ZM152.704 64.8687C152.704 65.2727 152.704 65.5757 152.806 65.6768C152.908 65.7778 153.01 65.8283 153.571 65.8283C154.337 65.8283 154.439 65.7778 154.745 64.9697C154.796 64.9192 154.949 64.9697 154.949 65.0202C154.898 65.3737 154.745 65.9798 154.643 66.1818C154.337 66.1818 153.776 66.1818 153.01 66.1818H152.296C151.939 66.1818 151.582 66.1818 151.327 66.1818C151.276 66.1313 151.276 65.9798 151.327 65.9293L151.531 65.8788C151.837 65.8283 151.939 65.8283 151.939 64.9697V61.9899C151.939 61.1818 151.888 61.1313 151.531 61.0808L151.327 61.0303C151.276 60.9798 151.276 60.8283 151.327 60.7778C151.684 60.7778 151.99 60.7778 152.296 60.7778C152.602 60.7778 152.908 60.7778 153.214 60.7778C153.265 60.8283 153.265 60.9798 153.214 61.0303L153.061 61.0808C152.755 61.1313 152.653 61.1818 152.653 61.9899L152.704 64.8687ZM111.888 41.2323C111.071 41.1818 110.204 41.1818 109.388 41.2323L110.459 51.2323H110.918C110.918 51.2828 111.888 41.2323 111.888 41.2323ZM111.99 40.4242C111.122 40.3737 110.204 40.3737 109.286 40.4242L105.765 8L115.051 9.21212L111.99 40.4242ZM115.255 41.8384C114.439 41.5859 113.622 41.4343 112.806 41.3333L111.735 51.3333L112.143 51.4343L115.255 41.8384ZM115.51 41.0808C114.643 40.8283 113.776 40.6263 112.908 40.5252L116.327 8.10101L125.153 11.2323L115.51 41.0808ZM108.469 41.3333C107.653 41.4343 106.837 41.6364 106.02 41.8384L109.184 51.4343L109.592 51.3333C109.643 51.3333 108.469 41.3333 108.469 41.3333ZM108.367 40.5252C107.5 40.6263 106.582 40.8283 105.765 41.0808L95.4592 10.1212L104.796 9.36364L108.367 40.5252ZM105.153 42.1414C104.745 42.2929 104.388 42.4444 104.031 42.596C103.622 42.7475 103.265 42.9495 102.857 43.1515L108.01 51.8384L108.418 51.6364C108.418 51.6869 105.153 42.1414 105.153 42.1414ZM104.898 41.3838C104.031 41.6869 103.214 42.0404 102.449 42.4949L85.8673 14.3131L94.8469 11.6869L104.898 41.3838ZM102.092 43.6061C101.735 43.8081 101.429 44.0606 101.071 44.2626C100.714 44.5151 100.408 44.7677 100.051 45.0707L106.888 52.4949L107.245 52.2424C107.296 52.2929 102.092 43.6061 102.092 43.6061ZM101.684 42.899C101.327 43.101 100.969 43.3535 100.612 43.6061C100.255 43.8586 99.898 44.1616 99.5408 44.4646L77.2959 20.3737L85.5102 15.9293L101.684 42.899ZM99.4388 45.6768C98.8265 46.2323 98.2653 46.8889 97.7551 47.5454L106.02 53.404L106.327 53.101L99.4388 45.6768ZM98.8265 45.0707C98.1633 45.6768 97.602 46.3333 97.0408 47.0404L70.2551 28.101L77.3469 22.0404L98.8265 45.0707ZM97.2449 48.303C96.7857 49.0101 96.3776 49.7172 96.0204 50.4747L105.306 54.4646L105.51 54.1111L97.2449 48.303ZM96.5306 47.798C96.0204 48.5555 95.5612 49.3131 95.2041 50.1212L65 37.0909L70.6633 29.7172L96.5306 47.798ZM118.418 43.1515C117.704 42.7475 116.939 42.3939 116.122 42.1414L112.959 51.7374L113.367 51.9394C113.367 51.8889 118.367 43.1515 118.418 43.1515ZM118.827 42.4444C118.061 42.0404 117.245 41.6364 116.378 41.3838L126.582 10.3737L134.541 15.2727C134.49 15.2222 118.827 42.4444 118.827 42.4444ZM121.224 45.0707C120.918 44.8182 120.612 44.5657 120.255 44.3131C119.898 44.0606 119.541 43.8081 119.184 43.6061L114.082 52.3434L114.439 52.596C114.439 52.5454 121.224 45.0707 121.224 45.0707ZM121.786 44.4141C121.48 44.1111 121.122 43.8586 120.765 43.6061C120.408 43.3535 120 43.101 119.643 42.8485L136.173 14.6162L142.959 21.0303C142.857 21.0808 121.786 44.4141 121.786 44.4141ZM123.52 47.4949C123.01 46.8384 122.449 46.2323 121.837 45.6263L115.051 53.101L115.357 53.404L123.52 47.4949ZM124.235 47.0404C123.673 46.3333 123.112 45.6768 122.449 45.0707L144.541 20.8788L149.796 28.5556L124.235 47.0404ZM125.306 50.3737C125.153 50.0202 124.949 49.6667 124.745 49.3131C124.541 48.9596 124.286 48.6061 124.082 48.2525L115.816 54.1111L116.02 54.4646L125.306 50.3737ZM126.071 50.0707C125.714 49.2626 125.255 48.505 124.745 47.7475L151.48 28.6566L155 37.2424L126.071 50.0707Z" fill="#040404"/>
</g>
<defs>
<clipPath id="clip0_391_1652">
<rect width="90" height="70" fill="white" transform="translate(65 8)"/>
</clipPath>
</defs>
</svg>
