<svg width="224" height="86" viewBox="0 0 224 86" fill="none" xmlns="http://www.w3.org/2000/svg">
<rect width="224" height="86" rx="43" fill="white"/>
<path d="M60.6705 60.4701C59.3675 60.4701 57.7267 61.1169 56.7616 61.7637H56.4238C57.3407 58.345 57.775 55.0187 57.775 50.6298V46.6105C57.775 43.0995 57.5337 40.6971 57.2441 38.0638V37.7866L66.2684 36.955V37.2322C65.8823 40.4199 65.5928 43.6538 65.5928 47.3959C65.5928 54.6953 66.7027 57.3748 70.3704 57.3748C74.8584 57.3748 77.9469 52.986 77.9469 46.0562C77.9469 37.0936 73.8932 33.9521 66.9923 33.9521C63.4694 33.9521 59.5123 35.0147 56.0859 35.0147C49.3298 35.0147 46 31.2726 46 24.5276H46.4826C48.2199 27.9463 51.5497 29.0551 54.8312 29.0551C59.5123 29.0551 64.0003 27.1609 69.1639 27.1609C78.1882 27.1609 86.199 32.9819 86.199 44.9936C86.199 55.6655 80.3598 62.2257 71.432 62.2257C67.1371 62.2257 63.1799 60.4701 60.6705 60.4701Z" fill="#1D1D1B"/>
<path d="M88.2258 50.9993C88.2258 43.5613 94.2581 39.2649 94.2581 31.9655C94.2581 29.4246 93.872 27.0684 93.2929 25.4053H93.7755C96.9606 27.9924 99.3735 33.0281 99.3735 38.1099C99.3735 46.0099 96.2367 48.5508 96.2367 52.3853C96.2367 55.3882 98.167 57.0976 101.111 57.0976C104.585 57.0976 106.853 54.6952 106.853 50.0292C106.853 46.8415 106.612 40.466 106.274 35.0146V34.7836H114.189V35.0146C114.092 37.6479 113.947 41.621 113.947 44.3005V50.8607C113.947 54.649 114.189 59.2227 114.478 61.7636H114.14C112.596 60.9782 111.052 60.4701 109.508 60.4701C106.66 60.4701 104.682 62.2256 100.194 62.2256C93.0034 62.2256 88.2258 57.7443 88.2258 50.9993Z" fill="#1D1D1B"/>
<path d="M123.599 55.1571C126.494 55.1571 128.956 56.6354 131.176 56.6354C133.395 56.6354 134.65 55.4343 134.65 53.6787C134.65 47.8115 117.615 53.5863 117.615 42.1753C117.615 36.7238 121.717 33.9981 127.17 33.9981C131.127 33.9981 134.264 35.4765 137.111 35.4765C138.8 35.4765 140.055 34.9683 140.634 33.9519H140.972C141.599 37.7864 139.862 40.7431 135.47 40.7431C132.913 40.7431 130.21 39.5419 128.328 39.5419C126.35 39.5419 125.24 40.5583 125.24 42.1291C125.24 47.9039 142.371 42.2215 142.371 53.5863C142.371 59.2688 138.028 62.1331 132.527 62.1331C128.377 62.1331 124.854 60.4699 121.572 60.4699C119.931 60.4699 118.291 60.8857 117.084 61.7635H116.746C116.939 57.236 119.642 55.1571 123.599 55.1571Z" fill="#1D1D1B"/>
<path d="M144.634 26.3292C144.634 23.8806 146.709 22.2637 149.749 22.2637C152.789 22.2637 154.816 23.8806 154.816 26.3292C154.816 28.7777 152.789 30.3484 149.749 30.3484C146.709 30.3484 144.634 28.7315 144.634 26.3292ZM145.315 34.7835H154.146V34.9683C153.712 39.2186 153.326 43.6075 153.326 48.0425C153.326 52.4776 153.712 56.8665 154.146 61.1167V61.3015H145.315V61.1167C145.75 56.8665 146.087 52.4776 146.087 48.0425C146.087 43.6075 145.75 39.2186 145.315 34.9683V34.7835Z" fill="#1D1D1B"/>
<path d="M167.604 33.3515C167.604 34.414 168.039 34.7836 169.486 34.7836H176.918V36.3082L175.905 36.4006C169.631 36.955 167.749 38.3871 167.749 42.6374V52.5701C167.749 55.3882 169.39 57.2362 171.706 57.2362C173.54 57.2362 175.615 56.1736 177.401 54.6952H177.594C175.084 60.0543 171.996 62.2256 168.039 62.2256C162.972 62.2256 160.173 59.2689 160.221 54.0023L160.317 41.6672C160.366 38.0175 159.545 36.7702 156.746 35.569V35.2456C162.151 34.7836 164.371 31.6421 167.025 24.9895H167.701L167.604 33.3515Z" fill="#1D1D1B"/>
<path d="M60.6705 60.4704C59.3675 60.4704 57.7267 61.1172 56.7616 61.764H56.4238C57.3407 58.3453 57.775 55.019 57.775 50.6301V46.6108C57.775 43.0997 57.5337 40.6974 57.2441 38.064V37.7868L66.2684 36.9553V37.2325C65.8823 40.4202 65.5928 43.6541 65.5928 47.3962C65.5928 54.6956 66.7027 57.3751 70.3704 57.3751C74.8584 57.3751 77.9469 52.9862 77.9469 46.0564C77.9469 37.0939 73.8932 33.9524 66.9923 33.9524C63.4694 33.9524 59.5123 35.0149 56.0859 35.0149C49.3298 35.0149 46 31.2728 46 24.5278H46.4826C48.2199 27.9465 51.5497 29.0553 54.8312 29.0553C59.5123 29.0553 64.0003 27.1612 69.1639 27.1612C78.1882 27.1612 86.199 32.9822 86.199 44.9938C86.199 55.6657 80.3598 62.2259 71.432 62.2259C67.1371 62.2259 63.1799 60.4704 60.6705 60.4704Z" fill="#1D1D1B"/>
<path d="M88.2258 50.9996C88.2258 43.5616 94.2581 39.2651 94.2581 31.9657C94.2581 29.4248 93.872 27.0687 93.2929 25.4055H93.7755C96.9606 27.9926 99.3735 33.0283 99.3735 38.1101C99.3735 46.0101 96.2367 48.551 96.2367 52.3855C96.2367 55.3884 98.167 57.0978 101.111 57.0978C104.585 57.0978 106.853 54.6955 106.853 50.0294C106.853 46.8417 106.612 40.4663 106.274 35.0148V34.7838H114.189V35.0148C114.092 37.6482 113.947 41.6212 113.947 44.3008V50.861C113.947 54.6493 114.189 59.2229 114.478 61.7639H114.14C112.596 60.9785 111.052 60.4703 109.508 60.4703C106.66 60.4703 104.682 62.2258 100.194 62.2258C93.0034 62.2258 88.2258 57.7446 88.2258 50.9996Z" fill="#1D1D1B"/>
<path d="M123.599 55.1573C126.494 55.1573 128.956 56.6357 131.176 56.6357C133.395 56.6357 134.65 55.4345 134.65 53.679C134.65 47.8117 117.615 53.5866 117.615 42.1755C117.615 36.7241 121.717 33.9983 127.17 33.9983C131.127 33.9983 134.264 35.4767 137.111 35.4767C138.8 35.4767 140.055 34.9685 140.634 33.9521H140.972C141.599 37.7866 139.862 40.7433 135.47 40.7433C132.913 40.7433 130.21 39.5422 128.328 39.5422C126.35 39.5422 125.24 40.5586 125.24 42.1293C125.24 47.9041 142.371 42.2217 142.371 53.5866C142.371 59.269 138.028 62.1333 132.527 62.1333C128.377 62.1333 124.854 60.4702 121.572 60.4702C119.931 60.4702 118.291 60.886 117.084 61.7637H116.746C116.939 57.2363 119.642 55.1573 123.599 55.1573Z" fill="#1D1D1B"/>
<path d="M144.634 26.3294C144.634 23.8809 146.709 22.2639 149.749 22.2639C152.789 22.2639 154.816 23.8809 154.816 26.3294C154.816 28.7779 152.789 30.3487 149.749 30.3487C146.709 30.3487 144.634 28.7317 144.634 26.3294ZM145.315 34.7838H154.146V34.9685C153.712 39.2188 153.326 43.6077 153.326 48.0428C153.326 52.4778 153.712 56.8667 154.146 61.117V61.3018H145.315V61.117C145.75 56.8667 146.087 52.4778 146.087 48.0428C146.087 43.6077 145.75 39.2188 145.315 34.9685V34.7838Z" fill="#1D1D1B"/>
<path d="M167.604 33.3517C167.604 34.4143 168.039 34.7839 169.486 34.7839H176.918V36.3084L175.905 36.4008C169.631 36.9552 167.749 38.3874 167.749 42.6376V52.5703C167.749 55.3885 169.39 57.2364 171.706 57.2364C173.54 57.2364 175.615 56.1738 177.401 54.6955H177.594C175.084 60.0545 171.996 62.2259 168.039 62.2259C162.972 62.2259 160.173 59.2691 160.221 54.0025L160.317 41.6675C160.366 38.0178 159.545 36.7704 156.746 35.5692V35.2458C162.151 34.7839 164.371 31.6424 167.025 24.9897H167.701L167.604 33.3517Z" fill="#1D1D1B"/>
</svg>
