<svg width="232" height="86" viewBox="0 0 232 86" fill="none" xmlns="http://www.w3.org/2000/svg">
<rect width="232" height="86" rx="43" fill="white"/>
<g clip-path="url(#clip0_391_1715)">
<path d="M137.446 26.7622C136.399 26.7622 134.928 28.3874 134.928 29.1622C134.928 29.5496 135.218 29.7197 135.575 29.7197C136.645 29.7197 138.102 28.3118 138.102 27.3858C138.102 27.0882 137.875 26.7622 137.446 26.7622Z" fill="black"/>
<path d="M181.842 26.7622C180.796 26.7622 179.325 28.3874 179.325 29.1622C179.325 29.5496 179.614 29.7197 179.971 29.7197C181.042 29.7197 182.498 28.3118 182.498 27.3858C182.498 27.0882 182.267 26.7622 181.842 26.7622Z" fill="black"/>
<path d="M109.544 16C100.096 16 85.3034 28.548 77.2826 33.9622C79.5253 29.5307 81.6571 25.2598 83.9385 22.0142C84.9513 20.5732 84.6668 20.1575 84.2327 20.1575C83.7986 20.1575 82.1877 20.7717 75.9852 21.5417C69.884 22.2976 66.5946 25.5339 66.5946 29.2992C66.5946 31.0803 67.3904 32.5543 68.2827 33.2441C68.601 33.485 68.9049 33.3433 68.5624 32.8614C68.1139 32.2283 67.4821 31.052 67.4821 29.8992C67.4821 27.4331 69.1605 25.1559 72.0978 24.0882C74.6058 23.1717 76.8533 23.1575 80.5671 22.6283C75.3244 31.2315 66.667 55.7465 55.352 55.7465C51.6044 55.7465 49.2315 53.6063 48.0787 51.5795C47.7267 50.9559 47.5627 50.7102 46.9887 50.7102C46.4003 50.7102 46 51.1071 46 51.6409C46 54.263 51.2668 56.5118 55.0964 56.5118C65.3551 56.5118 71.4418 45.452 76.8003 34.9118C79.8967 43.1654 82.887 55.0189 92.9239 55.0189C96.9994 55.0189 101.167 52.0709 103.043 49.7181C103.515 49.1181 103.342 48.7591 102.826 49.2929C101.229 50.9323 97.5493 53.7858 93.5075 53.7858C87.5944 53.7858 83.5816 48.2961 79.5109 34.4488C86.1137 29.3323 102.011 17.0866 109.689 17.0866C111.44 17.0866 112.679 17.5732 112.679 18.3717C112.679 19.2835 111.604 20.1244 111.604 20.3559C111.604 20.5827 111.835 20.7575 112.12 20.7575C113.104 20.7575 114.03 19.6236 114.03 18.5087C114.03 17.0772 111.97 16 109.544 16Z" fill="black"/>
<path d="M185.817 35.2378C185.696 35.2378 185.547 35.3701 185.378 35.6441C184.201 37.5102 179.479 42.6551 176.769 42.6551C176.055 42.6551 175.674 41.9937 175.674 41.2661C175.674 38.7149 178.534 35.4787 178.534 34.6094C178.534 34.3685 178.244 34.2031 177.926 34.2031C176.831 34.2031 176.503 34.3827 175.746 35.4315C174.261 37.5102 171.825 42.5748 169.298 42.5748C167.431 42.5748 166.283 39.1071 165.994 36.0835C166.852 35.3228 171 32.5401 172.182 32.0866C172.785 31.8598 172.481 30.9197 171.806 30.9197C171.338 30.9197 165.618 34.9921 164.074 36.0693C166.732 30.6551 170.397 23.3937 172.404 20.1858C172.992 19.2504 174.642 17.6819 174.642 16.8079C174.642 16.515 174.516 16.3638 174.251 16.3638C172.394 16.3638 169.114 22.4346 160.708 28.2126C159.695 28.9118 156.815 30.6362 156.627 32.8425C154.336 32.8898 152.846 34.0283 152.407 35.3984C150.627 39.2677 147.116 42.4425 145.409 42.4425C145.023 42.4425 144.926 42.1165 144.926 41.8094C144.926 40.274 147.55 36.726 147.55 35.4173C147.55 34.6425 146.967 34.2031 146.132 34.2031C144.319 34.2031 142.828 35.3087 140.923 37.1181C141.102 36.6031 141.719 35.1433 141.854 34.8268C142.057 34.326 141.632 34.2031 141.319 34.2031C140.489 34.2031 139.684 34.6803 139.486 35.2425C137.518 38.3181 133.419 42.4803 131.914 42.4803C131.61 42.4803 131.456 42.2346 131.456 41.7622C131.456 40.3071 134.571 35.3701 134.832 34.8173C135.063 34.3118 134.571 34.2031 134.301 34.2031C133.722 34.2031 132.97 34.4535 132.541 35.0583C132.488 35.1338 132.42 35.2331 132.338 35.3512C130.481 37.7984 126.512 40.926 123.213 42.2677C125.47 40.6047 127.433 38.1338 127.433 36.0787C127.433 34.8835 126.497 34.2031 125.248 34.2031C123.859 34.2031 122.35 34.8929 121.004 35.9228C121.872 34.2929 122.851 32.6961 122.991 32.3937C123.227 31.8882 122.735 31.7795 122.465 31.7795C121.862 31.7795 120.85 32.1386 120.464 32.8331C119.393 34.7512 117.994 37.6709 117.117 39.5653C115.708 41.4787 113.581 42.4378 112.809 42.4378C112.51 42.4378 112.342 42.2205 112.342 41.8094C112.342 40.2976 114.975 36.7118 114.975 35.4126C114.975 34.652 114.367 34.2031 113.605 34.2031C111.874 34.2031 110.567 35.148 108.671 36.9338C109.12 35.2425 108.536 34.2031 107.22 34.2031C105.43 34.2031 103.636 35.7386 102.16 37.5197C102.459 36.7024 102.705 36.1968 102.705 35.3937C102.705 34.5811 102.208 34.2031 101.499 34.2031C97.5154 34.2031 94.7181 42.9197 90.0831 42.9197C88.7953 42.9197 88.1924 42.0457 88.1924 40.9638C88.1924 40.6992 88.2213 40.4394 88.2648 40.1748C91.3081 39.8488 96.0589 37.1039 96.0589 34.5102C96.0589 33.6268 95.2534 33.1638 94.2213 33.1638C90.4593 33.1638 85.8484 37.8598 85.8484 41.1102C85.8484 43.1228 87.2953 44.3417 89.0943 44.3417C92.5235 44.3417 95.3499 41.2283 97.3659 38.5732C98.6199 36.9291 99.681 35.9984 100.038 35.9984C100.13 35.9984 100.192 36.0409 100.192 36.2063C100.192 37.2268 97.3322 42.8961 97.3322 43.5575C97.3322 43.9071 97.6843 43.9071 98.0074 43.9071C99.3338 43.9071 99.763 43.222 100.554 41.611C101.321 40.0661 104.432 35.6016 106.12 35.6016C106.453 35.6016 106.564 35.8189 106.564 36.1307C106.564 37.7842 103.501 42.7779 103.501 43.5575C103.501 43.9071 103.853 43.9071 104.176 43.9071C105.773 43.9071 106.192 42.674 107.398 40.2551C108.599 37.8409 111.261 35.6016 112.318 35.6016C112.559 35.6016 112.641 35.6913 112.641 35.9181C112.641 36.8205 109.882 40.8976 109.882 42.485C109.882 43.411 110.538 43.9118 111.551 43.9118C112.636 43.9118 114.464 43.2835 116.123 41.7811C112.781 49.326 111.015 54.4047 103.949 57.9575C103.747 58.0614 103.747 58.222 104.007 58.222C104.34 58.222 105.011 58 105.671 57.6834C112.26 54.5181 114.826 49.9638 117.975 43.4016C120.179 38.8189 122.229 35.2992 124.337 35.2992C124.93 35.2992 125.132 35.8047 125.132 36.2913C125.132 37.5575 123.141 40.411 121.192 41.8331C120.044 42.6693 119.422 42.9244 119.422 43.3779C119.422 43.7086 119.798 43.9118 120.17 43.9118C123.073 43.9118 127.153 41.6488 130.327 38.7527C129.642 40.0803 129.068 41.4551 129.068 42.3433C129.068 43.4346 129.883 43.9118 130.776 43.9118C132.975 43.9118 135.883 41.1764 138.328 38.3039C137.238 40.7228 135.917 43.0047 135.917 43.5575C135.917 43.9071 136.269 43.9071 136.592 43.9071C138.193 43.9071 138.608 42.674 139.814 40.2551C141.005 37.8646 143.783 35.6016 144.844 35.6016C145.086 35.6016 145.226 35.6913 145.226 35.9181C145.226 36.8205 142.467 40.8976 142.467 42.485C142.467 43.411 143.123 43.9118 144.135 43.9118C147.015 43.9118 150.483 40.7039 152.513 37.2835C153.14 38.6819 154.746 40.0803 154.746 41.3937C154.746 42.3433 153.936 42.8913 153.164 42.8913C151.544 42.8913 151.38 41.5732 150.642 41.5732C150.01 41.5732 149.624 41.9323 149.6 42.2913C149.533 43.1323 151.312 43.9071 152.523 43.9071C154.553 43.9071 156.704 42.4425 156.704 40.3449C156.704 38.2567 154.24 36.8157 154.24 35.2331C154.24 34.4819 154.804 33.9244 155.87 33.9244C156.241 33.9244 156.68 34.052 157.182 34.3354C157.64 34.7748 158.33 35.0394 159.111 35.0394C160.028 35.0394 161.185 34.4394 161.576 34.0283C161.928 33.6598 161.73 33.3669 161.393 33.5512C161.156 33.6787 160.63 33.8394 159.955 33.8394C159.116 33.8394 158.383 33.3669 158.383 32.3464C158.383 29.9606 163.491 27.9811 168.116 23.3842C165.203 28.7748 160.38 38.7291 159.015 41.5496C158.542 42.5181 158.18 43.2551 158.18 43.5291C158.18 43.8882 158.441 43.9118 158.841 43.9118C159.724 43.9118 160.433 43.6331 161.084 42.2488C161.503 41.3606 162.511 39.2535 163.785 36.6504C164.267 41.0205 165.854 43.9118 168.54 43.9118C170.373 43.9118 171.912 42.7496 173.388 40.6898C173.344 42.7449 174.386 43.9118 176.31 43.9118C180.27 43.9118 186 37.5291 186 35.4126C186 35.2803 185.889 35.2378 185.817 35.2378ZM93.276 34.411C93.6232 34.411 93.8306 34.5905 93.8306 35.0346C93.8306 36.211 90.8451 38.9039 88.4529 39.4236C89.321 36.7732 92.1233 34.411 93.276 34.411Z" fill="black"/>
<path d="M77.1476 69.3528C76.9643 69.3528 76.7762 69.3481 76.6845 69.2347C76.6362 69.1827 76.617 68.9938 76.617 68.6631V68.6347C76.617 68.1953 76.6219 67.7465 76.6269 67.3024C76.6318 66.8536 76.6367 66.4095 76.6367 65.9701V65.8709C76.6367 65.7009 76.6269 65.2379 76.6898 65.1481C76.7766 65.0158 77.0322 65.0111 77.2203 65.0064C77.2541 65.0064 77.2879 65.0064 77.3168 65.0064L77.3843 65.0016V64.6426H74.9052V64.9308L74.9151 65.0064H74.9874C75.6916 65.03 75.735 65.03 75.735 65.7103C75.735 66.0977 75.7301 66.4804 75.7206 66.8725H73.0148V66.8631C73.0247 66.4001 73.0293 65.9324 73.0389 65.4694V65.4457C73.0389 65.2615 73.0438 65.1717 73.174 65.0961C73.2896 65.0205 73.4923 65.0158 73.6563 65.0064L73.8154 65.0016V64.6426H71.3556V65.0016L71.5437 65.0158C71.973 65.0442 72.1177 65.0489 72.1177 65.5355C72.1177 66.0268 72.1128 66.5229 72.1078 67.019C72.098 67.515 72.0934 68.0064 72.0934 68.4977V68.5686C72.0934 68.7434 72.0983 69.0741 72.0162 69.1969C71.9198 69.3339 71.6834 69.3481 71.4953 69.3575L71.3458 69.3623L71.3602 69.7355H73.8538V69.3623L73.7139 69.3575C73.1834 69.3481 73.0097 69.3434 73.0097 68.7812C73.0097 68.5213 73.0097 68.2615 73.0097 68.0016C73.0146 67.7701 73.0146 67.5339 73.0146 67.2977H75.7204C75.7204 67.4631 75.7204 67.6237 75.7253 67.789C75.7253 67.9733 75.7302 68.1623 75.7302 68.3465C75.7302 69.0552 75.6579 69.1875 75.6386 69.2111C75.5181 69.3481 75.2817 69.3528 75.0791 69.3575C75.026 69.3575 74.9779 69.3575 74.9296 69.3623H74.8573V69.7355H77.3942V69.367L77.3267 69.3623C77.2736 69.3528 77.2103 69.3528 77.1476 69.3528Z" fill="black"/>
<path d="M81.0108 64.5669C79.424 64.5669 78.1844 65.7197 78.1844 67.1937C78.1844 68.1622 78.4787 68.748 79.2359 69.2866C79.723 69.6362 80.268 69.811 80.9143 69.811C81.7198 69.811 82.3709 69.537 82.9738 68.9417C83.432 68.4976 83.7117 67.8362 83.7117 67.2173C83.7117 66.7401 83.6153 66.0645 83.1571 65.5307C82.5976 64.8929 81.8741 64.5669 81.0108 64.5669ZM82.1876 68.8661C81.8886 69.2015 81.4497 69.4189 81.0687 69.4189C79.8822 69.4189 79.2407 68.2283 79.2407 67.1039C79.2407 66.2724 79.6844 64.9449 80.8757 64.9449C81.4159 64.9449 81.8404 65.2047 82.2214 65.7527C82.4625 66.1071 82.6314 66.811 82.6314 67.2173C82.6314 67.7039 82.5831 68.4078 82.1876 68.8661Z" fill="black"/>
<path d="M89.0317 64.4441L88.8195 64.4158L88.7954 64.4536C88.6749 64.6237 88.5784 64.6709 88.3806 64.6709H85.3324C85.0961 64.6709 84.9369 64.6567 84.826 64.4678L84.8116 64.4394L84.5897 64.4016L84.1942 65.9418L84.3052 65.9748C84.3679 65.9937 84.4257 66.0126 84.4933 66.0221L84.556 66.0268L84.5801 65.9748C84.7489 65.5827 84.9611 65.0961 85.429 65.0677C85.5544 65.0583 85.6943 65.0583 85.8197 65.0583H86.2151V66.5371C86.2151 66.8678 86.2151 67.2032 86.2102 67.5386C86.2053 67.8693 86.2004 68.2048 86.2004 68.5355C86.2004 68.6914 86.2004 69.0504 86.1136 69.1827C86.022 69.3197 85.8097 69.3339 85.6216 69.3481C85.5637 69.3481 85.5059 69.3528 85.4576 69.3623L85.3949 69.3717L85.385 69.7355H88.0281V69.367L87.8786 69.3528C87.3384 69.3008 87.1358 69.2819 87.1358 68.6961C87.1358 67.4772 87.1551 66.2441 87.1696 65.0489C87.2709 65.0441 87.3625 65.0441 87.4735 65.0441C87.7532 65.0441 88.2307 65.0441 88.4719 65.2756C88.5538 65.3559 88.6407 65.6299 88.6985 65.9701L88.7084 66.0315H88.7711C88.8531 66.0315 88.9399 66.0221 89.0219 66.0079L89.0847 65.9985V65.937C89.0847 65.4646 89.0847 64.9827 89.0412 64.5008L89.0317 64.4441Z" fill="black"/>
<path d="M94.1586 68.1952C94.0139 68.6157 93.7197 69.1495 93.3724 69.2818C93.1939 69.348 92.9576 69.3857 92.7213 69.3857C92.4078 69.3857 91.9014 69.3574 91.7856 69.3149C91.7757 69.2393 91.7712 68.9983 91.7712 68.5826V67.5054C91.7712 67.3921 91.7761 67.3212 91.7761 67.2834C91.7905 67.2834 91.805 67.2834 91.8292 67.2834H92.0366C92.49 67.2834 92.7601 67.3259 92.8469 67.4062C92.9626 67.5149 92.9819 67.6944 93.0012 67.8692L93.0156 68.0015H93.3581L93.363 66.1921H93.035L93.0109 66.3196C92.9578 66.6267 92.9193 66.8298 92.5962 66.9054C92.437 66.9385 92.2634 66.9432 92.109 66.9432H91.8437C91.8245 66.9432 91.8004 66.9432 91.781 66.9385C91.781 66.9196 91.781 66.9054 91.781 66.8865C91.781 66.6172 91.781 66.3479 91.7859 66.0787C91.7908 65.8094 91.7958 65.5401 91.7958 65.2708C91.7958 65.2424 91.7958 65.2141 91.7958 65.1857C91.7909 65.1102 91.7859 65.0393 91.8007 64.9684C91.8344 64.959 91.9068 64.9448 92.0901 64.9448C93.0354 64.9448 93.4743 64.9826 93.9711 65.8661L94 65.918L94.3183 65.8094L94.3039 65.7432C94.2219 65.4314 94.0917 65.1338 93.9711 64.8503C93.9325 64.77 93.9035 64.6897 93.8698 64.6141L93.8506 64.5716L93.8073 64.5668C93.6433 64.5479 93.4648 64.5432 93.2574 64.5432C92.9488 64.5432 92.6353 64.5621 92.3362 64.581C92.0372 64.5999 91.7237 64.6188 91.4198 64.6188C91.2269 64.6188 91.0292 64.6141 90.8314 64.6094C90.6337 64.6046 90.4408 64.6046 90.243 64.6046H90.1707L90.1562 64.959L90.2527 64.9637C90.7736 64.9826 90.8845 64.9873 90.8845 65.5117C90.8845 66.0031 90.8845 66.4944 90.8894 66.9857C90.8894 67.4818 90.8894 67.9731 90.8894 68.4598C90.8894 68.6393 90.8894 69.107 90.7737 69.2535C90.711 69.3338 90.4747 69.3763 90.0695 69.3763H89.8187V69.7354H89.8959C90.2528 69.7259 90.6049 69.7212 90.957 69.7212H91.4586C91.9216 69.7212 92.3798 69.7259 92.8428 69.7259C93.3058 69.7306 93.7688 69.7353 94.227 69.7353H94.2897L94.3042 69.6739C94.3765 69.3007 94.4102 68.9133 94.4489 68.5354C94.4538 68.4409 94.4633 68.3416 94.4729 68.2424L94.4828 68.1668L94.179 68.1432L94.1586 68.1952Z" fill="black"/>
<path d="M99.9319 68.3135C99.7679 68.5639 99.5412 68.9087 99.3386 69.0741C99.0878 69.2772 98.6103 69.3859 98.2679 69.3859H98.0991C97.6698 69.3859 97.5541 69.3434 97.5251 69.3197C97.5153 69.3056 97.4721 69.2253 97.4721 68.8048V68.7812C97.4721 68.2331 97.477 67.6804 97.482 67.1323C97.4869 66.5796 97.4918 66.0268 97.4918 65.4835C97.4918 65.3182 97.4918 65.1481 97.6269 65.0725C97.7233 65.0205 98.0224 65.0064 98.2442 65.0064H98.3455V64.6426H95.7844V64.9969L95.852 65.0063C95.9532 65.0158 96.04 65.0252 96.1172 65.0347C96.5224 65.0678 96.5561 65.0725 96.5561 65.6394V68.4882C96.5561 68.6961 96.5561 69.0835 96.4404 69.2394C96.3536 69.3481 95.8858 69.3623 95.7073 69.367L95.553 69.3717V69.7355H95.6301C96.1173 69.7261 96.5948 69.7261 97.0771 69.7261H97.8536C98.4854 69.7261 99.1221 69.7355 99.7539 69.7402L99.8022 69.745L99.8214 69.6977C100.014 69.315 100.183 68.8568 100.318 68.3418L100.337 68.2804L100.024 68.167L99.9319 68.3135Z" fill="black"/>
<path d="M101.167 64.9969L101.229 65.0064C101.302 65.0111 101.364 65.0205 101.427 65.0205C101.789 65.0536 101.914 65.0631 101.914 65.5071C101.914 65.5827 101.909 65.6536 101.904 65.7292C101.904 65.8095 101.904 65.8851 101.904 65.9607C101.904 66.3859 101.899 66.8205 101.894 67.2599C101.894 67.6945 101.889 68.1292 101.889 68.5591C101.889 68.63 101.889 68.6914 101.889 68.7528C101.899 69.2819 101.899 69.3481 101.238 69.367L101.166 69.3717V69.7355H103.568V69.3717L103.5 69.367C102.806 69.3245 102.806 69.2961 102.806 68.6536V68.5591C102.806 68.1764 102.806 67.7938 102.806 67.4111C102.801 67.0284 102.801 66.6505 102.801 66.2678V66.178C102.796 65.4363 102.825 65.2284 102.854 65.1859C102.931 65.0489 103.153 65.0347 103.346 65.0205C103.409 65.0158 103.467 65.0111 103.515 65.0064L103.578 64.9922V64.6426H101.166L101.167 64.9969Z" fill="black"/>
<path d="M109.019 68.1952C108.874 68.6157 108.58 69.1543 108.232 69.2818C108.054 69.348 107.822 69.381 107.581 69.381C107.273 69.381 106.761 69.3574 106.65 69.3149C106.641 69.2393 106.636 68.9984 106.636 68.5826V67.5054C106.636 67.3921 106.636 67.3212 106.641 67.2881C106.651 67.2881 106.67 67.2834 106.689 67.2834H106.901C107.35 67.2834 107.625 67.3259 107.707 67.4062C107.828 67.5149 107.842 67.6944 107.861 67.8692L107.876 68.0015H108.218L108.228 66.192H107.895L107.876 66.3196C107.823 66.6267 107.784 66.8298 107.461 66.9054C107.302 66.9385 107.124 66.9432 106.974 66.9432H106.704C106.685 66.9385 106.66 66.9432 106.641 66.9385C106.641 66.9196 106.641 66.9054 106.641 66.8865C106.641 66.6172 106.646 66.3479 106.651 66.0787C106.651 65.8094 106.656 65.5401 106.656 65.2708C106.656 65.2424 106.656 65.2188 106.656 65.1857C106.651 65.1102 106.651 65.0393 106.666 64.9684C106.695 64.959 106.772 64.9448 106.955 64.9448C107.896 64.9448 108.335 64.9826 108.831 65.8661L108.865 65.918L109.183 65.8094L109.164 65.7432C109.087 65.4314 108.957 65.1338 108.831 64.8456C108.798 64.77 108.764 64.6897 108.73 64.6141L108.711 64.5716L108.667 64.5668C108.508 64.5479 108.33 64.5432 108.122 64.5432C107.814 64.5432 107.5 64.5621 107.196 64.581C106.704 64.6094 106.198 64.6188 105.692 64.6094C105.499 64.6046 105.301 64.6046 105.103 64.6046H105.031L105.021 64.959L105.113 64.9637C105.638 64.9826 105.744 64.9873 105.744 65.5164C105.744 66.0031 105.749 66.4944 105.749 66.9905C105.754 67.4818 105.754 67.9731 105.754 68.4598C105.754 68.6393 105.754 69.107 105.638 69.2535C105.571 69.3338 105.335 69.3763 104.934 69.3763H104.683V69.7353H104.761C105.113 69.7259 105.47 69.7212 105.822 69.7212H106.323C106.782 69.7212 107.245 69.7259 107.708 69.7259C108.166 69.7306 108.629 69.7353 109.092 69.7353H109.154L109.164 69.6739C109.242 69.296 109.275 68.9086 109.309 68.5306C109.319 68.4314 109.328 68.3369 109.338 68.2424L109.343 68.1668L109.039 68.1432L109.019 68.1952Z" fill="black"/>
<path d="M114.459 68.8755C113.933 68.2755 113.557 67.7937 113.244 67.3259C113.745 67.1086 114.247 66.6031 114.247 66.0456C114.247 65.0346 113.359 64.5811 112.486 64.5811C112.366 64.5811 112.269 64.5858 112.144 64.5952C111.898 64.6188 111.565 64.6425 110.808 64.6425C110.625 64.6425 110.451 64.6425 110.268 64.6236L110.186 64.6188V64.959L110.253 64.9684C110.929 65.0251 110.948 65.0865 110.948 65.7291V68.6251C110.948 69.2724 110.871 69.3574 110.253 69.3668L110.176 69.3716V69.7354H110.253C111.025 69.7165 111.782 69.7165 112.554 69.7354H112.631V69.4425L112.617 69.3716L112.544 69.3669C112.158 69.3527 111.937 69.3054 111.884 69.2251C111.821 69.1306 111.821 68.885 111.821 68.7527V67.5243C111.835 67.5149 111.874 67.5102 111.951 67.5102H112.014C112.149 67.5102 112.284 67.5149 112.414 67.5196C112.52 67.6613 112.66 67.8692 112.814 68.1101C113.229 68.7338 113.74 69.5133 114.078 69.7212L115.52 69.8157L115.573 69.4708L115.501 69.4614C114.99 69.3716 114.797 69.2629 114.459 68.8755ZM111.879 67.1747H111.84C111.835 66.9621 111.835 66.7495 111.835 66.5417V66.3149L111.83 64.9684V64.9637C111.898 64.9543 112.009 64.9543 112.062 64.9543C112.395 64.9543 112.636 65.0015 112.824 65.1102C113.109 65.2755 113.301 65.6299 113.301 65.9984C113.301 67.0188 112.409 67.1747 111.879 67.1747Z" fill="black"/>
<path d="M118.091 66.7542C117.98 66.6975 117.869 66.6408 117.753 66.5794C117.42 66.3999 116.957 66.1542 116.957 65.7148C116.957 65.2518 117.3 64.9164 117.773 64.9164C118.433 64.9164 118.761 65.4928 118.973 65.9983L118.998 66.055L119.33 65.9652L119.224 65.1006L119.214 65.0156C119.205 64.9022 119.195 64.7888 119.161 64.6755L119.132 64.5951L119.055 64.6329C118.973 64.6707 118.872 64.6849 118.771 64.6566L118.66 64.6329C118.399 64.5668 118.134 64.5054 117.859 64.5054C117.054 64.5054 116.195 65.1054 116.195 66.003C116.195 66.5699 116.542 67.0424 117.194 67.3731C117.28 67.4156 117.372 67.4629 117.468 67.5054C117.984 67.7416 118.573 68.0156 118.573 68.6156C118.573 69.1069 118.168 69.4943 117.652 69.4943C117.517 69.4943 117.372 69.4613 117.203 69.3951C116.822 69.244 116.663 68.8613 116.509 68.4881C116.485 68.4266 116.456 68.3699 116.431 68.3132L116.407 68.2613L116.065 68.318L116.075 68.3841C116.113 68.7762 116.171 69.2392 116.268 69.6928L116.278 69.74L116.326 69.7494C116.692 69.8156 117.078 69.877 117.474 69.877C117.614 69.877 117.744 69.8676 117.889 69.8534C118.636 69.7636 119.427 69.2156 119.427 68.3794C119.427 67.425 118.776 67.0991 118.091 66.7542Z" fill="black"/>
<path d="M125.996 66.7542C125.885 66.6975 125.774 66.6408 125.658 66.5794C125.321 66.3999 124.858 66.1542 124.858 65.7148C124.858 65.2518 125.205 64.9164 125.678 64.9164C126.338 64.9164 126.666 65.4928 126.878 65.9936L126.903 66.055L127.235 65.9699L127.129 65.1007L127.124 65.0298C127.11 64.9117 127.1 64.7888 127.067 64.6755L127.042 64.5951L126.96 64.6282C126.869 64.6707 126.777 64.6802 126.671 64.6566L126.57 64.6329C126.309 64.5715 126.044 64.5054 125.76 64.5054C124.964 64.5054 124.1 65.1054 124.1 66.003C124.1 66.5699 124.443 67.0424 125.099 67.3731C125.186 67.4156 125.277 67.4581 125.379 67.5054C125.895 67.7463 126.478 68.0156 126.478 68.6109C126.478 69.1069 126.073 69.4943 125.552 69.4943C125.427 69.4943 125.277 69.4613 125.104 69.3951C124.727 69.244 124.568 68.8613 124.414 68.4881C124.39 68.4314 124.366 68.3699 124.337 68.3132L124.313 68.2566L123.97 68.318L123.98 68.3841C124.033 68.8707 124.081 69.277 124.173 69.6881L124.183 69.74L124.231 69.7495C124.598 69.8156 124.988 69.877 125.379 69.877C125.514 69.877 125.654 69.8676 125.794 69.8534C126.541 69.7636 127.332 69.2109 127.332 68.3794C127.332 67.4298 126.686 67.1038 125.996 66.7542Z" fill="black"/>
<path d="M128.88 64.9969L128.943 65.0064C129.015 65.0111 129.078 65.0205 129.141 65.0205C129.502 65.0536 129.628 65.0631 129.628 65.5071C129.628 65.5827 129.623 65.6536 129.623 65.7292C129.618 65.8095 129.618 65.8851 129.618 65.9607C129.618 66.3859 129.613 66.8205 129.613 67.2599C129.608 67.6945 129.603 68.1292 129.603 68.5591C129.603 68.63 129.603 68.6914 129.603 68.7528C129.613 69.2819 129.613 69.3481 128.952 69.367L128.88 69.3717V69.7355H131.286V69.3717L131.214 69.367C130.524 69.3245 130.524 69.2961 130.524 68.6536V68.5591C130.524 68.1764 130.524 67.7938 130.519 67.4111C130.519 67.0284 130.519 66.6504 130.519 66.2678V66.1827C130.51 65.4363 130.543 65.2284 130.568 65.1859C130.65 65.0489 130.867 65.0347 131.064 65.0205C131.122 65.0158 131.18 65.0111 131.233 65.0064L131.296 64.9922V64.6426H128.88L128.88 64.9969Z" fill="black"/>
<path d="M136.37 64.9968L136.443 65.0016C137.325 65.0394 137.325 65.285 137.325 66.1118V68.2614L137.065 67.9921C136.486 67.3874 135.907 66.7827 135.343 66.178C135.121 65.9465 134.904 65.7102 134.687 65.4787C134.547 65.3228 134.407 65.1717 134.267 65.0205C134.176 64.926 134.075 64.8126 134.002 64.685L133.978 64.6472H132.44V64.9969L132.507 65.0016C133.11 65.0394 133.322 65.1669 133.322 65.8C133.322 66.3055 133.298 66.8299 133.279 67.3307C133.264 67.6142 133.255 67.8976 133.245 68.1811C133.245 68.2189 133.245 68.2661 133.245 68.3181C133.24 68.5685 133.24 69.0362 133.139 69.1827C133.047 69.3244 132.797 69.3433 132.594 69.3575C132.56 69.3622 132.522 69.3669 132.493 69.3669L132.42 69.3764V69.7354H134.658V69.3858L134.523 69.3669C134.292 69.3385 133.94 69.3008 133.843 69.1212C133.742 68.9323 133.742 68.3701 133.742 68.1575C133.732 67.3779 133.732 66.5842 133.732 65.8141C134.171 66.2677 134.615 66.7401 135.039 67.1937C135.232 67.3968 135.42 67.6 135.613 67.8031C135.777 67.9827 135.941 68.1575 136.105 68.3323C136.274 68.5118 136.438 68.6913 136.607 68.8661C136.771 69.0409 136.988 69.2771 137.181 69.5181C137.253 69.6126 137.335 69.7212 137.383 69.8252L137.412 69.8866L137.783 69.7732L137.774 69.7118C137.735 69.4236 137.735 69.126 137.735 68.8378C137.735 67.9023 137.764 66.9716 137.788 66.1874L137.793 66.0834C137.803 65.8708 137.817 65.3653 137.889 65.2519C138.049 65.0204 138.319 64.9921 138.56 64.9921H138.637V64.6472H136.37L136.37 64.9968Z" fill="black"/>
<path d="M144.044 68.2236C143.566 68.8519 143.113 69.4519 142.259 69.4519C140.986 69.4519 140.311 68.3039 140.311 67.1747C140.311 66.0834 140.967 64.9306 142.177 64.9306C143.021 64.9306 143.557 65.3842 143.812 66.3243L143.832 66.381L144.189 66.3621L144.145 64.8267L143.947 64.7322L143.914 64.7842C143.875 64.8314 143.827 64.8503 143.75 64.8503C143.648 64.8503 143.518 64.8031 143.402 64.7653C143.364 64.7511 143.325 64.7369 143.287 64.7228C142.857 64.5905 142.486 64.5291 142.11 64.5291C141.097 64.5291 140.147 65.0157 139.631 65.7999C139.37 66.1826 139.211 66.7165 139.211 67.1794C139.211 68.7007 140.46 69.844 142.124 69.844C142.346 69.844 142.549 69.8298 142.732 69.792C142.8 69.7826 142.872 69.7684 142.935 69.7495C143.079 69.7212 143.214 69.6881 143.354 69.6881C143.46 69.6881 143.576 69.707 143.687 69.7448L143.75 69.7684L143.779 69.707C144.01 69.2346 144.203 68.7668 144.357 68.3747L144.381 68.3086L144.078 68.1763L144.044 68.2236Z" fill="black"/>
<path d="M149.455 68.1952C149.316 68.6157 149.021 69.1495 148.669 69.2818C148.496 69.348 148.264 69.381 148.018 69.381C147.7 69.381 147.174 69.3574 147.087 69.3196C147.077 69.2535 147.073 69.0125 147.073 68.5826V67.5054C147.073 67.3921 147.078 67.3212 147.078 67.2881C147.092 67.2881 147.107 67.2834 147.126 67.2834H147.338C147.792 67.2834 148.062 67.3259 148.144 67.4062C148.264 67.5149 148.284 67.6897 148.303 67.8645L148.317 68.0015H148.66L148.67 66.1921H148.337L148.313 66.3243C148.26 66.6314 148.221 66.8298 147.898 66.9054C147.739 66.9385 147.565 66.9432 147.411 66.9432H147.146C147.117 66.9432 147.102 66.9432 147.078 66.9385C147.078 66.9196 147.078 66.9054 147.078 66.8865C147.078 66.6172 147.083 66.3479 147.088 66.0787C147.093 65.8094 147.098 65.5401 147.098 65.2708C147.098 65.2424 147.098 65.2188 147.093 65.1905C147.093 65.1149 147.088 65.0393 147.103 64.9684C147.132 64.959 147.209 64.9448 147.392 64.9448C148.337 64.9448 148.776 64.9826 149.273 65.8661L149.302 65.918L149.62 65.8094L149.601 65.7432C149.529 65.4361 149.399 65.1432 149.278 64.8598C149.239 64.7747 149.206 64.6944 149.167 64.6141L149.153 64.5716L149.109 64.5668C148.945 64.5479 148.767 64.5432 148.559 64.5432C148.251 64.5432 147.937 64.5621 147.638 64.581C147.339 64.5999 147.026 64.6188 146.722 64.6188C146.524 64.6188 146.331 64.6141 146.133 64.6094C145.936 64.6046 145.738 64.6046 145.545 64.6046H145.473L145.458 64.959L145.555 64.9637C146.075 64.9826 146.186 64.9873 146.186 65.5164C146.186 66.0031 146.186 66.4944 146.191 66.9905C146.191 67.4818 146.196 67.9731 146.196 68.4598C146.196 68.6393 146.196 69.107 146.076 69.2535C146.013 69.3338 145.777 69.3763 145.371 69.3763H145.121V69.6598L145.13 69.7353H145.208C145.56 69.7259 145.912 69.7212 146.259 69.7212H146.761C147.224 69.7212 147.682 69.7259 148.145 69.7259C148.608 69.7306 149.071 69.7353 149.529 69.7353H149.592L149.602 69.6739C149.679 69.3054 149.713 68.9227 149.746 68.5495C149.756 68.4456 149.766 68.3464 149.775 68.2424L149.785 68.1668L149.477 68.1432L149.455 68.1952Z" fill="black"/>
<path d="M157.273 69.3906C157.129 69.3765 156.738 69.3481 156.627 69.2583C156.526 69.1733 156.482 69.0788 156.482 68.9229C156.482 68.6536 156.482 68.3843 156.482 68.1198C156.478 67.8505 156.478 67.5812 156.478 67.3166V66.6883C156.478 66.0977 156.478 65.4835 156.492 64.8788V64.8221L156.347 64.7891L156.323 64.7938C155.648 65.0347 155.06 65.2521 154.529 65.4599L154.481 65.4788L154.466 65.8048H154.548C154.674 65.8001 154.794 65.8001 154.915 65.8001C155.166 65.8001 155.407 65.8048 155.648 65.8048V68.7954C155.648 68.9702 155.556 69.1497 155.421 69.2536C155.267 69.367 154.896 69.3765 154.741 69.3812L154.669 69.3859V69.7355H154.741C155.585 69.7261 156.424 69.7261 157.273 69.7355H157.346V69.4615L157.341 69.3954L157.273 69.3906Z" fill="black"/>
<path d="M160.77 67.1464C161.195 66.8724 161.59 66.6126 161.59 66.0173C161.59 65.3039 160.886 64.822 160.23 64.822C159.463 64.822 158.841 65.4031 158.841 66.1165C158.841 66.6504 159.285 67.0567 159.7 67.3543C159.656 67.3827 159.613 67.4063 159.574 67.4346C159.169 67.6992 158.754 67.9779 158.754 68.559C158.754 69.348 159.507 69.8299 160.211 69.8299C160.949 69.8299 161.745 69.2913 161.745 68.4834C161.745 67.8079 161.243 67.4535 160.77 67.1464ZM159.555 65.885C159.555 65.4976 159.883 65.1858 160.283 65.1858C160.611 65.1858 160.959 65.5449 160.959 65.885C160.959 66.3858 160.833 66.5795 160.418 66.9008C159.975 66.6551 159.555 66.4189 159.555 65.885ZM160.23 69.4425C159.724 69.4425 159.396 69.0976 159.396 68.5685C159.396 68.1008 159.738 67.7795 160.037 67.5811C160.539 67.8456 160.973 68.0771 160.973 68.6677C160.973 69.0409 160.674 69.4425 160.23 69.4425Z" fill="black"/>
<path d="M164.639 64.8174C163.703 64.8174 162.97 65.578 162.97 66.5465C162.97 67.0473 163.153 67.4583 163.5 67.7371C163.804 67.978 164.214 68.115 164.692 68.1245C164.561 68.2804 164.421 68.4316 164.282 68.5733C164.002 68.8662 163.693 69.1355 163.394 69.4048C163.269 69.5134 163.143 69.6221 163.023 69.7355L162.974 69.778L163.143 70.0001L163.196 69.9764C163.983 69.6457 164.45 69.3481 165.039 68.7859C165.603 68.2426 166.216 67.3733 166.216 66.5465C166.216 65.6867 165.671 64.8174 164.639 64.8174ZM164.947 67.7749C164.937 67.7749 164.918 67.7749 164.909 67.7749C163.905 67.7749 163.828 66.6741 163.828 66.3387C163.828 65.8757 164.045 65.1859 164.638 65.1859C165.27 65.1859 165.444 65.9465 165.444 66.3953C165.444 66.83 165.29 67.4158 164.947 67.7749Z" fill="black"/>
<path d="M168.13 64.9306C167.933 64.9306 167.904 64.8361 167.899 64.7416V64.6802L167.653 64.6377L167.629 64.6991C167.465 65.1857 167.33 65.6015 167.219 65.9983L167.2 66.0739L167.499 66.1495L167.59 65.9983C167.764 65.729 167.764 65.729 168.179 65.729C168.724 65.729 169.269 65.7385 169.814 65.7385C169.674 66.0078 169.52 66.2676 169.385 66.4849L169.365 66.518C169.129 66.9101 168.888 67.3211 168.656 67.7322L168.454 68.0959C168.174 68.6109 167.88 69.1353 167.61 69.6645L167.571 69.7448L168.126 69.8912L168.188 69.9054L168.213 69.8487C168.569 69.107 168.95 68.3605 169.312 67.6377C169.467 67.3353 169.616 67.033 169.77 66.7306C169.954 66.3716 170.142 66.003 170.315 65.644C170.349 65.5778 170.383 65.5117 170.407 65.4456C170.45 65.3511 170.489 65.266 170.537 65.181L170.653 64.9731L168.13 64.9306Z" fill="black"/>
</g>
<defs>
<clipPath id="clip0_391_1715">
<rect width="140" height="54" fill="white" transform="translate(46 16)"/>
</clipPath>
</defs>
</svg>
