<svg width="220" height="86" viewBox="0 0 220 86" fill="none" xmlns="http://www.w3.org/2000/svg">
<rect width="220" height="86" rx="43" fill="white"/>
<g clip-path="url(#clip0_391_1800)">
<path fill-rule="evenodd" clip-rule="evenodd" d="M161.756 41.262C161.756 37.4758 160.395 35.2413 158.014 35.2413C158.014 35.2413 157.561 35.3034 157.334 35.3034C156.484 35.4275 156.257 35.6758 156.257 36.8551V45.9172C156.257 47.1586 156.937 47.2206 157.957 47.2827C160.395 47.4068 161.756 45.1103 161.756 41.262ZM162.946 35.7379C164.08 37.0413 164.703 38.9654 164.703 41.3241C164.703 43.931 163.91 46.1034 162.436 47.4068C161.302 48.3999 159.885 48.8965 157.731 48.8965C155.293 48.8965 153.649 48.6482 153.082 48.5861C152.515 48.462 152.232 48.3999 152.232 47.9654C152.232 47.6551 152.402 47.3448 152.686 47.3448H153.082C153.196 47.3448 153.366 47.2206 153.422 47.0344C153.479 46.8482 153.479 46.7241 153.479 46.1654V36.4827C153.479 35.9241 153.479 35.7999 153.422 35.6137C153.366 35.4275 153.196 35.3034 153.082 35.3034H152.686C152.402 35.3034 152.232 35.0551 152.232 34.6827C152.232 34.1861 152.515 34.1241 153.082 34.062C153.649 33.9999 155.236 33.7517 157.731 33.7517C160.225 33.8137 161.756 34.3723 162.946 35.7379ZM149.228 41.3241C149.228 37.662 147.867 35.3654 145.656 35.3654C143.502 35.3654 142.142 37.662 142.142 41.3861C142.142 45.0482 143.446 47.2827 145.656 47.2827C147.867 47.2827 149.228 44.9861 149.228 41.3241ZM136.303 41.3241C136.303 37.662 134.942 35.3654 132.732 35.3654C130.577 35.3654 129.217 37.662 129.217 41.3861C129.217 45.0482 130.521 47.2827 132.732 47.2827C134.942 47.2827 136.303 44.9861 136.303 41.3241ZM145.656 33.8137C149.568 33.8137 152.119 36.731 152.119 41.262C152.119 45.9172 149.568 48.8344 145.6 48.8344C142.425 48.8344 140.158 46.8482 139.421 43.6827V43.6206C139.364 43.2482 139.081 43.2482 138.967 43.6206C138.967 43.6206 138.967 43.6206 138.967 43.6827C138.23 46.9103 135.963 48.8344 132.732 48.8344C128.82 48.8344 126.326 45.8551 126.326 41.3861C126.326 36.731 128.82 33.8137 132.788 33.8137C136.019 33.8137 138.344 35.7999 139.024 39.0275C139.081 39.3999 139.364 39.3999 139.421 39.0275C140.158 35.7379 142.425 33.8137 145.656 33.8137ZM126.496 36.1103L126.213 34.6206C126.156 34.2482 125.929 34.062 125.532 34.062H117.029C116.349 34.062 116.122 34.2482 116.122 34.6827C116.122 34.993 116.349 35.3034 116.632 35.3034H117.029C117.143 35.3034 117.313 35.4275 117.369 35.6137C117.426 35.7999 117.426 35.9241 117.426 36.4827V46.1654C117.426 46.7241 117.426 46.8482 117.369 47.0344C117.313 47.2206 117.143 47.3448 117.029 47.3448H116.632C116.349 47.3448 116.122 47.593 116.122 47.9654C116.122 48.462 116.349 48.5861 117.029 48.5861H120.657C121.394 48.5861 121.621 48.462 121.621 47.9654C121.621 47.6551 121.394 47.3448 121.111 47.3448H120.657C120.487 47.3448 120.317 47.2206 120.26 47.0344C120.204 46.9103 120.204 46.7861 120.204 46.1654V42.6275C120.204 42.131 120.26 41.9448 120.374 41.8206C120.487 41.7586 120.601 41.7586 121.167 41.7586H122.811C123.662 41.7586 123.775 41.8206 123.832 42.2551V42.3792C123.888 42.7517 124.058 42.9379 124.342 42.9379C124.739 42.9379 124.909 42.6896 124.909 41.9448V40.1448C124.909 39.3999 124.795 39.1517 124.342 39.1517C124.058 39.1517 123.888 39.3379 123.832 39.7103V39.8344C123.775 40.2689 123.662 40.331 122.811 40.331H121.167C120.601 40.331 120.487 40.331 120.374 40.2689C120.26 40.2068 120.204 39.9586 120.204 39.462V36.9172C120.204 35.7379 120.317 35.6137 121.394 35.6137H123.945C124.852 35.6137 125.249 35.6758 125.476 36.2344C125.589 36.4827 125.646 36.6689 125.646 36.6689C125.759 36.9792 125.986 36.9792 126.156 36.9792C126.439 36.9792 126.609 36.6689 126.496 36.1103ZM172.923 41.7586C172.299 41.0758 171.789 40.6413 170.202 39.3999C169.805 39.0896 169.465 38.8413 169.238 38.6551C168.841 38.3448 168.558 37.9723 168.331 37.662C168.161 37.4137 168.105 37.1034 168.105 36.793C168.105 35.9241 168.671 35.3654 169.578 35.3654C170.202 35.3654 170.882 35.6137 171.449 36.0482C171.846 36.4206 171.959 36.4827 172.413 37.2275C172.583 37.4758 172.696 37.5999 172.923 37.5999C173.263 37.5999 173.49 37.3517 173.49 37.1034C173.49 37.0413 173.49 36.9172 173.433 36.793L172.98 34.4344C172.923 34.062 172.696 33.8137 172.413 33.8137C172.243 33.8137 172.186 33.8137 172.016 33.9999C171.846 34.1241 171.676 34.1861 171.562 34.1861C171.506 34.1861 171.392 34.1861 171.279 34.1241C170.996 34.062 170.826 33.9999 170.769 33.9999C170.202 33.8758 169.635 33.8137 169.068 33.8137C166.914 33.8137 165.44 35.1792 165.44 37.2896C165.44 38.1586 165.667 38.9034 166.177 39.5861C166.801 40.331 166.971 40.5172 168.841 41.9448C169.975 42.8137 170.485 43.3103 170.939 43.8068C171.336 44.3034 171.562 44.862 171.562 45.4206C171.562 46.5379 170.712 47.3448 169.408 47.3448C168.275 47.3448 167.198 46.662 166.517 45.6068L166.234 45.1723C166.12 44.9861 165.95 44.862 165.724 44.862C165.384 44.862 165.1 45.1723 165.1 45.5448C165.1 45.6689 165.1 45.8551 165.157 45.9792L165.667 48.1517C165.78 48.6482 165.95 48.8965 166.291 48.8965C166.461 48.8965 166.574 48.8344 166.744 48.7103C166.914 48.5241 166.971 48.5241 167.141 48.5241C167.254 48.5241 167.311 48.5241 167.594 48.6482C168.161 48.8344 168.955 48.9585 169.635 48.9585C172.243 48.9585 173.943 47.2827 173.943 44.7999C174 43.5585 173.603 42.5034 172.923 41.7586ZM83.6971 35.1172C85.3977 35.7999 86.0779 37.8482 86.0779 41.0137C86.0779 44.7999 84.6608 47.2206 82.3933 47.2206C80.0691 47.2206 78.7086 44.9241 78.7086 41.0758C78.7086 38.593 79.0487 36.6689 80.636 34.931C82.2232 33.193 83.6971 33.4413 85.1709 31.393C85.7945 30.5241 85.7945 29.7792 85.2843 29.6551C84.8308 29.531 84.5474 30.1517 84.1506 30.462C82.5633 31.5792 80.806 30.5241 79.8423 29.3448C78.8787 28.1034 77.6315 28.1654 76.8946 28.3517C76.5545 28.4137 76.3844 28.1654 76.7245 27.8551C77.5182 27.1723 79.1621 27.1103 80.1825 28.1654C81.0328 29.0344 82.2232 29.7172 83.0735 29.531C83.5837 29.4068 83.6404 28.7861 83.0735 28.5379C81.4296 27.9172 81.5996 25.8689 79.3888 25.1861C76.7812 24.3792 74.4004 27.0482 73.7201 29.7792C73.55 30.5241 73.9469 31.0206 74.6271 30.7103C76.7812 29.6551 77.3481 31.1448 79.2188 31.9517C80.0691 32.3241 81.0328 32.1999 81.5996 32.1379C82.0531 32.0137 82.0531 32.5723 81.8264 32.6344C80.5793 33.0689 79.3322 33.8137 78.5385 34.4344C76.7245 35.7379 75.7042 38.0965 75.7042 41.1379C75.7042 45.8551 78.3685 48.9585 82.3933 48.9585C86.5881 48.9585 89.1957 45.8551 89.1957 41.0137C89.1957 38.2206 88.4021 36.1723 86.7582 34.8689C85.8512 34.1241 85.0009 33.8137 84.0939 33.8758C83.0168 33.8758 82.9035 34.7448 83.6971 35.1172ZM63.5164 35.2413C63.8565 35.1792 64.31 35.2413 64.31 36.3586V46.1034C64.31 46.662 64.31 46.7861 64.2533 46.9723C64.1966 47.0965 64.0266 47.2206 63.9132 47.2206H63.5164C63.2329 47.2206 63.0062 47.531 63.0062 47.8413C63.0062 48.3379 63.2329 48.462 63.9132 48.462H67.4845C68.1081 48.462 68.3348 48.3379 68.3348 47.8413C68.3348 47.4689 68.1081 47.2206 67.8813 47.2206H67.4845C67.3144 47.2206 67.1444 47.0965 67.0877 46.9723C67.031 46.7861 67.031 46.662 67.031 46.1034V42.8137C67.031 41.8206 67.0877 41.7586 67.8246 41.7586H70.4889C70.8857 41.7586 71.0558 41.8206 71.1692 41.9448C71.2826 42.0689 71.2825 42.131 71.2825 42.9379V46.1034C71.2825 46.662 71.2825 46.7861 71.2259 46.9723C71.1692 47.0965 70.9991 47.2206 70.8857 47.2206H70.4889C70.2055 47.2206 69.9787 47.531 69.9787 47.8413C69.9787 48.3379 70.2055 48.462 70.8857 48.462H74.457C75.1373 48.462 75.364 48.3379 75.364 47.8413C75.364 47.531 75.1373 47.2206 74.8539 47.2206H74.457C74.3437 47.2206 74.1736 47.0965 74.1169 46.9723C74.0602 46.7861 74.0602 46.662 74.0602 46.1034V36.3586C74.0602 35.7999 74.0602 35.6758 74.1169 35.4896C74.1736 35.3654 74.3437 35.2413 74.457 35.2413H74.9105C75.194 35.2413 75.4207 34.993 75.4207 34.6206C75.4207 34.1241 75.194 33.9999 74.5137 33.9999H70.9424C70.2622 33.9999 70.0354 34.1241 70.0354 34.6206C70.0354 34.993 70.2622 35.2413 70.5456 35.2413H70.9424C71.0558 35.2413 71.2259 35.3654 71.2825 35.4896C71.3392 35.6758 71.3392 35.7999 71.3392 36.3586V39.0275C71.3392 39.8344 71.3392 39.8965 71.2259 40.0206C71.1125 40.1448 70.9424 40.2068 70.5456 40.2068H67.8813C67.1444 40.2068 67.0877 40.1448 67.0877 39.1517V36.3586C67.0877 35.7999 67.0877 35.6758 67.1444 35.4896C67.2011 35.3654 67.3711 35.2413 67.5412 35.2413H67.938C68.2214 35.2413 68.4482 34.993 68.4482 34.6206C68.4482 34.1241 68.2214 33.9999 67.5979 33.9999H60.7954C60.2852 33.9999 60.0585 34.1861 60.0585 34.6206C60.0585 34.993 60.2852 35.1792 60.682 35.2413C61.1355 35.3034 61.3623 35.4896 61.3623 35.7999C61.3623 35.9241 61.3623 36.1103 61.3056 36.2965C61.3056 36.2965 59.4349 43.2482 59.1515 44.3034C59.0948 44.4896 58.9247 44.4896 58.868 44.3034C58.5846 43.2482 56.6572 36.6068 56.6572 36.6068C56.4872 36.1103 56.4305 35.9241 56.4305 35.6758C56.4305 35.3034 56.5438 35.1792 57.1107 35.1172C57.5642 35.0551 57.7343 34.8689 57.7343 34.5585C57.7343 34.1861 57.5075 33.9999 57.054 33.9999H53.1993C52.7458 33.9999 52.519 34.2482 52.519 34.6827C52.519 34.993 52.6891 35.1792 53.0859 35.2413C53.5394 35.3654 53.7095 35.4896 53.8229 35.7999C53.8795 35.862 53.9362 36.0482 53.9929 36.2965C53.9929 36.2965 54.6732 38.4689 54.6732 38.593C54.7865 39.0275 54.7298 39.462 54.6732 39.8344C54.6165 39.9586 53.5961 43.3103 53.1993 44.4896C53.1426 44.6758 52.9725 44.6758 52.9159 44.4896C52.5757 43.3723 50.4216 36.6068 50.4216 36.6068L50.1382 36.1723C50.0815 35.9861 50.0815 35.862 50.0815 35.6758C50.0815 35.3034 50.2515 35.1792 50.705 35.1172C51.2152 35.0551 51.3853 34.931 51.3853 34.5585C51.3853 34.1861 51.2152 33.9999 50.7617 33.9999H46.6802C46.2267 33.9999 46 34.1861 46 34.5585C46 34.931 46.1134 35.0551 46.5669 35.1172C47.1904 35.2413 47.3038 35.3654 47.5872 36.2344L51.442 47.593C51.7254 48.3999 52.0089 48.6482 52.5757 48.6482C52.8592 48.6482 53.0859 48.5241 53.256 48.3999C53.426 48.2137 53.4827 48.0896 53.6528 47.531C53.6528 47.531 55.4101 42.193 55.4668 42.0068C55.5235 41.8206 55.6935 41.8206 55.7502 42.0068C55.8069 42.193 57.4508 47.531 57.4508 47.531C57.6776 48.3379 57.961 48.5861 58.5846 48.5861C59.1515 48.5861 59.4349 48.2758 59.7183 47.2206L62.8361 36.1103C62.9495 35.4896 63.1763 35.2413 63.5164 35.2413ZM94.9779 46.9723C94.1842 46.9723 93.9008 46.9103 93.674 46.7861C93.4473 46.662 93.3906 46.4137 93.3906 45.4827V36.3586C93.3906 35.7999 93.3906 35.6758 93.4473 35.4896C93.504 35.3034 93.674 35.1792 93.8441 35.1792H94.2976C94.581 35.1792 94.8078 34.931 94.8078 34.5585C94.8078 34.062 94.581 33.9379 93.8441 33.9379H90.2161C89.5359 33.9379 89.3091 34.062 89.3091 34.5585C89.3091 34.931 89.5359 35.1792 89.8193 35.1792H90.2161C90.3295 35.1792 90.4996 35.3034 90.5562 35.4896C90.6129 35.6758 90.6129 35.7379 90.6129 36.3586V46.1654C90.6129 46.7241 90.6129 46.7861 90.5562 46.9723C90.4996 47.0965 90.3862 47.2206 90.2161 47.2206H89.8193C89.5359 47.2206 89.3091 47.4689 89.3091 47.7792C89.3091 48.2758 89.5359 48.3999 90.1594 48.3999H97.5288C97.9256 48.3999 98.1523 48.2758 98.209 47.8413L98.4925 46.1654C98.6058 45.6068 98.4358 45.2965 98.039 45.2965C97.8689 45.2965 97.6422 45.4206 97.5288 45.731C97.5288 45.793 97.4721 45.8551 97.3587 46.1034C97.132 46.662 96.6218 46.9103 95.9415 46.9103C96.1116 46.9723 94.9779 46.9723 94.9779 46.9723ZM109.093 45.3586C108.923 45.3586 108.696 45.4827 108.583 45.793C108.583 45.8551 108.526 45.9172 108.413 46.1654C108.186 46.7241 107.676 46.9723 106.996 46.9723H105.012C104.388 46.9723 104.105 46.9103 103.821 46.8482C103.538 46.7241 103.424 46.4758 103.424 45.3586V42.6275C103.424 42.131 103.481 41.9448 103.594 41.8206C103.708 41.7586 103.821 41.7586 104.388 41.7586H105.295C106.145 41.7586 106.259 41.8206 106.315 42.2551V42.3792C106.372 42.7517 106.542 42.9379 106.826 42.9379C107.222 42.9379 107.392 42.6896 107.392 41.9448V40.1448C107.392 39.3999 107.279 39.1517 106.826 39.1517C106.542 39.1517 106.372 39.3379 106.315 39.7103V39.8344C106.259 40.2689 106.145 40.331 105.295 40.331H104.388C103.821 40.331 103.651 40.331 103.594 40.2689C103.481 40.2068 103.424 39.9586 103.424 39.462V36.793C103.424 35.6137 103.538 35.4896 104.615 35.4896H106.485C107.392 35.4896 107.789 35.5517 108.016 36.1103C108.129 36.3586 108.186 36.5448 108.186 36.6068C108.299 36.9172 108.526 36.9172 108.696 36.9172C109.036 36.9172 109.206 36.6068 109.15 36.0482L108.866 34.5585C108.81 34.1861 108.583 33.9999 108.186 33.9999H100.306C99.6262 33.9999 99.3995 34.1861 99.3995 34.6206C99.3995 34.931 99.6262 35.2413 99.9097 35.2413H100.306C100.42 35.2413 100.59 35.3654 100.647 35.5517C100.703 35.7379 100.703 35.862 100.703 36.4206V46.1034C100.703 46.662 100.703 46.7861 100.647 46.9723C100.59 47.0965 100.477 47.2827 100.306 47.2827H99.9097C99.6262 47.2827 99.3995 47.531 99.3995 47.8413C99.3995 48.3379 99.6262 48.462 100.306 48.462H108.016H108.526C108.923 48.462 109.15 48.3379 109.206 47.9034L109.49 46.2275C109.66 45.6689 109.433 45.3586 109.093 45.3586ZM134.376 53.6758C134.035 53.6758 134.035 54.1723 134.035 54.4206C134.035 54.6689 134.092 54.9172 134.376 54.9172H136.019C136.303 54.9172 136.416 55.0413 136.416 55.2896V60.5654C136.416 60.9379 136.643 60.9379 137.04 60.9379C137.437 60.9379 137.663 60.8758 137.663 60.5034V55.2275C137.663 54.9172 137.833 54.8551 138.06 54.8551H139.647C139.931 54.8551 139.988 54.6068 139.988 54.2344C139.988 53.7379 139.818 53.6137 139.591 53.6137H134.376V53.6758ZM125.136 53.6758C124.852 53.6758 124.739 53.862 124.739 54.1723V60.4413C124.739 60.8137 124.852 60.9999 125.136 60.9999H130.181C130.464 60.9999 130.521 60.7517 130.521 60.3792C130.521 59.8827 130.407 59.6965 130.181 59.6965H126.269C126.099 59.6965 125.929 59.5723 125.929 59.3241V58.2689C125.929 58.0206 126.099 57.8965 126.269 57.8965H128.537C128.764 57.8965 128.877 57.5861 128.877 57.2758C128.877 56.9034 128.82 56.6551 128.537 56.6551H126.269C126.099 56.6551 125.929 56.531 125.929 56.3448V55.3517C125.929 55.1654 126.043 55.0413 126.213 55.0413H130.181C130.521 55.0413 130.577 54.731 130.577 54.3586C130.577 53.9861 130.521 53.7379 130.237 53.7379H125.136V53.6758ZM115.555 53.6758C115.102 53.6758 114.932 53.7379 114.932 54.1103V60.5654C114.932 60.8758 115.102 60.9999 115.499 60.9999C115.839 60.9999 116.179 60.9999 116.179 60.5654V58.4551C116.179 58.1448 116.349 57.8965 116.576 57.8965C116.973 57.8965 117.256 57.9586 117.539 58.2068L119.637 60.6896C119.807 60.8758 119.92 60.9999 120.487 60.9999C120.997 60.9999 121.337 60.8137 120.997 60.3792C120.771 60.0689 118.446 57.3379 118.446 57.3379C118.276 57.1517 118.22 56.9034 118.446 56.7172C118.446 56.7172 120.374 54.793 120.544 54.6068C120.771 54.3586 120.714 54.1103 120.487 53.862C120.204 53.6137 119.92 53.5517 119.694 53.862C119.694 53.862 117.539 56.0344 117.313 56.2827C117.143 56.4689 117.029 56.593 116.519 56.593C116.349 56.593 116.236 56.4689 116.236 56.0965V54.1103C116.122 53.7379 115.895 53.6758 115.555 53.6758ZM105.635 54.9172H107.676C108.356 54.9172 108.923 55.2896 108.923 56.0965C108.923 56.9034 108.356 57.2758 107.676 57.2758H105.635C105.408 57.2758 105.182 57.1517 105.182 56.8413V55.2275C105.182 55.0413 105.408 54.9172 105.635 54.9172ZM110.113 56.1586C110.113 54.6068 109.093 53.6758 107.733 53.6758H104.275C104.105 53.6758 103.991 53.7999 103.991 53.9241V60.5654C103.991 60.8758 104.161 60.9999 104.388 60.9999C104.615 60.9999 105.182 61.062 105.182 60.6896V58.9517C105.182 58.7654 105.352 58.5792 105.522 58.5792H106.996C107.222 58.5792 107.392 58.7034 107.506 58.8896L108.526 60.6275C108.696 60.8758 108.923 60.9379 109.263 60.9379C109.887 60.9379 110.057 60.6896 109.887 60.3792C109.773 60.131 108.81 58.7034 108.753 58.5792C108.639 58.393 108.696 58.331 108.866 58.1448C109.263 57.8965 110.113 57.462 110.113 56.1586ZM95.318 58.0206C95.3747 57.8965 96.0549 56.4068 96.1116 56.2206C96.1683 56.0344 96.3383 56.0344 96.4517 56.2206C96.5084 56.4068 97.1887 57.9586 97.2453 58.0206C97.302 58.1448 97.1887 58.2689 97.0753 58.2689H95.488C95.318 58.331 95.2613 58.2068 95.318 58.0206ZM92.8804 60.5654C92.7104 60.9999 93.2772 60.9999 93.4473 60.9999C93.6174 60.9999 94.0709 60.9379 94.1275 60.7517L94.5244 59.9448C94.6377 59.6965 94.7511 59.5103 94.9212 59.5103H97.6422C97.7555 59.5103 97.8689 59.6344 97.9256 59.7586L98.3791 60.7517C98.4925 60.9999 98.7759 60.9999 99.0027 60.9999C99.2294 60.9999 99.7963 60.9379 99.6829 60.6275C99.6262 60.4413 96.8485 53.9241 96.8485 53.9241C96.7352 53.7379 96.6218 53.6137 96.3384 53.6137C96.0549 53.6137 95.8849 53.7379 95.8282 53.9241L92.8804 60.5654ZM85.6244 56.7792L87.5518 53.9241C87.6652 53.7379 87.8352 53.6137 88.062 53.6137C88.2887 53.6137 88.4588 53.6758 88.5722 54.1103L89.2524 60.6275C89.2524 60.9999 88.7422 60.9999 88.5155 60.9999C88.3454 60.9999 88.0053 60.8758 88.0053 60.6275L87.5518 56.7172C87.4951 56.531 87.4384 56.4689 87.3251 56.4689C87.2117 56.4689 87.2117 56.531 87.0983 56.593L85.5111 58.8275C85.4544 58.9517 85.341 59.0137 85.1709 59.0137C85.0009 59.0137 84.8875 58.9517 84.8308 58.7654L83.4136 56.7172C83.357 56.6551 83.3003 56.593 83.1869 56.593C83.0735 56.593 83.0168 56.7172 83.0168 56.8413L82.5633 60.6275C82.5066 60.9379 82.1665 60.9999 81.8831 60.9999C81.6563 60.9999 81.3729 60.8758 81.3729 60.6275L82.0531 54.2965C82.1098 53.9241 82.2232 53.6758 82.6767 53.6758C82.7901 53.6758 83.0168 53.7379 83.1869 53.9861L85.0009 56.7792C85.1143 56.9034 85.2276 57.0896 85.341 57.0275C85.3977 57.0896 85.5678 56.9654 85.6244 56.7792Z" fill="#046F46"/>
</g>
<defs>
<clipPath id="clip0_391_1800">
<rect width="128" height="36" fill="white" transform="translate(46 25)"/>
</clipPath>
</defs>
</svg>
