<svg width="220" height="86" viewBox="0 0 220 86" fill="none" xmlns="http://www.w3.org/2000/svg">
<rect width="220" height="86" rx="43" fill="white"/>
<g clip-path="url(#clip0_391_1693)">
<path d="M96.0814 57.5139C91.6162 54.6604 85.5563 54.1596 75.7835 56.8495C65.365 59.2784 61.8913 60.8354 57.3293 57.7098C55.5767 56.1744 54.9484 53.7022 55.4176 50.1412C56.5058 44.3361 59.4467 38.7497 64.6706 32.5529C67.5863 29.3294 70.2911 26.5631 73.8625 25.4522C76.5997 24.7553 76.3438 26.8894 76.0126 27.1946C75.6631 27.1946 75.076 27.2492 74.6222 27.543C74.254 27.8263 73.2431 28.7412 73.1888 29.9718C73.1105 31.8558 75.0757 31.4636 75.9233 30.4293C76.837 29.2636 78.1873 27.0315 77.1251 24.9511C76.6799 24.2107 75.9107 23.6989 74.9557 23.5247C71.6854 23.3392 68.6398 24.8858 65.8288 26.5956C59.6815 30.8321 54.764 36.7023 51.9815 43.1279C50.3774 47.0049 48.9266 52.5584 51.1012 57.0785C52.7836 60.2148 56.276 61.8808 60.4429 61.5324C63.3653 61.2278 66.8992 60.2907 69.2759 59.725C71.6528 59.1581 83.819 55.0093 87.8165 62.2303C87.8165 62.2303 89.1458 59.6703 92.4679 59.6157C95.1991 59.3657 99.1393 60.4001 102.008 62.4907C101.053 61.0645 98.3423 58.9626 96.0814 57.5139Z" fill="#E61A27"/>
<path d="M77.024 33.2826C74.7485 31.8015 70.175 34.6331 66.5119 39.4901C63.1621 43.8468 61.7156 48.9103 63.2899 51.2518C65.6314 54.007 69.9785 49.9995 71.8271 47.8544L72.0656 47.6036C73.3228 46.264 74.2939 44.6521 75.2341 43.1054C75.2341 43.1054 76.0981 41.6896 76.1393 41.6242C76.6733 41.5265 77.3165 41.374 78.0413 41.167C78.031 41.1995 75.2683 45.8063 75.5501 48.0929C75.6379 48.7905 75.571 51.3389 78.0788 52.112C81.4214 52.6678 84.0905 50.0972 86.4452 47.8102C86.4452 47.8102 86.8465 47.4294 87.0734 47.212C87.016 47.4399 86.9411 47.7442 86.9411 47.7442C85.9625 51.1204 87.2816 51.8289 88.1068 52.0902C90.6005 52.8096 93.5797 49.2154 93.5894 49.2154C93.512 50.3475 93.2863 51.284 94.4893 52.0356C95.6246 52.4389 96.7738 51.824 97.6474 51.2468C100.794 49.0471 103.328 45.6039 105.376 42.6279H104.07C104.054 42.6279 100.847 47.2392 98.7649 48.2414C98.7616 48.2414 98.3825 48.4344 98.1643 48.2817C97.8938 48.053 98.0005 47.5773 98.1674 47.2404C98.1779 47.2185 106.208 33.4017 106.208 33.4017H102.417C102.417 33.4017 102.002 34.0664 101.969 34.11C101.943 34.0883 101.882 33.974 101.84 33.9192C99.4915 30.6957 94.172 35.6541 90.1672 41.4041C88.6253 43.6151 86.6623 46.1045 84.6268 47.9014C84.6268 47.9014 81.6112 50.6437 80.3228 48.6734C79.8518 47.8456 79.9967 46.6353 80.2624 45.8405C81.7625 41.6039 84.3475 37.7591 87.2891 35.4393C88.1194 34.7972 89.0221 34.6115 89.4698 34.8838C89.8967 35.1347 89.9656 35.755 89.6956 36.1798C89.0105 36.1581 88.4615 36.3646 88.0154 36.8221C87.1364 37.737 86.831 38.6192 87.1105 39.4471C88.4681 41.3637 91.1758 37.5737 91.0448 35.2649C90.998 34.4371 90.553 33.6532 89.8885 33.2716C88.8983 32.6838 87.3878 32.8361 86.4103 33.3047C85.1015 33.7945 83.0302 35.5042 81.821 36.8331C80.2988 38.4996 77.6881 40.3508 76.8718 40.1435C77.1386 39.4355 79.3438 34.9596 77.024 33.2826ZM95.3032 39.9041C96.0407 38.8914 98.1874 36.1795 98.7107 35.7222C100.471 34.1861 101.174 34.862 101.235 35.3408C99.5926 38.2594 97.6538 41.603 95.831 44.609C95.8348 44.5983 95.2606 45.4692 95.2606 45.4692C94.4555 46.6886 93.6449 47.7343 92.3227 48.4637C92.1341 48.5187 91.8233 48.5405 91.6165 48.3874C91.3675 48.224 91.2692 47.9517 91.2973 47.6685C91.3766 46.7322 92.3375 43.8685 95.3032 39.9041ZM74.6774 41.6573C74.6774 41.6573 74.6443 41.7557 74.6281 41.7878C74.6239 41.7878 72.9749 44.4557 72.9749 44.4557C71.9798 45.7737 70.7374 47.4295 69.1843 48.2242C68.7239 48.3765 68.0875 48.4749 67.7632 48.0722C67.0757 47.2553 67.43 46.1225 67.7179 45.2079L67.8199 44.8812C68.6452 42.6597 69.9545 40.699 71.2292 38.8803C71.2451 38.8695 71.2808 38.8587 71.2937 38.8587C71.2969 38.8695 71.302 38.8695 71.3041 38.8914C72.1039 40.4158 73.6036 41.1234 74.7251 41.4506C74.7319 41.4506 74.7392 41.4615 74.7392 41.4834C74.7394 41.5158 74.7211 41.5597 74.6774 41.6573ZM76.2395 38.5103C76.2322 38.532 75.5051 40.1874 75.5051 40.1874C75.4 40.2745 75.2338 40.231 75.0433 40.1874L74.7169 40.1326C73.6919 39.817 72.9188 39.1417 72.6805 38.3359C72.3518 36.7676 73.7023 35.537 74.2972 35.0907C74.8681 34.6983 75.7556 34.4914 76.271 34.8945C76.5889 35.2649 76.7093 35.7439 76.7093 36.267C76.7095 36.9746 76.4893 37.7695 76.2395 38.5103ZM124.171 43.5631C123.805 42.7792 122.937 42.2782 122.012 42.3325C119.009 42.605 116.071 45.0553 114.528 48.5727C113.719 50.3807 113.277 51.8725 112.988 54.2466C113.922 53.1797 115.827 51.4264 117.988 50.4679C117.988 50.4679 118.283 48.1919 119.783 46.1661C120.35 45.3273 121.486 43.977 122.761 44.3362C123.876 44.7066 123.484 47.767 122.003 50.7286C120.907 52.907 119.23 55.0858 117.533 56.5883C116.033 57.8515 113.814 59.3762 111.872 58.2002C110.649 57.4817 110.025 55.9783 110.156 54.0399C110.741 48.5404 113.264 43.8573 116.876 38.521C120.599 33.5658 124.704 28.48 130.233 25.7678C131.361 25.2015 132.406 25.0709 133.309 25.4194C133.309 25.4194 128.118 28.2509 125.644 33.4895C125.014 34.8184 124.139 36.6148 125.02 38.205C125.481 39.0325 126.299 39.098 126.958 39.0544C129.99 38.3572 131.95 35.5475 133.551 32.9776C134.479 31.0282 135.304 29.0896 135.304 26.9332C135.304 26.6719 135.29 26.3236 135.268 26.062C136.717 25.2999 139.688 26.6501 139.688 26.6501C142.01 27.4127 146.954 31.1701 148.622 31.8886C149.435 30.9521 150.772 29.5365 151.525 28.8285L150.435 28.164C148.691 27.1076 146.847 26.1056 145.032 25.1146C140.91 22.8823 137.555 23.6663 135.847 24.2762C135.176 24.5157 134.563 24.7227 134.563 24.7227C133.296 23.3505 131.217 23.4809 129.686 23.8514C124.179 25.4195 119.066 29.242 113.584 35.8746C109.554 41.0695 107.054 45.5566 105.722 49.9889C104.695 52.9728 104.382 57.3617 106.889 59.9646C109.021 62.1749 111.847 61.696 113.842 60.9014C118.166 58.7886 122.053 54.2361 123.989 48.9975C124.457 47.4404 124.975 45.2405 124.171 43.5631ZM134.114 27.1512C133.541 33.6639 128.438 37.4868 127.176 37.7913C126.41 37.9435 125.105 37.6062 126.271 34.873C127.987 31.1916 130.917 28.0663 134.061 26.4652C134.138 26.7376 134.136 26.9114 134.114 27.1512ZM164.383 27.9786C161.638 29.5253 158.793 30.527 155.349 30.1786C154.394 31.2462 153.465 32.346 152.608 33.4785C157.442 34.6983 162.567 31.9865 165.426 29.4057C168.45 26.8027 170 23.5249 170 23.5249C170 23.5249 167.734 26.0948 164.383 27.9786ZM112.509 33.402H108.909L106.878 36.6758H110.478L112.509 33.402Z" fill="#E61A27"/>
<path d="M155.334 57.8171C154.947 58.0784 154.403 57.8775 154.606 57.2787C155.113 55.754 157.127 52.6469 157.127 52.6469L162.736 42.7769H158.894C158.711 43.0745 158.321 43.7579 158.321 43.7579C158.143 43.4641 157.612 42.811 157.393 42.6698C156.454 42.0812 155.077 42.3595 154.127 42.893C149.996 45.2893 146.982 50.0237 144.605 53.7158C144.605 53.7158 142.103 57.8199 140.714 58.1251C139.63 58.2123 139.742 56.7632 139.788 56.4256C140.208 53.9857 141.181 51.6662 142.162 49.5643C144.158 48.1921 146.434 46.3952 148.504 44.4241C152.994 40.1655 156.78 35.3409 157.334 34.2628C157.334 34.2628 156.735 34.3827 156.027 34.4043C152.573 39.1853 145.503 46.1338 143.359 47.1681C144.309 44.9024 150.444 34.0884 155.664 28.9155L156.485 28.1311C157.756 26.9004 159.072 25.6372 160.098 25.4302C160.206 25.4193 160.345 25.4302 160.466 25.6811C160.512 26.6393 160.152 27.3473 159.74 28.1531L159.161 29.3295C159.161 29.3295 159.98 29.1769 160.518 29.0022C161.142 27.8375 161.833 26.5302 161.578 24.9732C161.493 24.4722 161.128 24.0911 160.65 24.0039C159.093 23.7098 157.396 24.853 156.03 25.779L155.975 25.8114C148.955 31.2677 143.027 39.1308 137.844 49.869C137.468 50.1518 136.017 50.4897 135.77 50.3262C136.282 49.2809 136.927 47.8757 137.249 46.351C137.305 45.9152 137.357 45.469 137.357 45.0335C137.357 44.0961 137.13 43.2143 136.284 42.6048C135.291 42.1146 134.065 42.3434 133.238 42.7134C129.533 44.2381 126.764 48.0065 124.766 51.11C123.691 53.0817 122.62 55.1934 122.323 57.6116C122.114 59.5062 122.54 60.7262 123.626 61.3362C124.742 61.9021 126.148 61.3138 126.7 61.0309C130.453 59.0705 133.076 55.1393 135.143 51.5452C135.225 51.5345 136.353 51.5021 137.207 51.2839C137.218 51.2839 137.223 51.2839 137.242 51.2952C137.193 51.458 136.752 52.7653 136.752 52.7653C135.442 56.5766 134.836 59.1689 136.074 60.7043C137.842 62.8716 140.77 60.6284 143.151 57.6656C142.64 61.2158 144.495 61.7716 145.908 61.4995C147.533 61.0641 149.342 59.343 150.182 58.4612C149.912 59.4955 149.986 61.3473 151.463 61.5321C152.476 61.7178 153.234 61.1714 154.11 60.703C157.256 59.0039 161.021 53.3421 161.998 51.7052H160.717C159.327 53.789 157.559 56.5205 155.334 57.8171ZM127.101 57.4379C126.902 57.1437 126.836 56.8223 126.829 56.4747C126.791 54.3391 129.107 50.515 130.742 48.4317H130.745C131.43 49.9198 132.981 50.8763 133.918 51.2795C132.755 53.8498 128.766 59.3546 127.101 57.4379ZM134.574 50.1304C134.463 50.2071 132.507 49.5533 132.129 47.7564C131.808 46.2094 132.882 45.0006 133.921 44.3914C134.367 44.0425 135.039 43.9232 135.532 44.0967C135.989 44.4022 136.113 44.9472 136.113 45.5342C136.113 45.8943 136.065 46.2643 136.022 46.6018L136.013 46.6783C135.685 47.8857 135.202 49.046 134.574 50.1304ZM150.264 56.7519C150.262 56.7519 149.892 57.0786 149.892 57.0786C149.365 57.5467 148.822 58.0476 148.166 57.797C147.985 57.7318 147.858 57.4924 147.827 57.3067C147.797 55.9671 148.405 54.7259 148.995 53.5171L149.146 53.2012C150.843 50.3915 152.814 47.0808 155.71 44.7832C156.198 44.4339 156.727 44.1405 157.286 44.3693C157.415 44.489 157.564 44.696 157.564 44.9027C157.564 44.9683 157.506 45.1424 157.472 45.1967C156.663 46.4933 155.893 47.8543 155.144 49.1612C153.68 51.7423 152.162 54.41 150.264 56.7519Z" fill="#E61A27"/>
</g>
<defs>
<clipPath id="clip0_391_1693">
<rect width="120" height="39" fill="white" transform="translate(50 23.5)"/>
</clipPath>
</defs>
</svg>
