<svg width="220" height="86" viewBox="0 0 220 86" fill="none" xmlns="http://www.w3.org/2000/svg">
<rect width="220" height="86" rx="43" fill="white"/>
<g clip-path="url(#clip0_391_1791)">
<path d="M62.0114 36.9864V41.4727H72.3503C72.0758 43.9545 71.2523 45.8636 69.9714 47.1045C68.5075 48.6318 66.1287 50.35 62.0114 50.35C55.6984 50.35 50.7577 45.0045 50.7577 38.4182C50.7577 31.8318 55.6069 26.4864 62.0114 26.4864C65.3967 26.4864 67.9585 27.9182 69.7884 29.7318L72.8077 26.5818C70.2459 24.0045 66.7691 22 62.0114 22C53.3195 22 46 29.35 46 38.4182C46 47.4864 53.3195 54.8364 62.0114 54.8364C66.6776 54.8364 70.2459 53.2136 72.9907 50.2545C75.827 47.2955 76.742 43.0955 76.742 39.7545C76.742 38.7045 76.6505 37.75 76.559 36.9864H62.0114Z" fill="#4285F4"/>
<path d="M89.5512 33.2637C83.97 33.2637 79.3038 37.75 79.3038 43.8591C79.3038 49.9682 83.8785 54.4546 89.5512 54.4546C95.2238 54.4546 99.7985 50.0637 99.7985 43.9546C99.7985 37.75 95.2238 33.2637 89.5512 33.2637ZM89.5512 50.35C86.4404 50.35 83.787 47.6773 83.787 43.9546C83.787 40.1364 86.4404 37.5591 89.5512 37.5591C92.6619 37.5591 95.3153 40.1364 95.3153 43.9546C95.3153 47.6773 92.6619 50.35 89.5512 50.35Z" fill="#EA4335"/>
<path d="M139.598 35.65H139.415C138.409 34.4091 136.488 33.2637 134.017 33.2637C128.894 33.2637 124.502 37.8455 124.502 43.8591C124.502 49.7773 128.894 54.4546 134.017 54.4546C136.488 54.4546 138.409 53.3091 139.415 52.0682H139.598V53.5955C139.598 57.6046 137.494 59.8 134.2 59.8C131.455 59.8 129.808 57.7955 129.077 55.9819L125.234 57.7C126.332 60.4682 129.351 64 134.292 64C139.507 64 143.99 60.7546 143.99 52.9273V33.8364H139.781V35.65H139.598ZM134.475 50.35C131.364 50.35 129.077 47.5819 129.077 43.9546C129.077 40.2319 131.455 37.5591 134.475 37.5591C137.494 37.5591 139.873 40.3273 139.873 44.05C139.964 47.6773 137.585 50.35 134.475 50.35Z" fill="#4285F4"/>
<path d="M112.333 33.2637C106.752 33.2637 102.086 37.75 102.086 43.8591C102.086 49.9682 106.661 54.4546 112.333 54.4546C118.006 54.4546 122.58 50.0637 122.58 43.9546C122.58 37.75 118.006 33.2637 112.333 33.2637ZM112.333 50.35C109.222 50.35 106.569 47.6773 106.569 43.9546C106.569 40.1364 109.222 37.5591 112.333 37.5591C115.444 37.5591 118.097 40.1364 118.097 43.9546C118.097 47.6773 115.444 50.35 112.333 50.35Z" fill="#FBBC05"/>
<path d="M147.375 22.4773H151.767V54.55H147.375V22.4773Z" fill="#34A853"/>
<path d="M165.308 50.35C163.021 50.35 161.465 49.3 160.367 47.1046L174 41.2819L173.543 40.0409C172.719 37.6546 170.066 33.2637 164.851 33.2637C159.635 33.2637 155.244 37.5591 155.244 43.8591C155.244 49.7773 159.544 54.4546 165.308 54.4546C169.974 54.4546 172.628 51.4955 173.817 49.7773L170.34 47.3909C169.151 49.2046 167.595 50.35 165.308 50.35ZM165.034 37.2728C166.864 37.2728 168.419 38.2273 168.876 39.5637L159.727 43.5728C159.635 39.1819 162.746 37.2728 165.034 37.2728Z" fill="#EA4335"/>
</g>
<defs>
<clipPath id="clip0_391_1791">
<rect width="128" height="42" fill="white" transform="translate(46 22)"/>
</clipPath>
</defs>
</svg>
