<svg width="220" height="86" viewBox="0 0 220 86" fill="none" xmlns="http://www.w3.org/2000/svg">
<rect width="220" height="86" rx="43" fill="white"/>
<path d="M60.9409 46.4135V46.7863H55.0192V46.4135C55.0192 46.4135 56.4768 45.7613 57.7523 43.5249H58.2078C59.4832 45.7613 60.9409 46.4135 60.9409 46.4135Z" fill="#13213C"/>
<path d="M91.5513 43.5249C91.5513 44.8294 91.8246 45.2022 93.2822 46.4135V46.7862H84.6274V46.4135C86.0851 45.2022 86.3584 44.7362 86.3584 43.5249V27.9635C86.3584 26.659 86.0851 26.2862 84.6274 25.0749V24.7021H93.2822V25.0749C91.8246 26.2862 91.5513 26.7521 91.5513 27.9635V43.5249Z" fill="#13213C"/>
<path d="M118.609 24.9817C116.514 27.2181 116.332 27.8703 116.332 29.9203V46.8794H112.232L100.115 29.4544V41.5681C100.115 43.5249 100.297 44.2703 102.393 46.5067V46.8794H96.4711V46.5067C98.5664 44.2703 98.7486 43.6181 98.7486 41.5681V27.7771L96.5622 24.8885V24.7021H103.304L115.056 41.6612V30.0135C115.056 28.0567 114.874 27.3112 112.779 25.0749V24.7021H118.7V25.0749L118.609 24.9817Z" fill="#13213C"/>
<path d="M120.34 35.6976C120.34 29.0817 124.531 24.1431 130.908 24.1431C137.285 24.1431 141.476 29.0817 141.476 35.6976C141.476 42.3135 137.285 47.2522 130.908 47.2522C124.531 47.2522 120.34 42.3135 120.34 35.6976ZM135.828 35.6976C135.828 28.9885 135.372 25.3544 130.999 25.3544C126.626 25.3544 126.171 28.9885 126.171 35.6976C126.171 42.4067 126.626 46.0408 130.999 46.0408C135.372 46.0408 135.828 42.4067 135.828 35.6976Z" fill="#13213C"/>
<path d="M164.434 47.3453H161.792C159.241 47.3453 158.877 47.159 156.964 44.084L152.591 37.0953H150.678V43.5249C150.678 44.8294 150.951 45.2022 152.408 46.4135V46.7862H143.754V46.4135C145.211 45.2022 145.485 44.7362 145.485 43.5249V27.9635C145.485 26.659 145.211 26.2862 143.754 25.0749V24.7021H153.228C158.695 24.7021 162.248 26.4726 162.248 30.4794C162.248 34.4862 160.334 35.3249 157.692 36.1635L164.434 47.3453ZM156.964 30.9453C156.964 27.0317 155.688 25.7271 152.591 25.7271H150.769V35.884H152.5C156.144 35.884 156.964 34.4862 156.964 30.9453Z" fill="#13213C"/>
<path d="M81.1658 24.9816V24.6089H74.6975L68.6847 39.7975L61.852 24.6089H55.748V24.7953L66.2249 46.8793H67.3182L74.3331 29.268V43.5248C74.3331 44.8293 74.0598 45.2021 72.6021 46.4134V46.7862H81.2569V46.4134C79.7993 45.2021 79.526 44.7362 79.526 43.5248V27.9634C79.526 26.6589 79.7993 26.2862 81.2569 25.0748L81.1658 24.9816Z" fill="#13213C"/>
<path d="M61.1231 53.4023V59.9251H59.8477V53.4023H61.1231Z" fill="#13213C"/>
<path d="M68.7757 57.7819V53.4023H69.9601V59.9251H68.958L65.6782 55.266V59.9251H64.4939V53.4023H65.7693L68.7757 57.7819Z" fill="#13213C"/>
<path d="M75.1529 59.925V54.4273H72.8754V53.3091H78.706V54.4273H76.4284V59.925H75.1529Z" fill="#13213C"/>
<path d="M86.4498 59.9251H81.6213V53.4023H86.3587V54.5205H82.8968V56.1046H85.6299V57.1296H82.8968V58.9001H86.4498V60.0183V59.9251Z" fill="#13213C"/>
<path d="M93.738 59.9251C93.6469 59.7387 93.5558 59.2728 93.4647 58.5273C93.4647 57.7819 93.1003 57.5023 92.3714 57.5023H90.8227V59.9251H89.5472V53.4023H92.4625C94.1024 53.4023 94.9223 54.1478 94.9223 55.3592C94.9223 56.5705 94.2846 56.9433 93.4647 57.0364C94.1935 57.2228 94.5579 57.5955 94.649 58.4342C94.649 59.366 94.7401 59.7387 95.0134 60.0183H93.738V59.9251ZM92.2803 56.4773C93.1914 56.4773 93.6469 56.1978 93.6469 55.4523C93.6469 54.7069 93.1914 54.4273 92.2803 54.4273H90.8227V56.4773H92.2803Z" fill="#13213C"/>
<path d="M102.302 57.7819V53.4023H103.486V59.9251H102.484L99.2042 55.266V59.9251H98.0199V53.4023H99.2953L102.302 57.7819Z" fill="#13213C"/>
<path d="M110.319 53.4023L112.961 59.9251H111.594L110.957 58.341H108.223L107.586 59.9251H106.31L108.861 53.4023H110.319ZM108.588 57.316H110.501L109.499 54.8933L108.588 57.316Z" fill="#13213C"/>
<path d="M116.878 59.925V54.4273H114.601V53.3091H120.431V54.4273H118.154V59.925H116.878Z" fill="#13213C"/>
<path d="M124.622 53.4023V59.9251H123.347V53.4023H124.622Z" fill="#13213C"/>
<path d="M130.908 60.1114C128.995 60.1114 127.628 58.7137 127.628 56.7569C127.628 54.8001 128.995 53.4023 130.908 53.4023C132.821 53.4023 134.188 54.8001 134.188 56.7569C134.188 58.7137 132.821 60.1114 130.908 60.1114ZM130.908 54.4273C129.724 54.4273 128.995 55.266 128.995 56.6637C128.995 58.0614 129.724 58.9001 130.908 58.9001C132.092 58.9001 132.821 58.0614 132.821 56.6637C132.821 55.266 132.092 54.4273 130.908 54.4273Z" fill="#13213C"/>
<path d="M141.476 57.7819V53.4023H142.661V59.9251H141.658L138.379 55.266V59.9251H137.194V53.4023H138.47L141.476 57.7819Z" fill="#13213C"/>
<path d="M149.493 53.4023L152.135 59.9251H150.769L150.131 58.341H147.398L146.76 59.9251H145.485L148.036 53.4023H149.493ZM147.762 57.316H149.675L148.673 54.8933L147.762 57.316Z" fill="#13213C"/>
<path d="M156.144 53.4023V58.9001H159.515V60.0183H154.868V53.4955H156.144V53.4023Z" fill="#13213C"/>
</svg>
