<svg width="220" height="86" viewBox="0 0 220 86" fill="none" xmlns="http://www.w3.org/2000/svg">
<rect width="220" height="86" rx="43" fill="white"/>
<g clip-path="url(#clip0_391_1784)">
<path d="M110.007 70.4007C125.199 70.4007 137.514 58.1108 137.514 42.9504C137.514 27.79 125.199 15.5 110.007 15.5C94.8154 15.5 82.5 27.79 82.5 42.9504C82.5 58.1108 94.8154 70.4007 110.007 70.4007Z" fill="white"/>
<path d="M112.764 27.3677C112.522 27.3252 111.357 27.1267 109.993 27.1267C108.629 27.1267 107.464 27.3252 107.222 27.3677C107.08 27.3961 107.038 27.2543 107.137 27.1834C107.237 27.1125 109.993 25.014 109.993 25.014L112.849 27.1834C112.962 27.2543 112.906 27.3961 112.764 27.3677ZM108.004 40.9511C108.004 40.9511 107.862 41.0079 107.819 41.1355C108.402 41.575 108.799 42.5817 109.993 42.5817C111.201 42.5817 111.598 41.575 112.167 41.1355C112.124 41.0079 111.982 40.9511 111.982 40.9511C111.982 40.9511 111.229 41.1355 109.993 41.1355C108.757 41.1355 108.004 40.9511 108.004 40.9511ZM110.007 39.2639C109.666 39.2639 109.595 39.1362 109.368 39.1362C109.155 39.1362 108.728 39.3064 108.643 39.4624C108.643 39.5474 108.686 39.6183 108.743 39.675C109.226 39.7459 109.453 40.0153 110.021 40.0153C110.59 40.0153 110.803 39.7459 111.3 39.675C111.357 39.6042 111.385 39.5333 111.4 39.4624C111.314 39.3064 110.888 39.1362 110.675 39.1362C110.405 39.1362 110.334 39.2639 110.007 39.2639ZM137.457 44.4533C137.429 45.1056 137.358 45.7578 137.287 46.3958C134.175 46.9063 133.067 44.1414 129.87 44.2832C130.055 44.9638 130.211 45.6444 130.339 46.3533C132.968 46.3533 134.033 48.8063 136.96 48.4376C136.804 49.1891 136.619 49.9264 136.406 50.6637C134.09 50.8906 133.28 48.5936 130.595 48.6645C130.623 49.0473 130.623 49.4301 130.623 49.813L130.609 50.451L135.809 52.4361C135.539 53.1734 135.227 53.8965 134.9 54.6054C133.337 54.5204 132.797 52.5211 130.424 52.6771C130.353 53.1875 130.268 53.698 130.154 54.1943C132.215 54.0525 132.669 55.9524 134.147 56.0942C133.763 56.7748 133.365 57.4412 132.939 58.0935C132.058 57.6255 131.305 56.2077 129.643 56.1226C129.813 55.598 129.97 55.0592 130.083 54.5204C128.606 54.5204 126.929 53.9532 125.508 52.6629C125.963 50.054 121.914 47.4026 121.914 45.5026C121.914 43.4325 122.965 42.284 122.965 39.4907C122.965 37.4206 121.956 35.1662 120.436 33.6348C120.138 33.3371 119.839 33.096 119.498 32.8833C120.891 34.6132 121.97 36.6549 121.97 39.0228C121.97 41.6459 120.749 43.0354 120.749 45.46C120.749 47.8846 124.301 49.9831 124.301 52.4928C124.301 53.4711 123.988 54.4353 122.951 56.3211C124.542 57.9091 126.631 58.774 127.966 58.774C128.407 58.774 128.634 58.6464 128.79 58.3061C128.918 58.0084 129.046 57.7106 129.174 57.4129C130.623 57.4696 131.277 58.774 132.087 59.2987C131.646 59.88 131.192 60.4613 130.708 61.0001C130.169 60.4046 129.458 59.4121 128.393 59.1285C128.208 59.4972 128.009 59.8516 127.796 60.2061C128.705 60.4472 129.33 61.3688 129.813 61.9643C129.288 62.5031 128.748 63.0135 128.194 63.5098C127.838 62.971 127.299 62.2762 126.688 61.8934C126.46 62.2053 126.219 62.5031 125.977 62.7867C126.503 63.1411 126.958 63.7792 127.256 64.2896C126.602 64.8143 125.935 65.2963 125.238 65.7642C124.897 62.971 121.09 61.071 122.113 57.8382C121.772 58.4054 121.374 59.1143 121.374 59.9792C121.374 62.3188 123.874 64.1762 124.073 66.5015C123.562 66.8135 123.022 67.0971 122.482 67.3806C122.397 64.8284 119.74 62.021 119.74 59.9225C119.74 57.583 122.809 55.2293 122.809 52.4644C122.809 49.6995 119.257 47.7854 119.257 45.3466C119.257 42.922 120.763 41.5183 120.763 38.4131C120.763 36.1303 119.683 33.8333 118.006 32.3587C117.708 32.1035 117.424 31.8908 117.069 31.7065C118.646 33.5923 119.569 35.3221 119.569 37.9169C119.569 40.8377 117.836 42.4683 117.836 45.3324C117.836 48.1966 121.317 49.7988 121.317 52.4644C121.317 55.1301 118.077 57.3845 118.077 60.1352C118.077 62.6307 120.933 65.1262 120.976 68.0896C120.351 68.359 119.711 68.6142 119.072 68.8411C119.441 65.8493 116.216 62.7583 116.216 60.3195C116.216 57.6539 119.583 55.3569 119.583 52.4786C119.583 49.6003 116.159 48.2675 116.159 45.3041C116.159 42.3549 118.262 40.7101 118.262 37.449C118.262 34.9109 116.998 32.6139 115.165 31.1961L115.051 31.111C114.881 30.9834 114.738 31.1393 114.852 31.2953C116.159 32.9117 116.855 34.5565 116.855 36.9811C116.855 39.9728 114.454 42.3974 114.454 45.2899C114.454 48.707 117.694 49.6854 117.694 52.4786C117.694 55.2718 114.227 57.5121 114.227 60.4897C114.227 63.2404 117.509 66.303 116.941 69.4933C116.287 69.6634 115.619 69.8052 114.937 69.9328C115.548 65.9769 112.337 63.127 112.337 60.5322C112.337 57.7248 115.932 55.2293 115.932 52.4786C115.932 49.898 113.36 49.0473 113.019 46.3958C112.977 46.0414 112.678 45.772 112.28 45.8287C111.755 45.9279 111.087 46.2682 110.036 46.2682C108.984 46.2682 108.316 45.9279 107.791 45.8287C107.393 45.7578 107.094 46.0272 107.052 46.3958C106.711 49.0473 104.139 49.8839 104.139 52.4786C104.139 55.2151 107.734 57.7248 107.734 60.5322C107.734 63.127 104.509 65.9769 105.134 69.9328C104.452 69.8052 103.784 69.6634 103.13 69.4933C102.562 66.3172 105.844 63.2546 105.844 60.4897C105.844 57.5121 102.377 55.2718 102.377 52.4786C102.377 49.6712 105.617 48.707 105.617 45.2899C105.617 42.3974 103.201 39.9728 103.201 36.9811C103.201 34.5565 103.898 32.9117 105.205 31.2953C105.333 31.1393 105.191 30.9834 105.006 31.111L104.892 31.1961C103.059 32.6139 101.795 34.8968 101.795 37.449C101.795 40.7101 103.898 42.3549 103.898 45.3041C103.898 48.2533 100.473 49.6003 100.473 52.4786C100.473 55.3569 103.841 57.6539 103.841 60.3195C103.841 62.7583 100.63 65.8493 100.985 68.8411C100.331 68.6142 99.7062 68.3732 99.081 68.0896C99.1236 65.1262 101.979 62.6307 101.979 60.1352C101.979 57.3845 98.74 55.1442 98.74 52.4644C98.74 49.7846 102.221 48.1966 102.221 45.3324C102.221 42.4683 100.488 40.8377 100.488 37.9169C100.488 35.3079 101.397 33.5923 102.988 31.7065C102.633 31.8908 102.349 32.0893 102.051 32.3587C100.374 33.8333 99.2941 36.1445 99.2941 38.4131C99.2941 41.5183 100.8 42.922 100.8 45.3466C100.8 47.7712 97.2481 49.6854 97.2481 52.4644C97.2481 55.2293 100.317 57.583 100.317 59.9225C100.317 62.021 97.6744 64.8143 97.5749 67.3806C97.035 67.1112 96.5093 66.8135 95.9836 66.5015C96.1825 64.1762 98.6832 62.3188 98.6832 59.9792C98.6832 59.1143 98.2853 58.4054 97.9443 57.8382C98.9673 61.071 95.1595 62.9852 94.8185 65.7642C94.1223 65.2963 93.4545 64.8143 92.801 64.2896C93.0993 63.7792 93.554 63.1411 94.0797 62.7867C93.8382 62.5031 93.5966 62.2053 93.3693 61.8934C92.7583 62.2621 92.2042 62.9568 91.8632 63.5098C91.3091 63.0135 90.7692 62.5031 90.2435 61.9643C90.7266 61.3688 91.3517 60.4472 92.261 60.2061C92.0479 59.8516 91.849 59.4972 91.6643 59.1285C90.6129 59.4121 89.8883 60.4046 89.3484 61.0001C88.8653 60.4472 88.3964 59.88 87.9702 59.2987C88.7658 58.774 89.4336 57.4696 90.8828 57.4129C91.0107 57.7106 91.1244 58.0084 91.2665 58.3061C91.4228 58.6464 91.6501 58.774 92.0905 58.774C93.4261 58.774 95.5147 57.9091 97.106 56.3211C96.0688 54.4353 95.7563 53.4711 95.7563 52.4928C95.7563 49.9973 99.3083 47.8988 99.3083 45.46C99.3083 43.0213 98.0864 41.6459 98.0864 39.0228C98.0864 36.6549 99.152 34.6132 100.559 32.8833C100.218 33.096 99.9051 33.3371 99.6209 33.6348C98.1006 35.1662 97.0918 37.4206 97.0918 39.4907C97.0918 42.284 98.1432 43.4325 98.1432 45.5026C98.1432 47.4026 94.0939 50.054 94.5486 52.6629C93.142 53.9532 91.4512 54.5204 89.9735 54.5204C90.1014 55.0592 90.2577 55.598 90.414 56.1226C88.7516 56.2077 87.9986 57.6255 87.1177 58.0935C86.6914 57.4412 86.2794 56.7748 85.91 56.0942C87.3876 55.9383 87.8281 54.0383 89.9025 54.1943C89.7888 53.698 89.7036 53.1875 89.6325 52.6771C87.2598 52.5211 86.7198 54.5204 85.1569 54.6054C84.8302 53.8965 84.5176 53.1734 84.2476 52.4361L89.4478 50.451L89.4336 49.813C89.4336 49.4301 89.4478 49.0473 89.462 48.6645C86.7909 48.6078 85.9668 50.8906 83.6509 50.6637C83.4377 49.9406 83.253 49.1891 83.0967 48.4376C86.0236 48.7921 87.075 46.3391 89.7178 46.3533C89.8314 45.6444 89.9877 44.9638 90.1866 44.2832C87.004 44.1414 85.8816 46.9063 82.77 46.3958C82.6847 45.7578 82.6279 45.1056 82.5995 44.4533C86.2226 44.8503 87.5723 41.887 90.8686 42.2556C91.1812 41.4758 91.5364 40.7101 91.9485 39.9728C87.8139 39.2497 86.4215 42.6952 82.571 42.1705C82.9263 27.3678 95.0743 15.5 110.007 15.5C124.94 15.5 137.074 27.3677 137.486 42.1564C133.635 42.681 132.243 39.2355 128.108 39.9586C128.52 40.6959 128.876 41.4474 129.188 42.2414C132.485 41.887 133.848 44.8503 137.457 44.4533ZM98.1859 32.9401C96.1541 32.1177 93.7103 32.302 91.6217 33.649C91.2949 31.7065 90.2435 29.9767 88.7374 28.9416C88.5243 28.7998 88.3112 28.9274 88.3254 29.1685C88.638 33.2804 86.2368 36.8393 83.2815 39.9728C86.3362 40.8944 88.9221 36.9669 92.8862 38.3422C94.2928 36.2296 96.0973 34.4005 98.1859 32.9401ZM110.007 30.4588C107.45 30.4588 105.318 31.905 104.75 33.7624C104.707 33.9042 104.764 34.0035 104.935 33.9184C105.389 33.7057 105.915 33.6207 106.483 33.6207C107.521 33.6207 108.444 34.0035 108.984 34.6699C109.226 35.4639 109.24 36.5982 108.97 37.2646C108.544 37.1654 108.387 36.8393 107.961 36.8393C107.535 36.8393 107.222 37.137 106.512 37.137C105.801 37.137 105.716 36.7967 105.247 36.7967C104.693 36.7967 104.594 37.3639 104.594 38.0019C104.594 40.8377 107.208 44.7511 109.993 44.7511C112.778 44.7511 115.392 40.8519 115.392 38.0019C115.392 37.3639 115.264 36.8251 114.682 36.74C114.397 36.9527 114.127 37.1228 113.474 37.1228C112.764 37.1228 112.565 36.8251 112.153 36.8251C111.641 36.8251 111.698 37.8885 111.101 37.9452C110.703 36.9811 110.689 35.7617 111.016 34.6557C111.556 33.9893 112.479 33.6065 113.517 33.6065C114.085 33.6065 114.611 33.7057 115.065 33.9042C115.236 33.9751 115.293 33.89 115.25 33.7483C114.696 31.8908 112.55 30.4588 110.007 30.4588ZM114.071 34.5281C113.46 34.5281 112.735 34.7124 112.295 35.2229C112.252 35.3647 112.252 35.5632 112.309 35.6908C113.417 35.3079 114.397 35.2938 114.866 35.8184C115.122 35.5915 115.193 35.3788 115.193 35.152C115.193 34.7833 114.824 34.5281 114.071 34.5281ZM105.134 35.8184C105.674 35.2796 106.796 35.3079 107.975 35.7333C108.032 35.152 106.981 34.5139 105.944 34.5139C105.191 34.5139 104.807 34.7691 104.807 35.1378C104.807 35.393 104.878 35.5915 105.134 35.8184ZM122.738 26.2193C120.72 26.361 118.972 27.0558 117.552 28.2043C118.148 26.5028 118.916 25.0141 119.882 23.5678C117.31 23.8372 115.165 24.773 113.602 26.3752L112.38 23.1708L115.094 20.7746L111.456 20.5193L110.007 17.1448L108.558 20.5193L104.921 20.7746L107.634 23.1708L106.412 26.3752C104.85 24.773 102.704 23.8372 100.132 23.5678C101.099 25.0141 101.866 26.5028 102.463 28.2043C101.042 27.0558 99.2941 26.361 97.2765 26.2193C98.4842 27.7648 99.5641 29.4237 100.346 31.1961C100.431 31.3946 100.63 31.4655 100.843 31.352C103.599 29.9767 106.711 29.211 110.007 29.211C113.303 29.211 116.415 29.9767 119.171 31.352C119.385 31.4513 119.569 31.3946 119.654 31.1961C120.45 29.4237 121.516 27.7648 122.738 26.2193ZM127.128 38.3422C131.078 36.9811 133.678 40.8944 136.733 39.9728C133.777 36.8393 131.362 33.2662 131.689 29.1685C131.703 28.9274 131.49 28.7856 131.277 28.9416C129.771 29.9767 128.719 31.7065 128.393 33.649C126.304 32.302 123.846 32.1177 121.828 32.9401C123.903 34.4005 125.707 36.2296 127.128 38.3422Z" fill="#006341"/>
<path d="M130.708 66.7426H129.316V70.5H128.819V66.7426H127.426V66.2747H130.723V66.7426H130.708ZM131.305 66.2747H132.044L133.479 69.5783H133.493L134.943 66.2747H135.667V70.5H135.156V66.9552H135.141L133.621 70.5H133.323L131.803 66.9552V70.5H131.305V66.2747Z" fill="#006341"/>
</g>
<defs>
<clipPath id="clip0_391_1784">
<rect width="55" height="55" fill="white" transform="translate(82.5 15.5)"/>
</clipPath>
</defs>
</svg>
