<svg width="236" height="86" viewBox="0 0 236 86" fill="none" xmlns="http://www.w3.org/2000/svg">
<rect width="236" height="86" rx="43" fill="white"/>
<g clip-path="url(#clip0_391_1771)">
<path d="M48.4388 18.7104H187.655V67.5042H48.4388V18.7104ZM46 69.9734H190.137V16.263H46V69.9734Z" fill="#231F20"/>
<path d="M84.5737 30.3025V55.8794L86.577 56.1416V57.6384H76.6913V56.1416L78.8252 55.8794V44.2327H66.1633V55.8794L68.1121 56.1416V57.6384H58.3898V56.1416L60.3386 55.8794V30.3025L58.3898 30.0403V28.5763H68.1121V30.0403L66.1633 30.3025V41.2281H78.8143V30.3025L76.6804 30.0403V28.5763H86.5661V30.0403L84.5737 30.3025Z" fill="#231F20"/>
<path d="M98.063 56.0651L99.9247 56.3274V57.6384H90.8339V56.3274L92.6956 56.0651V38.5405L90.8339 38.2782V36.9672H98.063V56.0651Z" fill="#231F20"/>
<path d="M103.877 56.3709L105.695 56.1196V30.1276L103.877 29.8654V28.5871H111.106V56.1196L112.968 56.3709V57.6602H103.877V56.3709Z" fill="#231F20"/>
<path d="M124.029 36.9562H128.907V38.89H124.029V51.1922C124.029 54.3716 124.682 55.3877 127.568 55.3877C128.634 55.3877 129.571 55.3877 130.453 55.1582V56.5786C127.829 57.5073 125.619 57.8896 123.757 57.8896C119.576 57.8896 118.618 55.9995 118.618 52.3831V38.89H114.808V36.9562H118.76V32.6406L124.04 31.0563V36.9562" fill="#231F20"/>
<path d="M153.36 47.4995C153.36 53.9456 149.016 58.2612 142.178 58.2612C135.57 58.2612 131.345 55.4424 131.345 47.4995C131.345 40.8458 135.689 36.3882 142.527 36.3882C149.288 36.3772 153.36 40.4088 153.36 47.4995ZM147.426 47.3684C147.426 40.8349 145.477 37.9833 142.331 37.9833C139.261 37.9833 137.312 40.7147 137.312 47.3684C137.312 53.9456 139.261 56.677 142.331 56.677C145.608 56.677 147.426 54.0658 147.426 47.3684Z" fill="#231F20"/>
<path d="M178.052 56.3274V57.6384H168.961V56.3274L170.779 56.0651V44.2873C170.779 41.0206 169.571 39.5565 167.099 39.5565C165.956 39.5565 164.127 40.3541 162.799 41.2828V56.0542L164.661 56.3164V57.6275H155.526V56.3164L157.388 56.0542V38.6716L155.526 38.4094V36.9453H162.799V39.8187C165.053 38.016 167.241 36.552 170.289 36.552C174.361 36.552 176.19 38.9338 176.19 43.6209V56.0761L178.052 56.3274Z" fill="#231F20"/>
<path d="M98.3351 31.4935C98.3351 33.0996 97.0287 34.4106 95.4065 34.4106C93.7843 34.4106 92.4778 33.1214 92.4778 31.4935C92.4778 29.8874 93.7843 28.5764 95.4065 28.5764C97.0287 28.5764 98.3351 29.8874 98.3351 31.4935Z" fill="#231F20"/>
</g>
<defs>
<clipPath id="clip0_391_1771">
<rect width="144" height="54" fill="white" transform="translate(46 16)"/>
</clipPath>
</defs>
</svg>
