<svg width="280" height="86" viewBox="0 0 280 86" fill="none" xmlns="http://www.w3.org/2000/svg">
<rect width="280" height="86" rx="43" fill="white"/>
<g clip-path="url(#clip0_391_1664)">
<path d="M92.1601 30.075H88.018V41.447H73.0552V30.075H68.947V55.925H73.0552V44.1149H88.018V55.925H92.1601V30.075Z" fill="#323D45"/>
<path d="M56.7726 30.0752H52.6719V55.9253H56.7726V30.0752Z" fill="#323D45"/>
<path d="M121.575 43.4851V53.5044C120.414 54.2465 118.467 54.8317 116.269 54.8317C109.846 54.8317 105.452 49.4818 105.452 42.7268C105.452 36.3615 109.306 31.1295 115.731 31.1295C120.166 31.1295 122.694 33.0818 124.559 35.2684H124.767V30.7777C123.44 30.4655 119.751 29.6453 115.897 29.6453C106.571 29.6453 100.893 36.0493 100.893 43.0781C100.893 50.7702 107.027 56.3544 115.98 56.3544C120.414 56.3544 123.855 54.7536 125.72 54.2459V43.4848H121.575V43.4851Z" fill="#323D45"/>
<path d="M126.752 31.8958C126.752 31.0362 127.48 30.3445 128.399 30.3445C129.334 30.3445 130.046 31.0292 130.046 31.8888C130.046 32.7624 129.319 33.4334 128.399 33.4334C127.487 33.4334 126.752 32.7695 126.752 31.8958ZM129.75 31.8888C129.75 31.1272 129.186 30.5961 128.399 30.5961C127.613 30.5961 127.049 31.1342 127.049 31.896C127.049 32.665 127.643 33.182 128.399 33.182C129.163 33.1819 129.75 32.6507 129.75 31.8888ZM127.836 31.1061H128.407C128.785 31.1061 129.03 31.2528 129.03 31.5674V31.5744C129.03 31.805 128.889 31.9306 128.696 31.9868L129.126 32.6365H128.756L128.363 32.0425H128.192V32.6365H127.836V31.1061ZM128.399 31.8119C128.585 31.8119 128.681 31.735 128.681 31.5883V31.5816C128.681 31.4208 128.577 31.3647 128.399 31.3647H128.192V31.8119H128.399Z" fill="#323D45"/>
<path d="M140.514 30.0989H141.845V34.4526H149.685V30.0989H151.016V39.7364H149.685V35.4636H141.845V39.7364H140.514V30.0989Z" fill="#323D45"/>
<path d="M153.848 34.9782V34.8705C153.848 32.1342 156.494 29.9775 160.572 29.9775C164.65 29.9775 167.296 32.1342 167.296 34.8434V34.9512C167.296 37.6739 164.649 39.8575 160.615 39.8575C156.495 39.8577 153.848 37.6739 153.848 34.9782ZM165.909 34.9378V34.8301C165.909 32.6868 163.949 30.9346 160.572 30.9346C157.167 30.9346 155.236 32.579 155.236 34.857V34.9647C155.236 37.283 157.439 38.8735 160.615 38.8735C163.877 38.8735 165.909 37.2562 165.909 34.9378Z" fill="#323D45"/>
<path d="M172.618 31.0693H168.412V30.0989H178.155V31.0693H173.949V39.7363H172.618V31.0693Z" fill="#323D45"/>
<path d="M180.672 30.0989H189.285V31.0693H182.003V34.3178H188.141V35.2883H182.003V38.7659H189.629V39.7363H180.672V30.0989Z" fill="#323D45"/>
<path d="M192.262 30.0986H193.593V38.7656H200.188V39.736H192.262V30.0986Z" fill="#323D45"/>
<path d="M201.804 36.7981H203.106C203.321 37.9844 204.279 38.9008 207.012 38.9008C209.201 38.9008 210.431 38.1998 210.431 37.0271C210.431 35.895 209.53 35.531 206.726 35.221C203.907 34.9109 202.333 34.2775 202.333 32.5522C202.333 31.0694 203.979 29.9775 206.668 29.9775C209.33 29.9775 211.032 30.8671 211.304 32.633H210.088C209.773 31.3794 208.657 30.9346 206.669 30.9346C204.508 30.9346 203.578 31.5547 203.578 32.5251C203.578 33.3877 204.251 33.8864 207.112 34.1964C210.117 34.5198 211.719 35.086 211.719 36.9865C211.719 38.6579 209.973 39.8575 207.012 39.8575C203.578 39.858 202.062 38.4965 201.804 36.7981Z" fill="#323D45"/>
<path d="M140.514 46.2637H145.379C147.654 46.2637 149.571 47.059 149.571 49.0944V49.1483C149.571 50.8197 148.069 51.6555 146.638 51.898L150.386 55.9012H148.784L145.121 51.9924H141.845V55.9012H140.514L140.514 46.2637ZM145.465 51.0487C147.167 51.0487 148.24 50.3882 148.24 49.1617V49.1077C148.24 47.7329 147.081 47.2207 145.465 47.2207H141.845V51.0487H145.465Z" fill="#323D45"/>
<path d="M153.304 46.2637H161.917V47.2341H154.635V50.4826H160.773V51.4531H154.635V54.9307H162.26V55.9011H153.304V46.2637Z" fill="#323D45"/>
<path d="M164.521 52.9624H165.823C166.038 54.1487 166.997 55.0651 169.729 55.0651C171.918 55.0651 173.149 54.3641 173.149 53.1914C173.149 52.0593 172.247 51.6953 169.443 51.3853C166.624 51.0752 165.051 50.4418 165.051 48.7165C165.051 47.2337 166.696 46.1418 169.386 46.1418C172.047 46.1418 173.75 47.0314 174.021 48.7973H172.805C172.491 47.5437 171.375 47.0989 169.386 47.0989C167.226 47.0989 166.296 47.719 166.296 48.6894C166.296 49.552 166.968 50.0507 169.829 50.3607C172.834 50.6841 174.436 51.2503 174.436 53.1508C174.436 54.8222 172.691 56.0218 169.729 56.0218C166.296 56.0221 164.779 54.6608 164.521 52.9624Z" fill="#323D45"/>
<path d="M177.011 51.1433V51.0355C177.011 48.2992 179.658 46.1426 183.735 46.1426C187.813 46.1426 190.46 48.2992 190.46 51.0085V51.1162C190.46 53.839 187.813 56.0225 183.778 56.0225C179.658 56.0227 177.011 53.8392 177.011 51.1433ZM189.072 51.1028V50.9951C189.072 48.8518 187.112 47.0996 183.735 47.0996C180.33 47.0996 178.399 48.7441 178.399 51.022V51.1297C178.399 53.4481 180.602 55.0386 183.778 55.0386C187.04 55.0388 189.072 53.4212 189.072 51.1028Z" fill="#323D45"/>
<path d="M193.777 46.2637H198.642C200.916 46.2637 202.833 47.059 202.833 49.0944V49.1483C202.833 50.8197 201.331 51.6555 199.9 51.898L203.649 55.9012H202.047L198.384 51.9924H195.107V55.9012H193.777L193.777 46.2637ZM198.727 51.0487C200.43 51.0487 201.503 50.3882 201.503 49.1617V49.1077C201.503 47.7329 200.344 47.2207 198.727 47.2207H195.108V51.0487H198.727Z" fill="#323D45"/>
<path d="M209.487 47.2343H205.28V46.2639H215.023V47.2343H210.817V55.9013H209.487V47.2343Z" fill="#323D45"/>
<path d="M216.881 52.9624H218.182C218.397 54.1487 219.356 55.0651 222.088 55.0651C224.277 55.0651 225.508 54.3641 225.508 53.1914C225.508 52.0593 224.606 51.6953 221.802 51.3853C218.984 51.0752 217.41 50.4418 217.41 48.7165C217.41 47.2337 219.055 46.1418 221.745 46.1418C224.406 46.1418 226.109 47.0314 226.38 48.7973H225.164C224.85 47.5437 223.734 47.0989 221.745 47.0989C219.585 47.0989 218.655 47.719 218.655 48.6894C218.655 49.552 219.327 50.0507 222.189 50.3607C225.193 50.6841 226.795 51.2503 226.795 53.1508C226.795 54.8222 225.05 56.0218 222.088 56.0218C218.655 56.0221 217.138 54.6608 216.881 52.9624Z" fill="#323D45"/>
<path d="M224.454 38.4141C223.704 39.2102 222.604 39.8306 221.117 39.8306C219.017 39.8306 217.629 38.8727 217.629 37.2537C217.629 35.7157 218.892 34.8792 220.192 34.4204C219.517 33.8539 219.067 33.1793 219.067 32.2753C219.067 30.7911 220.354 29.9548 221.804 29.9548C223.354 29.9548 224.391 30.8992 224.391 32.1945C224.391 33.1524 223.591 34.0833 222.029 34.6633L224.516 37.0378L226.129 34.7577H227.228L225.179 37.672L227.328 39.7362H225.816L224.454 38.4141ZM221.142 38.8997C222.342 38.8997 223.241 38.4545 223.854 37.8339L220.904 34.9871C219.692 35.4054 218.804 36.0394 218.804 37.1862C218.804 38.2387 219.629 38.8997 221.142 38.8997ZM221.354 34.1104C222.791 33.5302 223.329 32.9366 223.329 32.1676C223.329 31.4257 222.766 30.8455 221.779 30.8455C220.867 30.8455 220.142 31.3311 220.142 32.2891C220.142 33.0174 220.667 33.5841 221.354 34.1104Z" fill="#323D45"/>
</g>
<defs>
<clipPath id="clip0_391_1664">
<rect width="175" height="27" fill="white" transform="translate(52.5 29.5)"/>
</clipPath>
</defs>
</svg>
