<svg width="220" height="86" viewBox="0 0 220 86" fill="none" xmlns="http://www.w3.org/2000/svg">
<rect width="220" height="86" rx="43" fill="white"/>
<g clip-path="url(#clip0_391_1656)">
<path d="M74.9821 74.25L104.767 58.5411C106.512 58.6753 108.256 58.7425 110 58.7425C130.729 58.7425 147.5 48.2027 147.5 35.2462C147.5 22.2897 130.729 11.75 110 11.75C89.271 11.75 72.5 22.2226 72.5 35.2462C72.5 44.0405 80.2147 51.7607 91.619 55.7887L74.9821 74.25Z" fill="#EC1C24"/>
<path d="M96.8515 24.5051H89.4723L89.8077 26.5191H90.4786C90.9482 26.5191 91.3507 26.5862 91.8202 26.6534C92.0215 26.7205 92.0215 26.7876 92.0215 26.8548V26.9219C91.9544 27.3918 91.8202 27.7946 91.5519 28.1974C91.2836 28.6673 90.8811 29.3386 90.3444 30.2114L88.466 33.098L85.9839 27.7275C85.9839 27.7275 85.9168 27.5261 85.7827 27.3247C85.7156 27.1904 85.6485 26.989 85.6485 26.8548V26.7876H85.7156C86.1181 26.6534 86.5206 26.6534 86.9902 26.6534L87.9294 26.5191L87.5939 24.5051H78.5376L78.873 26.5191L79.4768 26.5862C79.9464 26.5862 80.3489 26.7205 80.7514 26.9219C81.0868 27.3247 81.3551 27.7275 81.4893 28.1974C81.4893 28.1974 85.1118 35.9847 85.246 36.3204C85.1789 36.7232 84.5081 42.6979 84.5081 42.6979C84.5081 43.235 84.3068 43.7049 83.9043 44.0406C83.3677 44.242 82.831 44.3091 82.2943 44.242L81.4222 44.3091L81.7576 46.3231H92.3569L92.0215 44.242H91.3507C90.6798 44.242 90.009 44.1748 89.3381 44.0406C89.204 43.9734 89.1369 43.8392 89.0698 43.5706C89.0698 43.3693 89.0027 43.1679 89.0027 42.9665C89.0027 42.6308 89.0027 42.2951 89.0698 41.8923C89.0698 41.8923 89.6065 37.2602 89.7406 36.3204L94.9732 28.0631C95.2415 27.5932 95.5099 27.1904 95.9124 26.8548C96.1807 26.6534 96.5161 26.5862 96.8515 26.5862L97.6566 26.5191L97.5224 24.5051H96.8515Z" fill="white"/>
<path d="M99.4007 31.017L97.1198 31.4869L94.2352 32.0911L94.5706 33.9037H95.2415C95.644 33.9037 96.0465 33.9037 96.3819 33.9708C96.3819 34.0379 96.449 34.1051 96.449 34.1722V34.3064V34.575C96.449 34.6421 95.8452 43.1008 95.8452 43.1008V43.7049C95.8452 43.9063 95.8452 44.1077 95.9123 44.3763C96.0465 45.249 96.5832 46.0546 97.3882 46.4574C97.7907 46.6588 98.2603 46.7259 98.6628 46.7259C100.139 46.7259 101.547 45.786 102.822 43.9063C103.023 43.5707 103.292 43.1008 103.56 42.6308C103.56 42.8994 103.493 43.235 103.493 43.4364V43.5707C103.493 43.9063 103.56 44.242 103.56 44.5777C103.627 45.249 103.962 45.786 104.499 46.1888C104.969 46.5245 105.572 46.7259 106.109 46.7259C107.25 46.7259 108.256 46.0546 109.262 44.7119C109.732 44.0406 110.134 43.3022 110.47 42.5637L110.738 41.9595L108.994 40.9525L107.92 42.6308C107.786 42.8322 107.652 43.0336 107.518 43.3022L107.384 43.235V42.9665L108.39 32.2254L108.457 31.3526H104.7L104.566 32.024C104.298 33.7023 104.03 34.9106 103.828 35.7162C103.56 36.8575 103.224 37.9316 102.755 39.0057C102.285 40.1469 101.682 41.1539 101.011 42.1609C100.206 43.3693 99.8032 43.3693 99.7361 43.3693H99.669V43.3022V43.1679L99.7361 42.6308L100.608 32.2254V31.9568C100.608 31.6883 100.474 31.4869 100.34 31.2855C100.072 31.0841 99.7361 30.9498 99.4007 31.017Z" fill="white"/>
<path d="M115.769 31.084C113.623 31.5539 112.012 31.8896 111.073 32.091L110.268 32.2252L110.671 34.2392H111.342C111.744 34.2392 112.214 34.2392 112.616 34.3063C112.616 34.3734 112.616 34.3734 112.616 34.4406C112.616 34.5077 112.616 34.5748 112.616 34.5748V34.8434L111.476 46.4572H115.367L115.434 45.7859C115.635 44.1076 115.836 42.765 116.038 41.8922C116.239 40.751 116.574 39.6098 117.044 38.5356C117.513 37.5287 118.117 36.5888 118.788 35.649C119.593 34.4406 120.063 34.3734 120.197 34.3734C120.197 34.4406 120.197 34.4406 120.197 34.5077V34.642V34.8434L119.123 46.4572H123.014L123.081 45.7188C123.283 43.2349 123.484 41.6908 123.618 41.0195C123.752 40.1468 124.021 39.3412 124.356 38.5356C124.826 37.5287 125.429 36.5217 126.1 35.5818C126.637 34.7762 127.174 34.3734 127.509 34.3734C127.509 34.3734 127.576 34.4406 127.576 34.5077V34.8434L126.905 43.302V43.9733C126.905 44.1747 126.905 44.3761 126.972 44.5775C127.106 45.316 127.509 45.9873 128.113 46.3901C128.515 46.6586 128.918 46.7929 129.387 46.7929C130.326 46.7929 131.266 46.3901 131.936 45.6516C132.741 44.8461 133.345 43.9733 133.815 42.9664L133.949 42.765L134.284 42.1608L132.473 40.9524L131.333 42.765L131.199 42.9664C131.064 43.1006 130.997 43.2349 130.863 43.4363C130.93 42.4964 131.601 35.7161 131.601 35.7161C131.601 35.2462 131.668 34.8434 131.668 34.5748C131.668 34.3734 131.668 34.1049 131.601 33.9035C131.534 33.0979 131.064 32.3595 130.394 31.8224C129.857 31.4196 129.186 31.2182 128.515 31.2182C127.106 31.2182 125.765 32.091 124.423 33.9707C124.289 34.1049 124.222 34.3063 124.088 34.5077C124.088 34.3063 124.088 34.0378 124.021 33.8364C123.886 32.9637 123.35 32.1581 122.612 31.6882C122.142 31.4196 121.606 31.2182 121.069 31.2182C119.727 31.2182 118.453 32.0238 117.178 33.7693C116.977 34.0378 116.775 34.3734 116.574 34.7091L116.91 31.7553L116.105 30.9497L115.769 31.084Z" fill="white"/>
<path d="M136.968 25.3778C136.632 26.3848 136.498 27.3918 136.565 28.4659V31.2854C136.565 31.4868 136.565 32.2924 136.498 35.3805L136.297 40.6168L136.968 40.7511L138.242 41.0196L139.316 36.0518C139.785 34.0378 139.92 33.2323 139.987 32.8966C140.657 30.2113 141.06 28.6673 141.127 28.0631C141.194 27.4589 141.194 26.8547 141.127 26.2505C141.06 25.7135 140.792 25.1764 140.389 24.7736C139.987 24.3708 139.383 24.1023 138.779 24.1023C137.974 24.1023 137.236 24.5722 136.968 25.3778ZM135.022 42.6308C134.62 43.1007 134.486 43.7049 134.62 44.3091C134.754 44.9804 135.089 45.6517 135.626 46.0545C136.096 46.4573 136.699 46.6587 137.303 46.6587C137.974 46.6587 138.578 46.3902 138.98 45.8531C139.383 45.3832 139.584 44.7119 139.45 44.0405C139.316 43.3692 138.98 42.765 138.444 42.3622C137.974 41.9594 137.37 41.758 136.767 41.758C136.096 41.8252 135.425 42.0937 135.022 42.6308Z" fill="white"/>
</g>
<defs>
<clipPath id="clip0_391_1656">
<rect width="75" height="62.5" fill="white" transform="translate(72.5 11.75)"/>
</clipPath>
</defs>
</svg>
