<svg width="220" height="86" viewBox="0 0 220 86" fill="none" xmlns="http://www.w3.org/2000/svg">
<rect width="220" height="86" rx="43" fill="white"/>
<g clip-path="url(#clip0_391_1807)">
<path fill-rule="evenodd" clip-rule="evenodd" d="M175.483 34.7657V51.1263H185V49.0006H177.825V43.914H184.547V41.7883H177.825V36.8535H184.773V34.7657H175.483ZM57.6586 34.7657L53.2024 46.0397L48.6329 34.7657H46.4048L41.8731 46.0397L37.3414 34.7657H35L41.6088 51.2782H42.0619L47.5 37.8784L52.8625 51.2782H53.3157L59.9622 34.7657H57.6586ZM85.793 51.1263H88.1344V34.7657H85.793V51.1263ZM163.21 44.4834L161.435 43.4205C160.302 42.7372 159.622 42.054 159.094 41.4087C158.565 40.7633 158.301 39.9282 158.301 39.0931C158.301 37.8025 158.754 36.7776 159.66 35.9425C160.566 35.1453 161.737 34.7657 163.172 34.7657C164.683 34.7657 165.778 35.1453 166.949 35.9045V38.5617C165.778 37.4229 164.494 36.8535 163.134 36.8535C162.379 36.8535 161.737 37.0433 161.246 37.3849C160.755 37.7266 160.491 38.22 160.491 38.7515C160.491 39.245 160.604 39.6625 160.982 40.0801C161.36 40.4976 162.002 40.9911 162.795 41.4846L164.645 42.5475C166.647 43.7242 167.553 45.2426 167.553 47.1026C167.553 48.4312 167.1 49.4941 166.231 50.3292C165.363 51.1643 164.23 51.5819 162.832 51.5439C161.208 51.5059 159.773 51.0504 158.414 50.0255V47.0646C159.698 48.659 161.133 49.4181 162.795 49.4181C163.512 49.4181 164.154 49.2663 164.645 48.8488C165.136 48.4312 165.4 47.9377 165.4 47.3304C165.4 46.3434 164.645 45.3944 163.21 44.4834ZM73.5196 44.2936L70.8761 38.3719L68.4214 44.2936H73.5196ZM70.0831 34.7657H71.7447L79.071 51.2023H76.6918L74.5015 46.3434H67.5151L65.4758 51.2023H63.0589L70.0831 34.7657ZM94.8187 34.7657H108.527V36.8535H102.863V51.1263H100.521V36.8535H94.8187V34.7657ZM118.875 36.7396H118.157V41.9021H119.063C120.234 41.9021 121.065 41.7883 121.518 41.5985C121.934 41.4087 122.311 41.067 122.538 40.6874C122.802 40.2699 122.915 39.8144 122.915 39.2829C122.915 38.7515 122.764 38.296 122.5 37.8784C122.236 37.4609 121.858 37.1572 121.329 37.0053C120.838 36.8535 120.008 36.7396 118.875 36.7396ZM115.778 51.1263V34.7657H119.932C121.594 34.7657 122.915 35.1833 123.86 35.9804C124.841 36.8155 125.332 37.9164 125.332 39.3209C125.332 40.2699 125.106 41.105 124.615 41.7883C124.124 42.4715 123.482 43.003 122.613 43.3446C123.142 43.6862 123.633 44.1418 124.162 44.7491C124.69 45.3565 125.332 46.3814 126.239 47.8618C126.805 48.7728 127.296 49.4941 127.636 49.9496L128.505 51.1263H125.672C125.672 51.1263 124.917 49.9496 124.841 49.8357L123.671 48.0136L122.802 46.723C122.311 46.0397 121.858 45.5083 121.48 45.0907C121.065 44.7112 120.763 44.4454 120.423 44.2556C120.083 44.0658 119.517 43.9899 118.724 43.9899H118.119V51.1263H115.778ZM142.742 36.7396C140.853 36.7396 139.343 37.309 138.134 38.4858C136.926 39.6625 136.322 41.1429 136.322 42.965C136.322 44.7112 136.926 46.1916 138.134 47.3683C139.343 48.5451 140.853 49.1145 142.666 49.1145C144.479 49.1145 146.027 48.5071 147.236 47.3304C148.444 46.1536 149.048 44.6352 149.048 42.8891C149.048 41.1429 148.444 39.7005 147.236 38.5237C146.027 37.309 144.517 36.7396 142.742 36.7396ZM142.628 34.5C145.159 34.5 147.273 35.2972 148.935 36.8915C150.634 38.4858 151.465 40.4976 151.465 42.927C151.465 45.3565 150.634 47.3304 148.935 48.9247C147.236 50.519 145.083 51.2782 142.515 51.2782C140.06 51.2782 137.983 50.481 136.36 48.9247C134.736 47.3304 133.905 45.3565 133.905 43.003C133.905 40.5735 134.736 38.5237 136.397 36.9294C138.021 35.2972 140.136 34.5 142.628 34.5Z" fill="#5C8018"/>
</g>
<defs>
<clipPath id="clip0_391_1807">
<rect width="150" height="17" fill="white" transform="translate(35 34.5)"/>
</clipPath>
</defs>
</svg>
