<svg width="220" height="86" viewBox="0 0 220 86" fill="none" xmlns="http://www.w3.org/2000/svg">
<rect width="220" height="86" rx="43" fill="white"/>
<g clip-path="url(#clip0_391_1710)">
<path d="M55.1797 21V65H164.82V21H55.1797Z" fill="#0058A3"/>
<path d="M57.304 43.4125C57.304 54.0687 79.3691 62.9375 109.931 62.9375C140.494 62.9375 162.559 54.0687 162.559 43.4125C162.559 32.7562 140.562 23.8875 110 23.8875C79.4376 23.8875 57.304 32.7562 57.304 43.4125Z" fill="#FFDB00"/>
<path d="M138.232 51.0438H130.078C130.421 50.6313 130.695 50.15 130.832 49.6688L135.697 36.3312V36.2625C135.903 35.85 135.971 35.3688 135.971 34.8875H149.745C149.676 35.3 149.745 35.6437 149.95 35.9875C149.95 36.0562 150.019 36.125 150.019 36.2625C150.43 37.225 154.816 48.5687 155.158 49.6C155.295 50.0812 155.569 50.5625 155.912 50.975H145.633C145.633 50.4937 145.565 50.0125 145.291 49.6C145.291 49.6 145.153 49.1875 144.879 48.7062L144.811 48.5H138.849L138.781 48.775C138.781 48.775 138.575 49.2563 138.438 49.6688L138.369 49.8063C138.301 50.15 138.232 50.6313 138.232 51.0438ZM141.796 40.3188C141.727 40.6625 141.659 41.0063 141.522 41.35C141.522 41.4188 141.316 41.9 141.11 42.5875C140.836 43.275 140.562 44.1687 140.22 45.1312H143.646L142.207 41.4188C142.001 41.0063 141.864 40.6625 141.796 40.3188ZM92.2518 51.0438H82.3843C82.5898 50.6313 82.6584 50.15 82.5898 49.6688V36.3312C82.6584 35.85 82.5213 35.3687 82.3843 34.9562H92.2518C92.0463 35.3687 91.9778 35.85 92.0463 36.3312V42.175C92.0463 42.175 95.1985 38.1188 95.9523 37.1562C96.2264 36.8125 97.1857 35.5062 97.1857 34.9562H107.465C106.642 35.575 105.957 36.2625 105.34 37.0187C104.792 37.7062 101.571 41.5562 101.571 41.5562C101.571 41.5562 106.3 48.6375 106.916 49.6688C107.259 50.15 107.67 50.6313 108.081 51.0438H96.1578C96.0207 50.2875 95.6782 49.5312 95.1985 48.9125C94.7188 48.225 92.2519 44.5125 91.9778 44.1V49.7375C91.9778 50.0812 92.0463 50.5625 92.2518 51.0438ZM128.844 51.0438H109.726C109.931 50.6313 110 50.15 109.931 49.6688V36.3312C110 35.85 109.863 35.3687 109.726 34.9562H128.776V39.425C128.365 39.2187 127.885 39.15 127.405 39.2188H119.388V41.35H127.131V44.7875H119.388V46.9188H127.405C127.885 46.9875 128.365 46.85 128.776 46.7125L128.844 51.0438ZM77.656 51.0438H66.9661C67.1716 50.6313 67.2402 50.15 67.1716 49.6688V36.3312C67.2402 35.85 67.1031 35.3687 66.9661 34.9562H77.7245C77.519 35.3687 77.4504 35.85 77.519 36.3312V49.6688C77.3819 50.0813 77.519 50.5625 77.656 51.0438ZM154.062 38.3937C153.445 38.3937 152.897 38.1187 152.486 37.7062C152.075 37.2937 151.869 36.7438 151.937 36.1938C151.937 36.125 151.937 36.125 151.937 36.0562C151.937 34.9562 152.897 34.0625 153.993 34.0625H154.062H154.13C155.295 34.0625 156.186 35.025 156.186 36.1938V36.3312C156.186 36.8812 155.912 37.4312 155.569 37.775C155.158 38.1187 154.61 38.3937 154.062 38.3937ZM153.925 34.475C153.514 34.475 153.102 34.6812 152.76 35.025C152.486 35.3687 152.28 35.7813 152.349 36.1938V36.3312C152.349 37.225 153.102 37.9813 154.062 37.9813H154.13C154.61 37.9813 155.021 37.775 155.364 37.4312C155.706 37.0875 155.843 36.675 155.843 36.1938V36.125C155.843 35.2313 155.09 34.475 154.13 34.475H153.925ZM153.651 37.4312H153.239V34.8875H154.199C154.678 34.8875 155.021 35.2312 155.021 35.7125C155.021 36.0562 154.816 36.3312 154.541 36.4688L155.09 37.4312H154.678L154.199 36.5375H153.651V37.4312ZM153.651 35.3V36.1938H154.199C154.404 36.1938 154.61 35.9875 154.61 35.7812C154.61 35.5063 154.404 35.3 154.199 35.3H153.651Z" fill="#0058A3"/>
</g>
<defs>
<clipPath id="clip0_391_1710">
<rect width="110" height="44" fill="white" transform="translate(55 21)"/>
</clipPath>
</defs>
</svg>
