<svg width="252" height="59" viewBox="0 0 252 59" fill="none" xmlns="http://www.w3.org/2000/svg">
<circle cx="42.4451" cy="42.4461" r="15.6377" fill="#4C3CDE"/>
<path d="M34.209 47.986H50.9602C51.1381 47.986 51.3087 47.9156 51.4345 47.7904C51.5603 47.6651 51.6309 47.4952 51.6309 47.318C51.6309 47.1409 51.5603 46.971 51.4345 46.8457C51.3087 46.7204 51.1381 46.65 50.9602 46.65H50.5186V45.3141C50.5161 43.3046 49.7568 41.3691 48.3908 39.8902C47.0247 38.4113 45.1513 37.4965 43.1408 37.3268V35.9624H44.4822C44.6601 35.9624 44.8307 35.892 44.9565 35.7668C45.0823 35.6415 45.1529 35.4716 45.1529 35.2944C45.1529 35.1173 45.0823 34.9474 44.9565 34.8221C44.8307 34.6968 44.6601 34.6265 44.4822 34.6265H40.458C40.2801 34.6265 40.1095 34.6968 39.9838 34.8221C39.858 34.9474 39.7873 35.1173 39.7873 35.2944C39.7873 35.4716 39.858 35.6415 39.9838 35.7668C40.1095 35.892 40.2801 35.9624 40.458 35.9624H41.7994V37.3268C39.7889 37.4965 37.9155 38.4113 36.5495 39.8902C35.1834 41.3691 34.4241 43.3046 34.4217 45.3141V46.65H34.209C34.0312 46.65 33.8606 46.7204 33.7348 46.8457C33.609 46.971 33.5383 47.1409 33.5383 47.318C33.5383 47.4952 33.609 47.6651 33.7348 47.7904C33.8606 47.9156 34.0312 47.986 34.209 47.986ZM35.7631 45.3141C35.7631 43.5425 36.4697 41.8435 37.7275 40.5908C38.9854 39.3381 40.6913 38.6343 42.4701 38.6343C44.2489 38.6343 45.9549 39.3381 47.2127 40.5908C48.4705 41.8435 49.1772 43.5425 49.1772 45.3141V46.65H35.7631V45.3141ZM49.4669 49.2838C49.3411 49.4091 47.0694 50.5434 46.8915 50.5434H38.2449C38.067 50.5434 38.0042 50.5434 37.8571 50.486C37.7752 50.4526 37.4433 50.3144 37.2143 50.1999C36.9853 50.0854 35.6111 49.3983 35.4966 49.2838C35.6658 49.2838 38.1535 49.322 38.3314 49.322L49.4669 49.2838Z" fill="white"/>
<path d="M35.7631 45.3141C35.7631 43.5425 36.4697 41.8435 37.7275 40.5908C38.9854 39.3381 40.6913 38.6343 42.4701 38.6343C44.2489 38.6343 45.9549 39.3381 47.2127 40.5908C48.4705 41.8435 49.1772 43.5425 49.1772 45.3141V46.65H35.7631V45.3141Z" fill="white"/>
<circle cx="42.4453" cy="15.6381" r="15.6377" fill="#4C3CDE"/>
<path d="M48.2453 8.09915H36.6459C36.1845 8.09915 35.7419 8.29774 35.4156 8.65123C35.0893 9.00471 34.906 9.48414 34.906 9.98405V18.7802C34.906 19.2802 35.0893 19.7596 35.4156 20.1131C35.7419 20.4666 36.1845 20.6651 36.6459 20.6651H41.8656V21.9217H40.1257C39.9719 21.9217 39.8244 21.9879 39.7156 22.1058C39.6069 22.2236 39.5458 22.3834 39.5458 22.55C39.5458 22.7167 39.6069 22.8765 39.7156 22.9943C39.8244 23.1121 39.9719 23.1783 40.1257 23.1783H44.7655C44.9193 23.1783 45.0668 23.1121 45.1756 22.9943C45.2843 22.8765 45.3454 22.7167 45.3454 22.55C45.3454 22.3834 45.2843 22.2236 45.1756 22.1058C45.0668 21.9879 44.9193 21.9217 44.7655 21.9217H43.0256V20.6651H48.2453C48.7067 20.6651 49.1493 20.4666 49.4756 20.1131C49.8019 19.7596 49.9852 19.2802 49.9852 18.7802V9.98405C49.9852 9.48414 49.8019 9.00471 49.4756 8.65123C49.1493 8.29774 48.7067 8.09915 48.2453 8.09915ZM36.6459 9.35575H48.2453C48.3991 9.35575 48.5466 9.42195 48.6554 9.53978C48.7642 9.6576 48.8253 9.81741 48.8253 9.98405V16.267H36.0659V9.98405C36.0659 9.81741 36.127 9.6576 36.2358 9.53978C36.3446 9.42195 36.4921 9.35575 36.6459 9.35575ZM48.2453 19.4085H36.6459C36.4921 19.4085 36.3446 19.3423 36.2358 19.2245C36.127 19.1067 36.0659 18.9469 36.0659 18.7802V17.5236H48.8253V18.7802C48.8253 18.9469 48.7642 19.1067 48.6554 19.2245C48.5466 19.3423 48.3991 19.4085 48.2453 19.4085Z" fill="white"/>
<path d="M36.6459 9.35575H48.2453C48.3991 9.35575 48.5466 9.42195 48.6554 9.53978C48.7642 9.6576 48.8253 9.81741 48.8253 9.98405V16.267H36.0659V9.98405C36.0659 9.81741 36.127 9.6576 36.2358 9.53978C36.3446 9.42195 36.4921 9.35575 36.6459 9.35575Z" fill="white"/>
<circle cx="15.6377" cy="15.6381" r="15.6377" fill="#4C3CDE"/>
<path fill-rule="evenodd" clip-rule="evenodd" d="M13.5679 9.93871C12.9556 11.4116 12.1379 13.4457 11.7504 14.4595C11.2657 15.7276 10.8097 16.3617 10.2879 16.4929C9.87068 16.5975 9.07533 17.1581 8.52005 17.7383C7.12888 19.1926 6.81997 22.1999 7.9459 23.3274C8.65074 24.0332 8.98272 24.071 13.6643 23.9797C18.3693 23.888 18.6346 23.8453 18.6346 23.1829C18.6346 22.7164 18.2851 22.3665 17.5862 22.1331C15.9504 21.5872 15.7418 21.3549 15.4766 19.7816C15.3127 18.8105 14.8731 17.9763 14.1864 17.3342L13.145 16.3599L14.7728 12.2867C15.6681 10.0465 16.3184 7.99904 16.2181 7.7373C16.1178 7.4752 15.731 7.26104 15.3585 7.26104C14.8444 7.26104 14.4128 7.90631 13.5679 9.93871ZM17.675 16.0968C17.3185 17.0672 17.8396 17.409 19.6745 17.409C21.0482 17.409 21.5853 17.2645 21.7433 16.8526C21.8607 16.5465 21.868 16.1528 21.7601 15.9778C21.4539 15.4813 17.8626 15.5859 17.675 16.0968ZM19.2119 19.1094C18.9526 19.2787 18.7974 19.7137 18.867 20.0755C18.9725 20.6242 19.3122 20.7334 20.9109 20.7334C22.7228 20.7334 22.828 20.6854 22.828 19.8586C22.828 19.0684 22.6756 18.975 21.2555 18.8924C20.3906 18.8424 19.4708 18.94 19.2119 19.1094ZM19.9751 22.8564C19.6357 23.7417 20.342 24.1074 22.1675 23.9912C23.6342 23.8982 23.8921 23.7711 23.9882 23.0954C24.0923 22.3592 23.9724 22.3081 22.1424 22.3081C20.6876 22.3081 20.1313 22.4487 19.9751 22.8564Z" fill="white"/>
<circle cx="15.6377" cy="42.4451" r="15.6377" fill="#4C3CDE"/>
<path d="M11.5888 38.0313V35.7544C11.5888 35.6035 11.6498 35.4587 11.7583 35.3519C11.8667 35.2452 12.0139 35.1852 12.1673 35.1852C12.3207 35.1852 12.4678 35.2452 12.5763 35.3519C12.6848 35.4587 12.7457 35.6035 12.7457 35.7544V38.0313C12.7457 38.1823 12.6848 38.3271 12.5763 38.4339C12.4678 38.5406 12.3207 38.6006 12.1673 38.6006C12.0139 38.6006 11.8667 38.5406 11.7583 38.4339C11.6498 38.3271 11.5888 38.1823 11.5888 38.0313ZM14.481 38.6006C14.6344 38.6006 14.7815 38.5406 14.89 38.4339C14.9985 38.3271 15.0594 38.1823 15.0594 38.0313V35.7544C15.0594 35.6035 14.9985 35.4587 14.89 35.3519C14.7815 35.2452 14.6344 35.1852 14.481 35.1852C14.3276 35.1852 14.1805 35.2452 14.072 35.3519C13.9635 35.4587 13.9026 35.6035 13.9026 35.7544V38.0313C13.9026 38.1823 13.9635 38.3271 14.072 38.4339C14.1805 38.5406 14.3276 38.6006 14.481 38.6006ZM16.7947 38.6006C16.9482 38.6006 17.0953 38.5406 17.2038 38.4339C17.3122 38.3271 17.3732 38.1823 17.3732 38.0313V35.7544C17.3732 35.6035 17.3122 35.4587 17.2038 35.3519C17.0953 35.2452 16.9482 35.1852 16.7947 35.1852C16.6413 35.1852 16.4942 35.2452 16.3857 35.3519C16.2773 35.4587 16.2163 35.6035 16.2163 35.7544V38.0313C16.2163 38.1823 16.2773 38.3271 16.3857 38.4339C16.4942 38.5406 16.6413 38.6006 16.7947 38.6006ZM23.736 42.5852V43.1544C23.7357 43.8784 23.4551 44.5751 22.9513 45.1027C22.4474 45.6303 21.7581 45.9491 21.0238 45.9941C20.6293 47.0924 19.9575 48.074 19.0716 48.8467H20.8438C20.9972 48.8467 21.1443 48.9067 21.2528 49.0134C21.3613 49.1202 21.4222 49.265 21.4222 49.4159C21.4222 49.5669 21.3613 49.7117 21.2528 49.8184C21.1443 49.9252 20.9972 49.9852 20.8438 49.9852H8.11823C7.96482 49.9852 7.81769 49.9252 7.70921 49.8184C7.60074 49.7117 7.53979 49.5669 7.53979 49.4159C7.53979 49.265 7.60074 49.1202 7.70921 49.0134C7.81769 48.9067 7.96482 48.8467 8.11823 48.8467H9.89258C9.15457 48.2051 8.56326 47.4167 8.15769 46.5336C7.75212 45.6505 7.54152 44.6927 7.53979 43.7236V40.3083C7.53979 40.1573 7.60074 40.0125 7.70921 39.9058C7.81769 39.799 7.96482 39.739 8.11823 39.739H20.8438C21.6108 39.739 22.3465 40.0389 22.8889 40.5726C23.4313 41.1064 23.736 41.8303 23.736 42.5852ZM20.2654 40.8775H8.69666V43.7236C8.69889 44.7924 9.00582 45.8391 9.58254 46.7448C10.1593 47.6504 10.9826 48.3787 11.959 48.8467H17.003C17.9794 48.3787 18.8028 47.6504 19.3795 46.7448C19.9562 45.8391 20.2631 44.7924 20.2654 43.7236V40.8775ZM22.5791 42.5852C22.579 42.2321 22.4677 41.8878 22.2605 41.5996C22.0533 41.3113 21.7605 41.0934 21.4222 40.9757V43.7236C21.4218 44.0811 21.3928 44.438 21.3355 44.7909C21.6944 44.6866 22.0094 44.4709 22.2335 44.1759C22.4576 43.881 22.5788 43.5227 22.5791 43.1544V42.5852Z" fill="white"/>
<path d="M20.2654 40.8775H8.69666V43.7236C8.69889 44.7924 9.00582 45.8391 9.58254 46.7448C10.1593 47.6504 10.9826 48.3787 11.959 48.8467H17.003C17.9794 48.3787 18.8028 47.6504 19.3795 46.7448C19.9562 45.8391 20.2631 44.7924 20.2654 43.7236V40.8775Z" fill="white"/>
<path d="M69.544 26H67.4474L72.1584 12.9091H74.4403L79.1513 26H77.0547L73.3537 15.2869H73.2514L69.544 26ZM69.8956 20.8736H76.6967V22.5355H69.8956V20.8736ZM83.9658 26.1982C83.0155 26.1982 82.1973 25.983 81.5112 25.5526C80.8294 25.1179 80.3053 24.5192 79.9388 23.7564C79.5723 22.9936 79.3891 22.12 79.3891 21.1357C79.3891 20.1385 79.5766 19.2585 79.9516 18.4957C80.3266 17.7287 80.855 17.13 81.5368 16.6996C82.2186 16.2692 83.0219 16.054 83.9466 16.054C84.6923 16.054 85.3571 16.1925 85.9409 16.4695C86.5247 16.7422 86.9956 17.1257 87.3536 17.62C87.7158 18.1143 87.931 18.6918 87.9991 19.3523H86.1391C86.0368 18.892 85.8024 18.4957 85.4359 18.1634C85.0737 17.831 84.5879 17.6648 83.9786 17.6648C83.4459 17.6648 82.9793 17.8054 82.5787 18.0866C82.1824 18.3636 81.8734 18.7599 81.6518 19.2756C81.4303 19.7869 81.3195 20.392 81.3195 21.0909C81.3195 21.8068 81.4281 22.4247 81.6455 22.9446C81.8628 23.4645 82.1696 23.8672 82.5659 24.1527C82.9665 24.4382 83.4374 24.581 83.9786 24.581C84.3408 24.581 84.6689 24.5149 84.9629 24.3828C85.2612 24.2464 85.5105 24.0526 85.7108 23.8011C85.9153 23.5497 86.0581 23.2472 86.1391 22.8935H87.9991C87.931 23.5284 87.7243 24.0952 87.3791 24.5938C87.0339 25.0923 86.5716 25.4844 85.992 25.7699C85.4168 26.0554 84.7413 26.1982 83.9658 26.1982ZM92.0002 26.2173C91.3781 26.2173 90.8156 26.1023 90.3127 25.8722C89.8099 25.6378 89.4115 25.299 89.1174 24.8558C88.8277 24.4126 88.6828 23.8693 88.6828 23.2259C88.6828 22.6719 88.7893 22.2159 89.0024 21.858C89.2154 21.5 89.5031 21.2166 89.8653 21.0078C90.2275 20.799 90.6324 20.6413 91.0798 20.5348C91.5272 20.4283 91.9832 20.3473 92.4477 20.2919C93.0358 20.2237 93.513 20.1683 93.8795 20.1257C94.246 20.0788 94.5123 20.0043 94.6785 19.902C94.8447 19.7997 94.9278 19.6335 94.9278 19.4034V19.3587C94.9278 18.8004 94.7701 18.3679 94.4548 18.0611C94.1437 17.7543 93.6792 17.6009 93.0613 17.6009C92.4179 17.6009 91.9108 17.7436 91.54 18.0291C91.1735 18.3104 90.92 18.6236 90.7794 18.9688L88.9832 18.5597C89.1963 17.9631 89.5074 17.4815 89.9164 17.1151C90.3298 16.7443 90.8049 16.4759 91.3419 16.3097C91.8788 16.1392 92.4434 16.054 93.0358 16.054C93.4278 16.054 93.8433 16.1009 94.2822 16.1946C94.7254 16.2841 95.1387 16.4503 95.5223 16.6932C95.9101 16.9361 96.2275 17.2834 96.4747 17.7351C96.7218 18.1825 96.8454 18.7642 96.8454 19.4801V26H94.9789V24.6577H94.9022C94.7787 24.9048 94.5933 25.1477 94.3461 25.3864C94.099 25.625 93.7815 25.8232 93.3937 25.9808C93.0059 26.1385 92.5414 26.2173 92.0002 26.2173ZM92.4157 24.6832C92.9441 24.6832 93.3958 24.5788 93.7708 24.37C94.1501 24.1612 94.4377 23.8885 94.6338 23.5518C94.8341 23.2109 94.9342 22.8466 94.9342 22.4588V21.1932C94.866 21.2614 94.7339 21.3253 94.5379 21.3849C94.3461 21.4403 94.1267 21.4893 93.8795 21.532C93.6324 21.5703 93.3916 21.6065 93.1572 21.6406C92.9228 21.6705 92.7268 21.696 92.5691 21.7173C92.1984 21.7642 91.8596 21.843 91.5528 21.9538C91.2502 22.0646 91.0074 22.2244 90.8241 22.4332C90.6451 22.6378 90.5556 22.9105 90.5556 23.2514C90.5556 23.7244 90.7304 24.0824 91.0798 24.3253C91.4292 24.5639 91.8745 24.6832 92.4157 24.6832ZM102.166 26.1918C101.374 26.1918 100.666 25.9893 100.044 25.5845C99.4264 25.1754 98.9406 24.5937 98.5869 23.8395C98.2375 23.081 98.0628 22.1712 98.0628 21.1101C98.0628 20.049 98.2396 19.1413 98.5933 18.3871C98.9513 17.6328 99.4413 17.0554 100.063 16.6548C100.686 16.2543 101.391 16.054 102.179 16.054C102.789 16.054 103.279 16.1562 103.649 16.3608C104.024 16.5611 104.314 16.7955 104.519 17.0639C104.728 17.3324 104.889 17.5689 105.005 17.7734H105.12V12.9091H107.031V26H105.164V24.4723H105.005C104.889 24.6811 104.723 24.9197 104.506 25.1882C104.293 25.4567 103.999 25.6911 103.624 25.8913C103.249 26.0916 102.763 26.1918 102.166 26.1918ZM102.588 24.5618C103.138 24.5618 103.603 24.4169 103.982 24.1271C104.365 23.8331 104.655 23.4261 104.851 22.9062C105.051 22.3864 105.152 21.7812 105.152 21.0909C105.152 20.4091 105.054 19.8125 104.858 19.3011C104.662 18.7898 104.374 18.3913 103.995 18.1058C103.615 17.8203 103.147 17.6776 102.588 17.6776C102.013 17.6776 101.534 17.8267 101.15 18.125C100.767 18.4233 100.477 18.8303 100.281 19.3459C100.089 19.8615 99.9932 20.4432 99.9932 21.0909C99.9932 21.7472 100.091 22.3374 100.287 22.8615C100.483 23.3857 100.773 23.8011 101.157 24.108C101.544 24.4105 102.022 24.5618 102.588 24.5618ZM113.09 26.1982C112.123 26.1982 111.29 25.9915 110.591 25.5781C109.896 25.1605 109.359 24.5746 108.98 23.8203C108.605 23.0618 108.418 22.1733 108.418 21.1548C108.418 20.1491 108.605 19.2628 108.98 18.4957C109.359 17.7287 109.888 17.13 110.565 16.6996C111.247 16.2692 112.044 16.054 112.956 16.054C113.51 16.054 114.047 16.1456 114.567 16.3288C115.087 16.5121 115.553 16.7997 115.967 17.1918C116.38 17.5838 116.706 18.093 116.945 18.7195C117.183 19.3416 117.303 20.098 117.303 20.9886V21.6662H109.498V20.2344H115.43C115.43 19.7315 115.327 19.2862 115.123 18.8984C114.918 18.5064 114.631 18.1974 114.26 17.9716C113.893 17.7457 113.463 17.6328 112.969 17.6328C112.432 17.6328 111.963 17.7649 111.562 18.0291C111.166 18.2891 110.859 18.63 110.642 19.0518C110.429 19.4695 110.322 19.9233 110.322 20.4134V21.532C110.322 22.1882 110.437 22.7464 110.668 23.2067C110.902 23.6669 111.228 24.0185 111.646 24.2614C112.063 24.5 112.551 24.6193 113.109 24.6193C113.472 24.6193 113.802 24.5682 114.1 24.4659C114.398 24.3594 114.656 24.2017 114.874 23.9929C115.091 23.7841 115.257 23.5263 115.372 23.2195L117.181 23.5455C117.036 24.0781 116.776 24.5447 116.401 24.9453C116.031 25.3416 115.564 25.6506 115.001 25.8722C114.443 26.0895 113.806 26.1982 113.09 26.1982ZM118.523 26V16.1818H120.358V17.7798H120.479C120.684 17.2386 121.018 16.8168 121.483 16.5142C121.947 16.2074 122.503 16.054 123.151 16.054C123.807 16.054 124.357 16.2074 124.8 16.5142C125.248 16.821 125.578 17.2429 125.791 17.7798H125.893C126.127 17.2557 126.5 16.8381 127.012 16.527C127.523 16.2116 128.132 16.054 128.84 16.054C129.73 16.054 130.457 16.3331 131.02 16.8913C131.586 17.4496 131.87 18.2912 131.87 19.4162V26H129.958V19.5952C129.958 18.9304 129.777 18.4489 129.415 18.1506C129.053 17.8523 128.62 17.7031 128.118 17.7031C127.495 17.7031 127.012 17.8949 126.667 18.2784C126.321 18.6577 126.149 19.1456 126.149 19.7422V26H124.244V19.4737C124.244 18.9411 124.078 18.5128 123.745 18.1889C123.413 17.8651 122.98 17.7031 122.448 17.7031C122.086 17.7031 121.751 17.799 121.444 17.9908C121.142 18.1783 120.897 18.4403 120.709 18.777C120.526 19.1136 120.434 19.5036 120.434 19.9467V26H118.523ZM134.388 29.6818C134.102 29.6818 133.842 29.6584 133.608 29.6115C133.374 29.5689 133.199 29.522 133.084 29.4709L133.544 27.9048C133.893 27.9986 134.205 28.0391 134.477 28.0263C134.75 28.0135 134.991 27.9112 135.2 27.7195C135.413 27.5277 135.6 27.2145 135.762 26.7798L135.999 26.1278L132.406 16.1818H134.452L136.938 23.8011H137.041L139.527 16.1818H141.579L137.533 27.3104C137.345 27.8217 137.107 28.2543 136.817 28.608C136.527 28.9659 136.182 29.2344 135.781 29.4134C135.381 29.5923 134.916 29.6818 134.388 29.6818ZM150.474 26.1982C149.554 26.1982 148.751 25.9872 148.065 25.5653C147.378 25.1435 146.846 24.5533 146.467 23.7947C146.087 23.0362 145.898 22.1499 145.898 21.1357C145.898 20.1172 146.087 19.2266 146.467 18.4638C146.846 17.701 147.378 17.1087 148.065 16.6868C148.751 16.2649 149.554 16.054 150.474 16.054C151.395 16.054 152.198 16.2649 152.884 16.6868C153.57 17.1087 154.103 17.701 154.482 18.4638C154.861 19.2266 155.051 20.1172 155.051 21.1357C155.051 22.1499 154.861 23.0362 154.482 23.7947C154.103 24.5533 153.57 25.1435 152.884 25.5653C152.198 25.9872 151.395 26.1982 150.474 26.1982ZM150.481 24.5938C151.077 24.5938 151.572 24.4361 151.964 24.1207C152.356 23.8054 152.646 23.3857 152.833 22.8615C153.025 22.3374 153.121 21.7599 153.121 21.1293C153.121 20.5028 153.025 19.9276 152.833 19.4034C152.646 18.875 152.356 18.451 151.964 18.1314C151.572 17.8118 151.077 17.652 150.481 17.652C149.88 17.652 149.381 17.8118 148.985 18.1314C148.593 18.451 148.301 18.875 148.109 19.4034C147.922 19.9276 147.828 20.5028 147.828 21.1293C147.828 21.7599 147.922 22.3374 148.109 22.8615C148.301 23.3857 148.593 23.8054 148.985 24.1207C149.381 24.4361 149.88 24.5938 150.481 24.5938ZM160.957 16.1818V17.7159H155.409V16.1818H160.957ZM156.93 26V15.044C156.93 14.4304 157.064 13.9212 157.333 13.5163C157.601 13.1072 157.957 12.8026 158.4 12.6023C158.843 12.3977 159.325 12.2955 159.845 12.2955C160.228 12.2955 160.556 12.3274 160.829 12.3913C161.102 12.451 161.304 12.5064 161.436 12.5575L160.989 14.1044C160.899 14.0788 160.784 14.049 160.644 14.0149C160.503 13.9766 160.333 13.9574 160.132 13.9574C159.668 13.9574 159.336 14.0724 159.135 14.3026C158.939 14.5327 158.841 14.8651 158.841 15.2997V26H156.93ZM166.046 26V12.9091H168.021V18.598H174.547V12.9091H176.529V26H174.547V20.2919H168.021V26H166.046ZM182.488 26.1982C181.567 26.1982 180.764 25.9872 180.078 25.5653C179.392 25.1435 178.859 24.5533 178.48 23.7947C178.101 23.0362 177.911 22.1499 177.911 21.1357C177.911 20.1172 178.101 19.2266 178.48 18.4638C178.859 17.701 179.392 17.1087 180.078 16.6868C180.764 16.2649 181.567 16.054 182.488 16.054C183.408 16.054 184.211 16.2649 184.897 16.6868C185.584 17.1087 186.116 17.701 186.495 18.4638C186.875 19.2266 187.064 20.1172 187.064 21.1357C187.064 22.1499 186.875 23.0362 186.495 23.7947C186.116 24.5533 185.584 25.1435 184.897 25.5653C184.211 25.9872 183.408 26.1982 182.488 26.1982ZM182.494 24.5938C183.091 24.5938 183.585 24.4361 183.977 24.1207C184.369 23.8054 184.659 23.3857 184.846 22.8615C185.038 22.3374 185.134 21.7599 185.134 21.1293C185.134 20.5028 185.038 19.9276 184.846 19.4034C184.659 18.875 184.369 18.451 183.977 18.1314C183.585 17.8118 183.091 17.652 182.494 17.652C181.893 17.652 181.395 17.8118 180.998 18.1314C180.606 18.451 180.314 18.875 180.123 19.4034C179.935 19.9276 179.841 20.5028 179.841 21.1293C179.841 21.7599 179.935 22.3374 180.123 22.8615C180.314 23.3857 180.606 23.8054 180.998 24.1207C181.395 24.4361 181.893 24.5938 182.494 24.5938ZM195.655 18.5788L193.923 18.8857C193.85 18.6641 193.735 18.4531 193.578 18.2528C193.424 18.0526 193.215 17.8885 192.951 17.7607C192.687 17.6328 192.357 17.5689 191.96 17.5689C191.419 17.5689 190.967 17.6903 190.605 17.9332C190.243 18.1719 190.062 18.4808 190.062 18.8601C190.062 19.1882 190.183 19.4524 190.426 19.6527C190.669 19.853 191.061 20.017 191.602 20.1449L193.162 20.5028C194.065 20.7116 194.739 21.0334 195.182 21.468C195.625 21.9027 195.847 22.4673 195.847 23.1619C195.847 23.75 195.676 24.2741 195.335 24.7344C194.999 25.1903 194.528 25.5483 193.923 25.8082C193.322 26.0682 192.625 26.1982 191.832 26.1982C190.733 26.1982 189.836 25.9638 189.141 25.495C188.447 25.022 188.021 24.3509 187.863 23.4815L189.71 23.2003C189.825 23.6818 190.062 24.0462 190.42 24.2933C190.778 24.5362 191.244 24.6577 191.82 24.6577C192.446 24.6577 192.947 24.5277 193.322 24.2678C193.697 24.0036 193.884 23.6818 193.884 23.3026C193.884 22.9957 193.769 22.7379 193.539 22.5291C193.313 22.3203 192.966 22.1626 192.497 22.0561L190.835 21.6918C189.919 21.483 189.242 21.1506 188.803 20.6946C188.368 20.2386 188.151 19.6612 188.151 18.9624C188.151 18.3828 188.313 17.8757 188.636 17.4411C188.96 17.0064 189.408 16.6676 189.979 16.4247C190.55 16.1776 191.204 16.054 191.941 16.054C193.002 16.054 193.837 16.2841 194.447 16.7443C195.056 17.2003 195.459 17.8118 195.655 18.5788ZM197.048 29.6818V16.1818H198.915V17.7734H199.074C199.185 17.5689 199.345 17.3324 199.554 17.0639C199.763 16.7955 200.052 16.5611 200.423 16.3608C200.794 16.1562 201.284 16.054 201.893 16.054C202.686 16.054 203.393 16.2543 204.015 16.6548C204.638 17.0554 205.125 17.6328 205.479 18.3871C205.837 19.1413 206.016 20.049 206.016 21.1101C206.016 22.1712 205.839 23.081 205.486 23.8395C205.132 24.5937 204.646 25.1754 204.028 25.5845C203.41 25.9893 202.705 26.1918 201.912 26.1918C201.316 26.1918 200.828 26.0916 200.449 25.8913C200.074 25.6911 199.78 25.4567 199.567 25.1882C199.353 24.9197 199.189 24.6811 199.074 24.4723H198.959V29.6818H197.048ZM198.921 21.0909C198.921 21.7812 199.021 22.3864 199.221 22.9062C199.422 23.4261 199.711 23.8331 200.091 24.1271C200.47 24.4169 200.934 24.5618 201.484 24.5618C202.055 24.5618 202.532 24.4105 202.916 24.108C203.299 23.8011 203.589 23.3857 203.785 22.8615C203.986 22.3374 204.086 21.7472 204.086 21.0909C204.086 20.4432 203.988 19.8615 203.792 19.3459C203.6 18.8303 203.31 18.4233 202.922 18.125C202.539 17.8267 202.059 17.6776 201.484 17.6776C200.93 17.6776 200.461 17.8203 200.078 18.1058C199.699 18.3913 199.411 18.7898 199.215 19.3011C199.019 19.8125 198.921 20.4091 198.921 21.0909ZM207.257 26V16.1818H209.169V26H207.257ZM208.223 14.6669C207.89 14.6669 207.605 14.5561 207.366 14.3345C207.132 14.1087 207.015 13.8402 207.015 13.5291C207.015 13.2138 207.132 12.9453 207.366 12.7237C207.605 12.4979 207.89 12.3849 208.223 12.3849C208.555 12.3849 208.838 12.4979 209.073 12.7237C209.311 12.9453 209.431 13.2138 209.431 13.5291C209.431 13.8402 209.311 14.1087 209.073 14.3345C208.838 14.5561 208.555 14.6669 208.223 14.6669ZM215.423 16.1818V17.7159H210.06V16.1818H215.423ZM211.498 13.8295H213.409V23.1172C213.409 23.4879 213.465 23.767 213.576 23.9545C213.686 24.1378 213.829 24.2635 214.004 24.3317C214.183 24.3956 214.377 24.4276 214.586 24.4276C214.739 24.4276 214.873 24.4169 214.988 24.3956C215.103 24.3743 215.193 24.3572 215.257 24.3445L215.602 25.9233C215.491 25.9659 215.333 26.0085 215.129 26.0511C214.924 26.098 214.669 26.1236 214.362 26.1278C213.859 26.1364 213.39 26.0469 212.956 25.8594C212.521 25.6719 212.169 25.3821 211.901 24.9901C211.632 24.598 211.498 24.1058 211.498 23.5135V13.8295ZM219.494 26.2173C218.872 26.2173 218.31 26.1023 217.807 25.8722C217.304 25.6378 216.906 25.299 216.612 24.8558C216.322 24.4126 216.177 23.8693 216.177 23.2259C216.177 22.6719 216.283 22.2159 216.497 21.858C216.71 21.5 216.997 21.2166 217.359 21.0078C217.722 20.799 218.126 20.6413 218.574 20.5348C219.021 20.4283 219.477 20.3473 219.942 20.2919C220.53 20.2237 221.007 20.1683 221.374 20.1257C221.74 20.0788 222.006 20.0043 222.173 19.902C222.339 19.7997 222.422 19.6335 222.422 19.4034V19.3587C222.422 18.8004 222.264 18.3679 221.949 18.0611C221.638 17.7543 221.173 17.6009 220.555 17.6009C219.912 17.6009 219.405 17.7436 219.034 18.0291C218.668 18.3104 218.414 18.6236 218.274 18.9688L216.477 18.5597C216.69 17.9631 217.001 17.4815 217.411 17.1151C217.824 16.7443 218.299 16.4759 218.836 16.3097C219.373 16.1392 219.938 16.054 220.53 16.054C220.922 16.054 221.337 16.1009 221.776 16.1946C222.22 16.2841 222.633 16.4503 223.016 16.6932C223.404 16.9361 223.722 17.2834 223.969 17.7351C224.216 18.1825 224.34 18.7642 224.34 19.4801V26H222.473V24.6577H222.396C222.273 24.9048 222.087 25.1477 221.84 25.3864C221.593 25.625 221.276 25.8232 220.888 25.9808C220.5 26.1385 220.036 26.2173 219.494 26.2173ZM219.91 24.6832C220.438 24.6832 220.89 24.5788 221.265 24.37C221.644 24.1612 221.932 23.8885 222.128 23.5518C222.328 23.2109 222.428 22.8466 222.428 22.4588V21.1932C222.36 21.2614 222.228 21.3253 222.032 21.3849C221.84 21.4403 221.621 21.4893 221.374 21.532C221.126 21.5703 220.886 21.6065 220.651 21.6406C220.417 21.6705 220.221 21.696 220.063 21.7173C219.693 21.7642 219.354 21.843 219.047 21.9538C218.744 22.0646 218.501 22.2244 218.318 22.4332C218.139 22.6378 218.05 22.9105 218.05 23.2514C218.05 23.7244 218.224 24.0824 218.574 24.3253C218.923 24.5639 219.369 24.6832 219.91 24.6832ZM227.896 12.9091V26H225.985V12.9091H227.896ZM229.568 26V16.1818H231.479V26H229.568ZM230.533 14.6669C230.2 14.6669 229.915 14.5561 229.676 14.3345C229.442 14.1087 229.325 13.8402 229.325 13.5291C229.325 13.2138 229.442 12.9453 229.676 12.7237C229.915 12.4979 230.2 12.3849 230.533 12.3849C230.865 12.3849 231.149 12.4979 231.383 12.7237C231.622 12.9453 231.741 13.2138 231.741 13.5291C231.741 13.8402 231.622 14.1087 231.383 14.3345C231.149 14.5561 230.865 14.6669 230.533 14.6669ZM237.733 16.1818V17.7159H232.37V16.1818H237.733ZM233.808 13.8295H235.72V23.1172C235.72 23.4879 235.775 23.767 235.886 23.9545C235.997 24.1378 236.139 24.2635 236.314 24.3317C236.493 24.3956 236.687 24.4276 236.896 24.4276C237.049 24.4276 237.183 24.4169 237.298 24.3956C237.414 24.3743 237.503 24.3572 237.567 24.3445L237.912 25.9233C237.801 25.9659 237.644 26.0085 237.439 26.0511C237.235 26.098 236.979 26.1236 236.672 26.1278C236.169 26.1364 235.7 26.0469 235.266 25.8594C234.831 25.6719 234.48 25.3821 234.211 24.9901C233.943 24.598 233.808 24.1058 233.808 23.5135V13.8295ZM240.155 29.6818C239.87 29.6818 239.61 29.6584 239.376 29.6115C239.141 29.5689 238.966 29.522 238.851 29.4709L239.312 27.9048C239.661 27.9986 239.972 28.0391 240.245 28.0263C240.518 28.0135 240.758 27.9112 240.967 27.7195C241.18 27.5277 241.368 27.2145 241.53 26.7798L241.766 26.1278L238.174 16.1818H240.219L242.706 23.8011H242.808L245.295 16.1818H247.346L243.3 27.3104C243.113 27.8217 242.874 28.2543 242.584 28.608C242.295 28.9659 241.949 29.2344 241.549 29.4134C241.148 29.5923 240.684 29.6818 240.155 29.6818Z" fill="#6BCC39"/>
<path d="M72.0945 48.1854C71.2166 48.1854 70.4602 48.0256 69.8253 47.706C69.1946 47.3864 68.7088 46.9517 68.3679 46.402C68.027 45.848 67.8565 45.2216 67.8565 44.5227C67.8565 43.9901 67.9673 43.517 68.1889 43.1037C68.4105 42.6861 68.7195 42.3004 69.1158 41.9467C69.5121 41.593 69.9702 41.2372 70.4901 40.8793L72.5994 39.3899C72.9574 39.1555 73.2365 38.9084 73.4368 38.6484C73.6371 38.3842 73.7372 38.0582 73.7372 37.6705C73.7372 37.3636 73.6051 37.0696 73.3409 36.7884C73.0767 36.5071 72.723 36.3665 72.2798 36.3665C71.973 36.3665 71.7024 36.4411 71.468 36.5902C71.2379 36.7393 71.0568 36.9311 70.9247 37.1655C70.7969 37.3956 70.733 37.6385 70.733 37.8942C70.733 38.1925 70.8139 38.4929 70.9759 38.7955C71.142 39.098 71.3551 39.4112 71.6151 39.7351C71.875 40.0547 72.1477 40.3871 72.4332 40.7322L78.5121 48H76.3516L71.321 42.0874C70.8991 41.5888 70.5071 41.12 70.1449 40.6811C69.7827 40.2379 69.4886 39.7905 69.2628 39.3388C69.0412 38.8828 68.9304 38.3906 68.9304 37.8622C68.9304 37.2614 69.0668 36.7287 69.3395 36.2642C69.6165 35.7955 70.0021 35.429 70.4964 35.1648C70.9908 34.9006 71.5703 34.7685 72.2351 34.7685C72.9084 34.7685 73.4858 34.9006 73.9673 35.1648C74.4531 35.4247 74.826 35.772 75.0859 36.2067C75.3501 36.6371 75.4822 37.108 75.4822 37.6193C75.4822 38.2415 75.3267 38.7912 75.0156 39.2685C74.7088 39.7415 74.2848 40.1761 73.7436 40.5724L71.1165 42.5092C70.6051 42.8842 70.2493 43.255 70.049 43.6214C69.853 43.9837 69.755 44.267 69.755 44.4716C69.755 44.8466 69.8509 45.1939 70.0426 45.5135C70.2386 45.8331 70.5114 46.0888 70.8608 46.2805C71.2145 46.4723 71.6278 46.5682 72.1009 46.5682C72.5866 46.5682 73.0597 46.4638 73.5199 46.255C73.9844 46.0419 74.4041 45.7372 74.7791 45.3409C75.1584 44.9446 75.4588 44.4695 75.6804 43.9155C75.902 43.3615 76.0128 42.7415 76.0128 42.0554H77.7386C77.7386 42.8991 77.6428 43.6129 77.451 44.1967C77.2592 44.7763 77.027 45.2493 76.7543 45.6158C76.4858 45.978 76.2322 46.2614 75.9936 46.4659C75.9169 46.5341 75.8445 46.6023 75.7763 46.6705C75.7081 46.7386 75.6357 46.8068 75.5589 46.875C75.1158 47.3224 74.5788 47.6527 73.9482 47.8658C73.3217 48.0788 72.7038 48.1854 72.0945 48.1854ZM83.1265 34.9091H85.5235L89.6911 45.0852H89.8445L94.0121 34.9091H96.4092V48H94.5299V38.527H94.4085L90.5477 47.9808H88.988L85.1272 38.5206H85.0058V48H83.1265V34.9091ZM101.085 48.2173C100.462 48.2173 99.9 48.1023 99.3971 47.8722C98.8943 47.6378 98.4958 47.299 98.2018 46.8558C97.912 46.4126 97.7672 45.8693 97.7672 45.2259C97.7672 44.6719 97.8737 44.2159 98.0868 43.858C98.2998 43.5 98.5875 43.2166 98.9497 43.0078C99.3119 42.799 99.7167 42.6413 100.164 42.5348C100.612 42.4283 101.068 42.3473 101.532 42.2919C102.12 42.2237 102.597 42.1683 102.964 42.1257C103.33 42.0788 103.597 42.0043 103.763 41.902C103.929 41.7997 104.012 41.6335 104.012 41.4034V41.3587C104.012 40.8004 103.855 40.3679 103.539 40.0611C103.228 39.7543 102.764 39.6009 102.146 39.6009C101.502 39.6009 100.995 39.7436 100.624 40.0291C100.258 40.3104 100.004 40.6236 99.8637 40.9688L98.0676 40.5597C98.2806 39.9631 98.5917 39.4815 99.0008 39.1151C99.4142 38.7443 99.8893 38.4759 100.426 38.3097C100.963 38.1392 101.528 38.054 102.12 38.054C102.512 38.054 102.928 38.1009 103.367 38.1946C103.81 38.2841 104.223 38.4503 104.607 38.6932C104.994 38.9361 105.312 39.2834 105.559 39.7351C105.806 40.1825 105.93 40.7642 105.93 41.4801V48H104.063V46.6577H103.987C103.863 46.9048 103.678 47.1477 103.431 47.3864C103.183 47.625 102.866 47.8232 102.478 47.9808C102.09 48.1385 101.626 48.2173 101.085 48.2173ZM101.5 46.6832C102.029 46.6832 102.48 46.5788 102.855 46.37C103.234 46.1612 103.522 45.8885 103.718 45.5518C103.918 45.2109 104.019 44.8466 104.019 44.4588V43.1932C103.95 43.2614 103.818 43.3253 103.622 43.3849C103.431 43.4403 103.211 43.4893 102.964 43.532C102.717 43.5703 102.476 43.6065 102.242 43.6406C102.007 43.6705 101.811 43.696 101.654 43.7173C101.283 43.7642 100.944 43.843 100.637 43.9538C100.335 44.0646 100.092 44.2244 99.9085 44.4332C99.7295 44.6378 99.64 44.9105 99.64 45.2514C99.64 45.7244 99.8147 46.0824 100.164 46.3253C100.514 46.5639 100.959 46.6832 101.5 46.6832ZM109.487 42.1705V48H107.575V38.1818H109.41V39.7798H109.531C109.757 39.2599 110.111 38.8423 110.592 38.527C111.078 38.2116 111.69 38.054 112.427 38.054C113.096 38.054 113.682 38.1946 114.185 38.4759C114.688 38.7528 115.078 39.1662 115.355 39.7159C115.632 40.2656 115.77 40.9453 115.77 41.755V48H113.859V41.9851C113.859 41.2734 113.673 40.7173 113.303 40.3168C112.932 39.9119 112.423 39.7095 111.775 39.7095C111.332 39.7095 110.938 39.8054 110.592 39.9972C110.252 40.1889 109.981 40.4702 109.781 40.8409C109.585 41.2074 109.487 41.6506 109.487 42.1705ZM120.29 48.2173C119.668 48.2173 119.106 48.1023 118.603 47.8722C118.1 47.6378 117.702 47.299 117.408 46.8558C117.118 46.4126 116.973 45.8693 116.973 45.2259C116.973 44.6719 117.08 44.2159 117.293 43.858C117.506 43.5 117.793 43.2166 118.156 43.0078C118.518 42.799 118.923 42.6413 119.37 42.5348C119.817 42.4283 120.273 42.3473 120.738 42.2919C121.326 42.2237 121.803 42.1683 122.17 42.1257C122.536 42.0788 122.803 42.0043 122.969 41.902C123.135 41.7997 123.218 41.6335 123.218 41.4034V41.3587C123.218 40.8004 123.06 40.3679 122.745 40.0611C122.434 39.7543 121.969 39.6009 121.352 39.6009C120.708 39.6009 120.201 39.7436 119.83 40.0291C119.464 40.3104 119.21 40.6236 119.07 40.9688L117.273 40.5597C117.487 39.9631 117.798 39.4815 118.207 39.1151C118.62 38.7443 119.095 38.4759 119.632 38.3097C120.169 38.1392 120.734 38.054 121.326 38.054C121.718 38.054 122.134 38.1009 122.572 38.1946C123.016 38.2841 123.429 38.4503 123.812 38.6932C124.2 38.9361 124.518 39.2834 124.765 39.7351C125.012 40.1825 125.136 40.7642 125.136 41.4801V48H123.269V46.6577H123.192C123.069 46.9048 122.884 47.1477 122.636 47.3864C122.389 47.625 122.072 47.8232 121.684 47.9808C121.296 48.1385 120.832 48.2173 120.29 48.2173ZM120.706 46.6832C121.234 46.6832 121.686 46.5788 122.061 46.37C122.44 46.1612 122.728 45.8885 122.924 45.5518C123.124 45.2109 123.224 44.8466 123.224 44.4588V43.1932C123.156 43.2614 123.024 43.3253 122.828 43.3849C122.636 43.4403 122.417 43.4893 122.17 43.532C121.923 43.5703 121.682 43.6065 121.447 43.6406C121.213 43.6705 121.017 43.696 120.859 43.7173C120.489 43.7642 120.15 43.843 119.843 43.9538C119.54 44.0646 119.298 44.2244 119.114 44.4332C118.935 44.6378 118.846 44.9105 118.846 45.2514C118.846 45.7244 119.021 46.0824 119.37 46.3253C119.719 46.5639 120.165 46.6832 120.706 46.6832ZM130.898 51.8864C130.118 51.8864 129.447 51.7841 128.884 51.5795C128.326 51.375 127.87 51.1044 127.516 50.7678C127.163 50.4311 126.898 50.0625 126.724 49.6619L128.367 48.9844C128.482 49.1719 128.635 49.37 128.827 49.5788C129.023 49.7919 129.287 49.973 129.619 50.1222C129.956 50.2713 130.389 50.3459 130.917 50.3459C131.641 50.3459 132.24 50.169 132.713 49.8153C133.186 49.4659 133.423 48.9077 133.423 48.1406V46.2102H133.301C133.186 46.419 133.02 46.6513 132.803 46.907C132.59 47.1626 132.295 47.3842 131.92 47.5717C131.545 47.7592 131.058 47.853 130.457 47.853C129.681 47.853 128.982 47.6719 128.36 47.3097C127.742 46.9432 127.252 46.4041 126.89 45.6925C126.532 44.9766 126.353 44.0966 126.353 43.0526C126.353 42.0085 126.53 41.1136 126.884 40.3679C127.242 39.6222 127.732 39.0511 128.354 38.6548C128.976 38.2543 129.681 38.054 130.469 38.054C131.079 38.054 131.571 38.1562 131.946 38.3608C132.321 38.5611 132.613 38.7955 132.822 39.0639C133.035 39.3324 133.199 39.5689 133.314 39.7734H133.455V38.1818H135.327V48.2173C135.327 49.0611 135.131 49.7536 134.739 50.2947C134.347 50.8359 133.817 51.2365 133.148 51.4964C132.483 51.7564 131.733 51.8864 130.898 51.8864ZM130.879 46.2678C131.428 46.2678 131.893 46.1399 132.272 45.8842C132.656 45.6243 132.945 45.2536 133.141 44.772C133.342 44.2862 133.442 43.7045 133.442 43.027C133.442 42.3665 133.344 41.7848 133.148 41.282C132.952 40.7791 132.664 40.3871 132.285 40.1058C131.906 39.8203 131.437 39.6776 130.879 39.6776C130.303 39.6776 129.824 39.8267 129.44 40.125C129.057 40.419 128.767 40.8196 128.571 41.3267C128.379 41.8338 128.283 42.4006 128.283 43.027C128.283 43.6705 128.381 44.2351 128.577 44.7209C128.773 45.2067 129.063 45.5859 129.447 45.8587C129.835 46.1314 130.312 46.2678 130.879 46.2678ZM141.222 48.1982C140.255 48.1982 139.422 47.9915 138.723 47.5781C138.028 47.1605 137.491 46.5746 137.112 45.8203C136.737 45.0618 136.55 44.1733 136.55 43.1548C136.55 42.1491 136.737 41.2628 137.112 40.4957C137.491 39.7287 138.02 39.13 138.697 38.6996C139.379 38.2692 140.176 38.054 141.088 38.054C141.642 38.054 142.179 38.1456 142.699 38.3288C143.219 38.5121 143.685 38.7997 144.099 39.1918C144.512 39.5838 144.838 40.093 145.077 40.7195C145.315 41.3416 145.435 42.098 145.435 42.9886V43.6662H137.63V42.2344H143.562C143.562 41.7315 143.459 41.2862 143.255 40.8984C143.05 40.5064 142.763 40.1974 142.392 39.9716C142.025 39.7457 141.595 39.6328 141.101 39.6328C140.564 39.6328 140.095 39.7649 139.694 40.0291C139.298 40.2891 138.991 40.63 138.774 41.0518C138.561 41.4695 138.454 41.9233 138.454 42.4134V43.532C138.454 44.1882 138.569 44.7464 138.8 45.2067C139.034 45.6669 139.36 46.0185 139.778 46.2614C140.195 46.5 140.683 46.6193 141.241 46.6193C141.604 46.6193 141.934 46.5682 142.232 46.4659C142.53 46.3594 142.788 46.2017 143.006 45.9929C143.223 45.7841 143.389 45.5263 143.504 45.2195L145.313 45.5455C145.168 46.0781 144.908 46.5447 144.533 46.9453C144.163 47.3416 143.696 47.6506 143.133 47.8722C142.575 48.0895 141.938 48.1982 141.222 48.1982ZM146.655 48V38.1818H148.49V39.7798H148.611C148.816 39.2386 149.15 38.8168 149.615 38.5142C150.079 38.2074 150.635 38.054 151.283 38.054C151.939 38.054 152.489 38.2074 152.932 38.5142C153.38 38.821 153.71 39.2429 153.923 39.7798H154.025C154.26 39.2557 154.632 38.8381 155.144 38.527C155.655 38.2116 156.264 38.054 156.972 38.054C157.863 38.054 158.589 38.3331 159.152 38.8913C159.718 39.4496 160.002 40.2912 160.002 41.4162V48H158.09V41.5952C158.09 40.9304 157.909 40.4489 157.547 40.1506C157.185 39.8523 156.752 39.7031 156.25 39.7031C155.627 39.7031 155.144 39.8949 154.799 40.2784C154.453 40.6577 154.281 41.1456 154.281 41.7422V48H152.376V41.4737C152.376 40.9411 152.21 40.5128 151.877 40.1889C151.545 39.8651 151.113 39.7031 150.58 39.7031C150.218 39.7031 149.883 39.799 149.576 39.9908C149.274 40.1783 149.029 40.4403 148.841 40.777C148.658 41.1136 148.566 41.5036 148.566 41.9467V48H146.655ZM165.895 48.1982C164.928 48.1982 164.094 47.9915 163.396 47.5781C162.701 47.1605 162.164 46.5746 161.785 45.8203C161.41 45.0618 161.222 44.1733 161.222 43.1548C161.222 42.1491 161.41 41.2628 161.785 40.4957C162.164 39.7287 162.692 39.13 163.37 38.6996C164.052 38.2692 164.849 38.054 165.761 38.054C166.315 38.054 166.852 38.1456 167.371 38.3288C167.891 38.5121 168.358 38.7997 168.771 39.1918C169.185 39.5838 169.511 40.093 169.749 40.7195C169.988 41.3416 170.107 42.098 170.107 42.9886V43.6662H162.303V42.2344H168.234C168.234 41.7315 168.132 41.2862 167.928 40.8984C167.723 40.5064 167.435 40.1974 167.065 39.9716C166.698 39.7457 166.268 39.6328 165.773 39.6328C165.236 39.6328 164.768 39.7649 164.367 40.0291C163.971 40.2891 163.664 40.63 163.447 41.0518C163.234 41.4695 163.127 41.9233 163.127 42.4134V43.532C163.127 44.1882 163.242 44.7464 163.472 45.2067C163.707 45.6669 164.033 46.0185 164.45 46.2614C164.868 46.5 165.356 46.6193 165.914 46.6193C166.276 46.6193 166.607 46.5682 166.905 46.4659C167.203 46.3594 167.461 46.2017 167.678 45.9929C167.896 45.7841 168.062 45.5263 168.177 45.2195L169.986 45.5455C169.841 46.0781 169.581 46.5447 169.206 46.9453C168.835 47.3416 168.369 47.6506 167.806 47.8722C167.248 48.0895 166.611 48.1982 165.895 48.1982ZM173.239 42.1705V48H171.328V38.1818H173.162V39.7798H173.284C173.51 39.2599 173.863 38.8423 174.345 38.527C174.831 38.2116 175.442 38.054 176.179 38.054C176.848 38.054 177.434 38.1946 177.937 38.4759C178.44 38.7528 178.83 39.1662 179.107 39.7159C179.384 40.2656 179.522 40.9453 179.522 41.755V48H177.611V41.9851C177.611 41.2734 177.426 40.7173 177.055 40.3168C176.684 39.9119 176.175 39.7095 175.527 39.7095C175.084 39.7095 174.69 39.8054 174.345 39.9972C174.004 40.1889 173.733 40.4702 173.533 40.8409C173.337 41.2074 173.239 41.6506 173.239 42.1705ZM185.769 38.1818V39.7159H180.406V38.1818H185.769ZM181.844 35.8295H183.755V45.1172C183.755 45.4879 183.811 45.767 183.921 45.9545C184.032 46.1378 184.175 46.2635 184.35 46.3317C184.529 46.3956 184.723 46.4276 184.931 46.4276C185.085 46.4276 185.219 46.4169 185.334 46.3956C185.449 46.3743 185.539 46.3572 185.602 46.3445L185.948 47.9233C185.837 47.9659 185.679 48.0085 185.475 48.0511C185.27 48.098 185.014 48.1236 184.708 48.1278C184.205 48.1364 183.736 48.0469 183.301 47.8594C182.867 47.6719 182.515 47.3821 182.247 46.9901C181.978 46.598 181.844 46.1058 181.844 45.5135V35.8295Z" fill="#4C3CDE"/>
</svg>
