<svg width="32" height="32" viewBox="0 0 32 32" fill="none" xmlns="http://www.w3.org/2000/svg">
<path d="M26.6666 25.3334V21.3334H9.33325C7.12411 21.3334 5.33325 23.1243 5.33325 25.3334M11.7333 29.3334H22.3999C23.8934 29.3334 24.6401 29.3334 25.2106 29.0428C25.7123 28.7871 26.1203 28.3792 26.3759 27.8774C26.6666 27.307 26.6666 26.5602 26.6666 25.0667V6.93341C26.6666 5.43994 26.6666 4.6932 26.3759 4.12277C26.1203 3.62101 25.7123 3.21306 25.2106 2.9574C24.6401 2.66675 23.8934 2.66675 22.3999 2.66675H11.7333C9.49304 2.66675 8.37294 2.66675 7.51729 3.10272C6.76464 3.48622 6.15272 4.09814 5.76923 4.85079C5.33325 5.70643 5.33325 6.82654 5.33325 9.06675V22.9334C5.33325 25.1736 5.33325 26.2937 5.76923 27.1494C6.15272 27.902 6.76464 28.5139 7.51729 28.8974C8.37294 29.3334 9.49304 29.3334 11.7333 29.3334Z" stroke="white" stroke-width="2" stroke-linecap="round" stroke-linejoin="round"/>
</svg>
