<svg width="32" height="32" viewBox="0 0 32 32" fill="none" xmlns="http://www.w3.org/2000/svg">
<path d="M18.0394 11.1359C17.2762 11.68 16.3422 12.0001 15.3334 12.0001C12.7561 12.0001 10.6667 9.91074 10.6667 7.33341C10.6667 4.75609 12.7561 2.66675 15.3334 2.66675C17.0041 2.66675 18.4697 3.54464 19.2941 4.86427M8.00008 26.783H11.4805C11.9343 26.783 12.3853 26.837 12.8252 26.9449L16.5026 27.8386C17.3005 28.033 18.1318 28.0519 18.938 27.8953L23.004 27.1042C24.0781 26.895 25.0662 26.3807 25.8405 25.6274L28.7173 22.829C29.5388 22.0312 29.5388 20.7367 28.7173 19.9375C27.9776 19.218 26.8064 19.137 25.9696 19.7472L22.6169 22.1932C22.1367 22.5442 21.5525 22.7332 20.9516 22.7332H17.7141L19.7748 22.7331C20.9364 22.7331 21.8772 21.8179 21.8772 20.688V20.2789C21.8772 19.3407 21.2208 18.5227 20.2855 18.2959L17.1049 17.5224C16.5873 17.3969 16.0572 17.3334 15.5243 17.3334C14.2379 17.3334 11.9093 18.3985 11.9093 18.3985L8.00008 20.0333M26.6667 8.66675C26.6667 11.2441 24.5774 13.3334 22.0001 13.3334C19.4228 13.3334 17.3334 11.2441 17.3334 8.66675C17.3334 6.08942 19.4228 4.00008 22.0001 4.00008C24.5774 4.00008 26.6667 6.08942 26.6667 8.66675ZM2.66675 19.4667L2.66675 27.2001C2.66675 27.9468 2.66675 28.3202 2.81207 28.6054C2.9399 28.8563 3.14388 29.0603 3.39476 29.1881C3.67998 29.3334 4.05334 29.3334 4.80008 29.3334H5.86675C6.61348 29.3334 6.98685 29.3334 7.27207 29.1881C7.52295 29.0603 7.72693 28.8563 7.85476 28.6054C8.00008 28.3202 8.00008 27.9468 8.00008 27.2001V19.4667C8.00008 18.72 8.00008 18.3466 7.85476 18.0614C7.72693 17.8105 7.52295 17.6066 7.27207 17.4787C6.98685 17.3334 6.61349 17.3334 5.86675 17.3334L4.80008 17.3334C4.05335 17.3334 3.67998 17.3334 3.39476 17.4787C3.14388 17.6066 2.9399 17.8105 2.81207 18.0614C2.66675 18.3466 2.66675 18.72 2.66675 19.4667Z" stroke="white" stroke-width="2" stroke-linecap="round" stroke-linejoin="round"/>
</svg>
